!-- Generator: Adobe Illustrator 23.0.2, SVG Export Plug-In  -->
<svg viewBox="0 0 121.97 47.3" preserveAspectRatio="none">
<style type="text/css">
	.st0{fill:#FFFFFF;}
	.st1{fill:none;}
	.st2{fill:#62CAE3;}
</style>
<defs>
</defs>
<rect x="13.87" y="34.22" class="st0" width="2.81" height="2.55"/>
<rect x="13.87" y="37.68" class="st0" width="2.79" height="9.42"/>
<polygon class="st0" points="19.43,34.22 20.39,34.22 20.39,46.2 27.94,46.2 27.94,47.08 19.43,47.08 "/>
<polygon class="st0" points="29.99,34.22 39.14,34.22 39.14,35.11 30.95,35.11 30.95,40.16 38.32,40.16 38.32,41.04 30.95,41.04 
	30.95,46.2 39.23,46.2 39.23,47.08 29.99,47.08 "/>
<path class="st0" d="M52.73,40.69v-0.04c0-3.18-2.31-5.79-5.49-5.79c-3.18,0-5.45,2.57-5.45,5.75v0.04c0,3.18,2.31,5.79,5.49,5.79
	C50.45,46.44,52.73,43.87,52.73,40.69 M40.79,40.69v-0.04c0-3.51,2.59-6.65,6.48-6.65c3.89,0,6.45,3.11,6.45,6.61
	c0.02,0.02,0.02,0.02,0,0.04c0,3.51-2.59,6.65-6.48,6.65C43.34,47.3,40.79,44.2,40.79,40.69"/>
<rect class="st1" width="121.97" height="47.3"/>
<polygon class="st0" points="55.93,34.22 56.83,34.22 65.7,45.41 65.7,34.22 66.62,34.22 66.62,47.08 65.91,47.08 56.85,35.65 
	56.85,47.08 55.93,47.08 "/>
<path class="st0" d="M78.34,42.62l-3.38-7.44l-3.4,7.44H78.34z M74.52,34.13h0.92l5.99,12.95h-1.05l-1.63-3.6h-7.59l-1.63,3.6h-0.99
	L74.52,34.13z"/>
<rect class="st1" width="121.97" height="47.3"/>
<path class="st0" d="M88.63,40.89c2.15,0,3.75-1.08,3.75-2.94v-0.04c0-1.73-1.36-2.81-3.69-2.81h-4.39v5.79H88.63z M83.34,34.22h5.4
	c1.58,0,2.85,0.5,3.62,1.27c0.61,0.61,0.97,1.47,0.97,2.39v0.04c0,2.15-1.6,3.38-3.77,3.67l4.24,5.5H92.6l-4.1-5.33h-0.04h-4.17
	v5.33h-0.96V34.22z"/>
<path class="st0" d="M100.34,46.2c3.58,0,5.84-2.44,5.84-5.51v-0.04c0-3.05-2.26-5.54-5.84-5.54h-3.33v11.1H100.34z M96.06,34.22
	h4.28c4.04,0,6.83,2.77,6.83,6.39v0.04c0,3.62-2.79,6.43-6.83,6.43h-4.28V34.22z"/>
<path class="st0" d="M120.96,40.69v-0.04c0-3.18-2.32-5.79-5.49-5.79c-3.18,0-5.46,2.57-5.46,5.75v0.04c0,3.18,2.31,5.79,5.49,5.79
	C118.68,46.44,120.96,43.87,120.96,40.69 M109.02,40.69v-0.04c0-3.51,2.59-6.65,6.48-6.65c3.89,0,6.45,3.11,6.45,6.61
	c0.02,0.02,0.02,0.02,0,0.04c0,3.51-2.59,6.65-6.49,6.65C111.57,47.3,109.02,44.2,109.02,40.69"/>
<path class="st0" d="M5.02,34.22H0v2.55h2.83h2.19c2.31,0,3.88,1.6,3.88,3.88v0.04c0,2.28-1.56,3.84-3.88,3.84H2.83v-6.85H0v9.4
	h5.02c4.04,0,6.83-2.81,6.83-6.43v-0.04C11.85,37,9.05,34.22,5.02,34.22"/>
<rect x="0" y="0" class="st2" width="121.96" height="4"/>
</svg>
