<?xml version="1.0" standalone="no"?>
<!DOCTYPE svg PUBLIC "-//W3C//DTD SVG 1.1//EN" "http://www.w3.org/Graphics/SVG/1.1/DTD/svg11.dtd" >
<svg xmlns="http://www.w3.org/2000/svg" xmlns:xlink="http://www.w3.org/1999/xlink" version="1.1">
<metadata>
Created by Christoph Koeberlin (http://christoph.koe.berlin)
Copyright (c) 2017 Swiss Typefaces Sarl. All rights reserved.
</metadata>
<defs>
<font id="Font" horiz-adv-x="536" >
  <font-face 
    font-family="Font"
    font-weight="700"
    font-style="italic"
    font-stretch="normal"
    units-per-em="1000"
    panose-1="2 11 8 4 0 0 0 0 0 0"
    ascent="800"
    descent="-200"
    x-height="430"
    cap-height="692"
    bbox="-154 -322 1232 944"
    underline-thickness="100"
    underline-position="-170"
    slope="-18"
    unicode-range="U+0020-FB02"
  />
<missing-glyph horiz-adv-x="771" 
d="M181 711h500v-711h-500v711zM200 683v-655l220 327zM662 28v655l-221 -328zM215 19h432l-216 321zM431 371l216 321h-432z" />
    <glyph glyph-name=".notdef" horiz-adv-x="771" 
d="M181 711h500v-711h-500v711zM200 683v-655l220 327zM662 28v655l-221 -328zM215 19h432l-216 321zM431 371l216 321h-432z" />
    <glyph glyph-name="glyph1" horiz-adv-x="0" 
 />
    <glyph glyph-name="glyph2" horiz-adv-x="214" 
 />
    <glyph glyph-name="space" unicode=" " horiz-adv-x="214" 
 />
    <glyph glyph-name="exclam" unicode="!" horiz-adv-x="271" 
d="M112 219l37 268l67 205h149l-67 -205l-138 -268h-48zM40 151h151l-49 -151h-151z" />
    <glyph glyph-name="quotedbl" unicode="&#x22;" horiz-adv-x="445" 
d="M555 692l-121 -297h-105l73 297h153zM348 692l-121 -297h-105l73 297h153z" />
    <glyph glyph-name="numbersign" unicode="#" horiz-adv-x="695" 
d="M184 294l55 116h-110l51 113h112l79 169h130l-80 -169h107l79 169h129l-79 -169h104l-50 -113h-107l-54 -116h106l-51 -112h-107l-85 -182h-130l85 182h-107l-85 -182h-129l85 182h-109l52 112h109zM314 294h106l55 116h-107z" />
    <glyph glyph-name="dollar" unicode="$" horiz-adv-x="565" 
d="M469 693q66 -23 102 -77t36 -126h-146q0 45 -23.5 73t-67.5 28q-38 0 -62 -19.5t-24 -53.5q0 -23 12.5 -42.5t36.5 -39.5l62 -51q21 -17 42 -37.5t38 -44t27.5 -51t10.5 -58.5q0 -43 -16 -80t-46.5 -65.5t-74 -45.5t-97.5 -19l-25 -75h-130l32 98q-54 25 -88.5 76.5
t-34.5 127.5h147q0 -32 8.5 -53.5t22.5 -34t32 -18t36 -5.5q42 0 66 22.5t24 60.5q0 26 -16.5 49t-44.5 45l-71 56q-38 30 -66 75.5t-28 101.5q0 82 54.5 133t145.5 62l28 87h130z" />
    <glyph glyph-name="percent" unicode="%" horiz-adv-x="965" 
d="M779 692h154l-661 -692h-153zM280 410q18 0 35.5 12t31 32t21.5 45.5t8 51.5q0 29 -13.5 44t-36.5 15q-19 0 -36.5 -12t-31 -32t-21.5 -45.5t-8 -51.5q0 -29 13.5 -44t37.5 -15zM267 313q-66 0 -104.5 42.5t-38.5 112.5q0 49 18 92.5t47.5 76t68 51.5t79.5 19
q35 0 61.5 -11.5t44.5 -32.5t27.5 -49.5t9.5 -62.5q0 -49 -18 -92.5t-47.5 -75.5t-68 -51t-79.5 -19zM725 81q18 0 35.5 12t31 32t21.5 45.5t8 51.5q0 29 -13.5 44t-36.5 15q-19 0 -36.5 -12t-31 -32t-21.5 -45.5t-8 -51.5q0 -29 14 -44t37 -15zM713 -16q-67 0 -105 42.5
t-38 113.5q0 49 18 92.5t47.5 75.5t68 51t79.5 19q70 0 106.5 -43.5t36.5 -111.5q0 -49 -18 -92.5t-47.5 -76t-68 -51.5t-79.5 -19z" />
    <glyph glyph-name="ampersand" unicode="&#x26;" horiz-adv-x="599" 
d="M408 93q-13 -20 -31 -39.5t-42 -35t-53.5 -25t-64.5 -9.5q-42 0 -76 14.5t-58.5 40t-37.5 59.5t-13 74t14 75.5t38.5 65.5t58 54t72.5 41q-11 25 -17.5 53.5t-6.5 60.5q0 42 16 76.5t44.5 58.5t67.5 37t86 13q57 0 96.5 -16.5t63.5 -45t32.5 -66t3.5 -78.5h-139
q9 40 -6 70t-56 30q-35 0 -53.5 -20t-18.5 -55q0 -30 15 -67t37 -72l172 -273l-53 -165zM262 97q30 0 58.5 13.5t50.5 39.5l-107 170q-48 -28 -68.5 -61.5t-20.5 -71.5q0 -40 24.5 -65t62.5 -25z" />
    <glyph glyph-name="quotesingle" unicode="'" horiz-adv-x="238" 
d="M348 692l-121 -297h-105l73 297h153z" />
    <glyph glyph-name="parenleft" unicode="(" horiz-adv-x="340" 
d="M18 37q0 125 33 229.5t84 188.5t112 148t117 108h129q-65 -55 -126.5 -129t-109 -161t-76 -184t-28.5 -197q0 -95 10 -158t24 -112h-122q-17 44 -32 113t-15 154z" />
    <glyph glyph-name="parenright" unicode=")" horiz-adv-x="340" 
d="M338 444q0 -125 -33 -229.5t-84 -188.5t-112 -148t-117 -108h-129q65 55 126.5 129t109 161t76 184t28.5 197q0 95 -10 158t-24 112h122q17 -44 32 -113t15 -154z" />
    <glyph glyph-name="asterisk" unicode="*" horiz-adv-x="428" 
d="M177 440l58 85l-91 35l32 88l96 -39v102h98v-103l96 39l32 -88l-92 -35l57 -84l-83 -49l-60 100l-60 -100z" />
    <glyph glyph-name="plus" unicode="+" horiz-adv-x="530" 
d="M185 160h-159l36 112h160l51 158h124l-52 -158h159l-36 -112h-159l-52 -160h-124z" />
    <glyph glyph-name="comma" unicode="," horiz-adv-x="258" 
d="M56 0h-64l49 151h150l-49 -151l-151 -192h-86z" />
    <glyph glyph-name="hyphen" unicode="-" horiz-adv-x="410" 
d="M35 157l41 123h301l-41 -123h-301z" />
    <glyph glyph-name="period" unicode="." horiz-adv-x="258" 
d="M40 151h151l-49 -151h-151z" />
    <glyph glyph-name="slash" unicode="/" horiz-adv-x="470" 
d="M-43 0l504 711h145l-505 -711h-144z" />
    <glyph glyph-name="zero" unicode="0" horiz-adv-x="643" 
d="M291 -16q-45 0 -84 16t-68.5 46.5t-46.5 75.5t-17 103q0 85 27 171t75 155t114 112t145 43q45 0 84 -15.5t68.5 -46.5t46.5 -76t17 -103q0 -85 -27 -170.5t-75 -154.5t-114 -112.5t-145 -43.5zM307 101q31 0 58 17t50.5 45.5t42 66t31.5 78t20 82t7 77.5q0 58 -24.5 90
t-71.5 32q-30 0 -57.5 -17t-50.5 -45.5t-41.5 -65.5t-31.5 -77.5t-20 -82t-7 -77.5q0 -59 24 -91t71 -32z" />
    <glyph glyph-name="one" unicode="1" horiz-adv-x="377" 
d="M82 0l185 569h-126l39 123h270l-225 -692h-143z" />
    <glyph glyph-name="two" unicode="2" horiz-adv-x="589" 
d="M-23 0l7 22q24 76 64 137.5t112 115.5q30 22 64 39.5t68.5 33.5t67 30t58.5 29q41 23 59.5 51.5t18.5 59.5q0 33 -24.5 53t-62.5 20q-20 0 -41 -6t-39 -21t-31.5 -40t-17.5 -62h-140q7 58 32 104t63 77t86.5 47.5t104.5 16.5q51 0 90.5 -14.5t67 -38.5t42 -56t14.5 -66
q0 -54 -29 -102.5t-92 -93.5q-31 -21 -69 -39.5t-76 -35t-73 -33t-60 -33.5q-28 -20 -43 -37.5t-21 -34.5h328l-40 -123h-488z" />
    <glyph glyph-name="three" unicode="3" horiz-adv-x="591" 
d="M265 -16q-57 0 -101 18.5t-73.5 49t-45 71t-15.5 84.5h141q0 -52 28.5 -79.5t74.5 -27.5q54 0 86 29t32 71q0 45 -31 71.5t-92 26.5h-7l38 117h5q44 0 75 8t51 22t29 33t9 41q0 35 -23 53.5t-59 18.5q-42 0 -73 -27t-43 -84h-138q10 58 35.5 100.5t62 70.5t83 42t97.5 14
q42 0 79 -11t64 -31.5t42.5 -50.5t15.5 -68q0 -43 -18 -77.5t-49.5 -59t-74 -39.5t-91.5 -18l-1 -2q33 -5 62 -18t50 -33t33 -46.5t12 -58.5q0 -47 -19.5 -86t-54.5 -66.5t-85 -42.5t-111 -15z" />
    <glyph glyph-name="four" unicode="4" horiz-adv-x="629" 
d="M322 157h-319l36 111l473 424h125l-135 -416h111l-39 -119h-112l-50 -157h-141zM361 277l76 234l-262 -234h186z" />
    <glyph glyph-name="five" unicode="5" horiz-adv-x="591" 
d="M260 -16q-56 0 -98 17t-70 47t-42.5 70t-14.5 86h139q3 -51 25.5 -77.5t67.5 -26.5q33 0 60.5 13.5t47.5 36.5t31.5 53.5t11.5 63.5q0 44 -22.5 73.5t-70.5 29.5q-71 0 -114 -72h-138l174 394h402l-40 -123h-291l-83 -188h4q32 45 75 66.5t88 21.5q31 0 59.5 -12
t50.5 -36t35.5 -59t13.5 -80t-18 -97.5t-55 -97t-94 -74t-134 -29.5z" />
    <glyph glyph-name="six" unicode="6" horiz-adv-x="613" 
d="M285 -16q-51 0 -90 17.5t-66 48.5t-40.5 74.5t-13.5 96.5q0 54 11 111t33 111t54.5 102t74.5 84t93.5 57t112.5 21q47 0 83.5 -16t62 -42.5t39 -61.5t13.5 -74h-137q-3 41 -25 60t-57 19q-38 0 -72.5 -21t-63 -58.5t-48.5 -88.5t-30 -111h2q67 138 196 138q35 0 64 -13.5
t49.5 -37.5t32 -56t11.5 -69q0 -56 -19.5 -108.5t-56.5 -93t-90.5 -65t-122.5 -24.5zM294 96q27 0 51 12.5t43 33.5t30 49t11 60q0 43 -20.5 68t-62.5 25q-27 0 -51.5 -12.5t-43 -34t-29.5 -49.5t-11 -59q0 -40 20.5 -66.5t62.5 -26.5z" />
    <glyph glyph-name="seven" unicode="7" horiz-adv-x="552" 
d="M89 0q21 105 59 189.5t94.5 153.5t132.5 124.5t175 101.5l1 2h-417l39 121h514l-36 -109q-81 -52 -147 -107.5t-116 -123.5t-85 -153.5t-54 -198.5h-160v0z" />
    <glyph glyph-name="eight" unicode="8" horiz-adv-x="599" 
d="M285 -16q-54 0 -98.5 14.5t-76 39.5t-49 59t-17.5 74q0 37 15.5 71t42.5 60t64.5 43t81.5 22l1 2q-41 22 -67.5 62.5t-26.5 89.5q0 35 16 68.5t46 60t73 42.5t97 16q55 0 96 -14.5t68 -39t40.5 -56.5t13.5 -67q0 -34 -13 -63.5t-36.5 -53t-55 -40.5t-68.5 -26l-2 -2
q51 -19 83 -59t32 -93q0 -47 -19.5 -85.5t-54 -66.5t-82.5 -43t-104 -15zM367 414q27 0 46.5 11t32 27t18 34.5t5.5 33.5q0 38 -21.5 60t-58.5 22q-27 0 -46.5 -11t-32 -27t-18 -34.5t-5.5 -33.5q0 -38 21.5 -60t58.5 -22zM289 95q50 0 83.5 31t33.5 81q0 39 -28 63.5
t-72 24.5q-52 0 -84 -31.5t-32 -80.5q0 -40 27.5 -64t71.5 -24z" />
    <glyph glyph-name="nine" unicode="9" horiz-adv-x="612" 
d="M412 707q51 0 90 -17.5t66 -48.5t40.5 -74.5t13.5 -96.5q0 -54 -11 -111t-33 -111t-54.5 -102t-74.5 -84t-93.5 -57t-112.5 -21q-47 0 -83.5 16t-62 42.5t-39 61.5t-13.5 74h137q3 -41 25 -60t57 -19q38 0 72.5 21t63 58.5t48.5 88.5t30 111h-2q-67 -138 -196 -138
q-35 0 -64 13.5t-49.5 37.5t-32 56t-11.5 69q0 56 19.5 108.5t56.5 93t90.5 65t122.5 24.5zM403 595q-27 0 -51 -12.5t-43 -33.5t-30 -49t-11 -60q0 -43 20.5 -68t62.5 -25q27 0 51.5 12.5t43 34t29.5 49.5t11 59q0 40 -20.5 66.5t-62.5 26.5z" />
    <glyph glyph-name="colon" unicode=":" horiz-adv-x="260" 
d="M124 430h151l-49 -151h-151zM33 151h151l-49 -151h-151z" />
    <glyph glyph-name="semicolon" unicode=";" horiz-adv-x="273" 
d="M57 0h-64l49 151h150l-49 -151l-151 -192h-86zM133 430h151l-49 -151h-151z" />
    <glyph glyph-name="equal" unicode="=" horiz-adv-x="530" 
d="M38 178h430l-37 -112h-430zM99 367h430l-36 -112h-430z" />
    <glyph glyph-name="question" unicode="?" horiz-adv-x="568" 
d="M407 707q55 0 97 -13.5t70 -36.5t42 -52.5t14 -61.5q0 -42 -15 -74t-40 -56t-57.5 -40.5t-67.5 -26.5q-26 -8 -42.5 -16.5t-28.5 -20.5t-20 -28.5t-15 -40.5l-7 -22h-143l10 32q14 45 29.5 75.5t36 51t46.5 33.5t62 24q61 18 84 39.5t23 51.5q0 29 -22.5 47.5t-64.5 18.5
q-49 0 -86.5 -27t-50.5 -96h-145q13 70 42.5 116.5t68.5 73.5t85.5 38t94.5 11zM169 151h151l-49 -151h-151z" />
    <glyph glyph-name="at" unicode="@" horiz-adv-x="858" 
d="M483 446q-40 0 -63.5 -34.5t-23.5 -84.5q0 -35 16.5 -58t46.5 -23q21 0 38 10t28.5 26.5t18 38t6.5 44.5q0 42 -21 61.5t-46 19.5zM682 240q27 0 47.5 29.5t20.5 90.5q0 64 -21.5 110t-58.5 76t-86.5 44.5t-105.5 14.5t-104.5 -19t-84.5 -54.5t-57 -86.5t-21 -115
q0 -54 19 -99t52 -77.5t78.5 -50t98.5 -17.5q54 0 91 11.5t65 26.5l37 -93q-18 -11 -41 -19.5t-48 -14.5t-51 -9.5t-49 -3.5q-86 0 -154 29t-116 77t-73.5 110t-25.5 128q0 88 32 158.5t86 119.5t124.5 75t146.5 26q70 0 137.5 -21t120.5 -63t86 -104t33 -144
q0 -47 -12.5 -88t-36 -72t-57.5 -49t-77 -18q-28 0 -50.5 8t-38.5 22t-26.5 32.5t-14.5 39.5h-1q-6 -17 -17 -33.5t-27 -29.5t-37 -21.5t-46 -8.5q-28 0 -53.5 11.5t-45 33t-31.5 52t-12 68.5q0 46 14.5 85t39 67t56.5 43.5t67 15.5q42 0 68 -25t35 -62h1l8 62h102l-20 -148
q-3 -26 -4 -48t2.5 -38t12 -25t23.5 -9z" />
    <glyph glyph-name="A" unicode="A" horiz-adv-x="694" 
d="M-70 0l500 692h156l30 -692h-143l-6 173h-248l-123 -173h-166zM455 504l-147 -206h154z" />
    <glyph glyph-name="B" unicode="B" horiz-adv-x="641" 
d="M200 125h109q39 0 67 9.5t45 24.5t25 34t8 38q0 29 -20 46.5t-70 17.5h-109zM11 0l225 692h211q54 0 93 -11.5t64.5 -31.5t38 -46.5t12.5 -57.5q0 -36 -16 -68t-45 -56.5t-70.5 -40.5t-93.5 -20l-1 -2q36 -3 67.5 -14t55.5 -29.5t37.5 -43.5t13.5 -56q0 -42 -20 -81
t-60.5 -69t-102.5 -47.5t-146 -17.5h-263zM295 419h88q32 0 55 8.5t37.5 21.5t21.5 29.5t7 33.5q0 28 -18.5 41.5t-62.5 13.5h-80z" />
    <glyph glyph-name="C" unicode="C" horiz-adv-x="773" 
d="M395 -16q-75 0 -133 23t-98 64.5t-60.5 98t-20.5 124.5q0 81 30 155.5t84.5 131.5t130.5 91.5t167 34.5q66 0 119.5 -20.5t92.5 -55t63.5 -80.5t33.5 -97h-161q-11 57 -53.5 88.5t-105.5 31.5q-52 0 -97 -22.5t-78.5 -60t-52.5 -86.5t-19 -102q0 -50 14.5 -85.5t38.5 -58
t55 -32.5t64 -10q65 0 118 33t79 87h160q-21 -55 -56.5 -101.5t-83 -80t-106 -52.5t-125.5 -19z" />
    <glyph glyph-name="D" unicode="D" horiz-adv-x="729" 
d="M236 692h201q71 0 126.5 -20t94 -56t59 -87t20.5 -113q0 -83 -33 -158.5t-96.5 -132.5t-157.5 -91t-215 -34h-224zM278 134q73 0 131 22.5t98 60.5t61 87.5t21 102.5q0 80 -48.5 115.5t-130.5 35.5h-69l-138 -424h75z" />
    <glyph glyph-name="E" unicode="E" horiz-adv-x="587" 
d="M236 692h458l-43 -132h-310l-47 -143h265l-43 -132h-264l-50 -153h310l-43 -132h-458z" />
    <glyph glyph-name="F" unicode="F" horiz-adv-x="567" 
d="M236 692h453l-43 -132h-305l-48 -148h260l-43 -132h-260l-91 -280h-148z" />
    <glyph glyph-name="G" unicode="G" horiz-adv-x="807" 
d="M585 109q-45 -66 -109 -95.5t-133 -29.5q-59 0 -107.5 22t-83 61.5t-53.5 94t-19 120.5q0 78 29.5 154t84.5 136t133 97.5t175 37.5q64 0 117 -18.5t93 -51t66 -76t36 -93.5h-160q-8 27 -23.5 47t-37.5 33t-48 19.5t-54 6.5q-51 0 -98 -22t-83 -60t-57 -89.5t-21 -109.5
q0 -47 14.5 -82.5t39.5 -59.5t59.5 -36.5t74.5 -12.5q75 0 125.5 32.5t70.5 92.5l8 24h-222l41 126h366l-123 -377h-137l37 109h-1v0z" />
    <glyph glyph-name="H" unicode="H" horiz-adv-x="754" 
d="M548 285h-296l-93 -285h-148l225 692h148l-90 -275h297l89 275h148l-225 -692h-148z" />
    <glyph glyph-name="I" unicode="I" horiz-adv-x="310" 
d="M159 0h-148l225 692h148z" />
    <glyph glyph-name="J" unicode="J" horiz-adv-x="559" 
d="M217 -16q-54 0 -96.5 18t-70 49.5t-38.5 75t-1 95.5h148q-7 -55 7.5 -86t59.5 -31q41 0 66.5 26t46.5 91l152 470h148l-159 -488q-37 -113 -99.5 -166.5t-163.5 -53.5z" />
    <glyph glyph-name="K" unicode="K" horiz-adv-x="667" 
d="M159 0h-148l225 692h148zM275 342l2 5l355 345h185l-376 -359l164 -333h-164z" />
    <glyph glyph-name="L" unicode="L" horiz-adv-x="528" 
d="M236 692h148l-180 -554h287l-44 -138h-436z" />
    <glyph glyph-name="M" unicode="M" horiz-adv-x="852" 
d="M466 173h-105l-54 289l-150 -462h-146l225 692h153l66 -376l312 376h159l-225 -692h-146l146 448z" />
    <glyph glyph-name="N" unicode="N" horiz-adv-x="749" 
d="M11 0l225 692h142l145 -483l156 483h144l-225 -692h-142l-144 483l-157 -483h-144z" />
    <glyph glyph-name="O" unicode="O" horiz-adv-x="820" 
d="M405 -16q-61 0 -118.5 19t-102.5 57.5t-72.5 97t-27.5 137.5q0 89 33.5 164.5t90.5 130.5t132.5 86t159.5 31q60 0 118 -19t103 -57.5t72.5 -97t27.5 -137.5q0 -89 -33.5 -164.5t-90.5 -130.5t-132.5 -86t-159.5 -31zM417 117q54 0 100 21.5t79.5 58.5t52.5 86t19 104
q0 86 -49 136.5t-131 50.5q-54 0 -100 -21.5t-79.5 -58.5t-52.5 -86t-19 -104q0 -86 48.5 -136.5t131.5 -50.5z" />
    <glyph glyph-name="P" unicode="P" horiz-adv-x="619" 
d="M237 242l-78 -242h-148l225 692h215q60 0 103 -15t71 -41t41 -60.5t13 -74.5q0 -51 -21 -98t-61 -83t-97.5 -57t-130.5 -21h-132zM387 372q37 0 64.5 9.5t46 26t27.5 38t9 44.5q0 32 -20.5 52t-70.5 20h-102l-61 -190h107z" />
    <glyph glyph-name="Q" unicode="Q" horiz-adv-x="820" 
d="M305 -46h393l-40 -123h-393zM405 -16q-61 0 -118.5 19t-102.5 57.5t-72.5 97t-27.5 137.5q0 89 33.5 164.5t90.5 130.5t132.5 86t159.5 31q60 0 118 -19t103 -57.5t72.5 -97t27.5 -137.5q0 -89 -33.5 -164.5t-90.5 -130.5t-132.5 -86t-159.5 -31zM417 117q54 0 100 21.5
t79.5 58.5t52.5 86t19 104q0 86 -49 136.5t-131 50.5q-54 0 -100 -21.5t-79.5 -58.5t-52.5 -86t-19 -104q0 -86 48.5 -136.5t131.5 -50.5z" />
    <glyph glyph-name="R" unicode="R" horiz-adv-x="651" 
d="M315 275h-67l-89 -275h-148l225 692h197q58 0 102 -13.5t73 -37.5t44 -56.5t15 -70.5q0 -79 -51 -141t-155 -86l106 -287h-150zM398 402q25 0 47.5 7t39 19.5t26 30t9.5 39.5q0 64 -79 64h-100l-51 -160h108z" />
    <glyph glyph-name="S" unicode="S" horiz-adv-x="568" 
d="M267 -16q-47 0 -89 15t-74 44t-51 71.5t-19 97.5h152q1 -57 28 -81.5t66 -24.5q41 0 64.5 22.5t23.5 58.5q0 23 -13 45t-42 45l-71 56q-19 15 -36.5 34.5t-31 42t-22 48.5t-8.5 54q0 45 17.5 81.5t50 62t77.5 39.5t99 14q52 0 93.5 -16.5t70.5 -45.5t45 -69t16 -86h-153
q1 42 -21 69t-66 27q-35 0 -58.5 -18.5t-23.5 -48.5q0 -46 48 -85l65 -51q21 -17 41.5 -37t36.5 -44t25.5 -51t9.5 -58q0 -45 -17.5 -83.5t-49.5 -67t-78.5 -44.5t-104.5 -16z" />
    <glyph glyph-name="T" unicode="T" horiz-adv-x="569" 
d="M668 560h-198l-182 -560h-148l182 560h-198l43 132h544z" />
    <glyph glyph-name="U" unicode="U" horiz-adv-x="726" 
d="M338 114q70 0 114 40t69 115l138 423h148l-140 -431q-24 -75 -59.5 -127.5t-80 -85.5t-97.5 -48.5t-114 -15.5q-67 0 -118 23t-81 63.5t-36.5 97t14.5 122.5l130 402h148l-133 -411q-27 -85 0.5 -126t97.5 -41z" />
    <glyph glyph-name="V" unicode="V" horiz-adv-x="685" 
d="M183 0l-18 692h146l10 -502l348 502h168l-488 -692h-166z" />
    <glyph glyph-name="W" unicode="W" horiz-adv-x="946" 
d="M182 692h147l-64 -504l281 460h131l-32 -460l275 504h164l-386 -692h-179l31 438l-273 -438h-179z" />
    <glyph glyph-name="X" unicode="X" horiz-adv-x="692" 
d="M478 351l138 -351h-156l-97 247l-271 -247h-179l402 369l-126 323h155l86 -219l238 219h183z" />
    <glyph glyph-name="Y" unicode="Y" horiz-adv-x="671" 
d="M650 692h173l-402 -441l-82 -251h-148l82 251l-115 441h145l76 -302z" />
    <glyph glyph-name="Z" unicode="Z" horiz-adv-x="600" 
d="M450 567h-285l41 125h531l-506 -565h306l-41 -127h-558z" />
    <glyph glyph-name="bracketleft" unicode="[" horiz-adv-x="348" 
d="M474 711l-40 -123h-100l-226 -695h100l-40 -123h-239l306 941h239z" />
    <glyph glyph-name="bracketright" unicode="]" horiz-adv-x="349" 
d="M-109 -230l40 123h100l226 695h-100l40 123h239l-306 -941h-239z" />
    <glyph glyph-name="underscore" unicode="_" horiz-adv-x="493" 
d="M-65 -122l40 122h408l-39 -122h-409z" />
    <glyph glyph-name="grave" unicode="`" horiz-adv-x="315" 
d="M137 711h162l113 -158h-116z" />
    <glyph glyph-name="a" unicode="a" horiz-adv-x="561" 
d="M169 -14q-32 0 -57.5 13t-44 36.5t-28.5 56.5t-10 73q0 50 17.5 100t49 90.5t76 65.5t97.5 25q30 0 52.5 -10t37.5 -26t24 -37t13 -43h2l33 100h143l-140 -430h-135l27 87h-1q-32 -46 -70.5 -73.5t-85.5 -27.5zM248 88q27 0 49.5 14.5t39 38t25.5 53.5t9 61q0 45 -20 64
t-49 19q-26 0 -48.5 -14.5t-39 -38t-25.5 -53.5t-9 -61q0 -45 19.5 -64t48.5 -19z" />
    <glyph glyph-name="b" unicode="b" horiz-adv-x="568" 
d="M295 -16q-31 0 -53.5 10t-38.5 26t-25 37t-13 43h-2l-33 -100h-143l231 711h143l-116 -356h2q30 41 67.5 65t82.5 24q65 0 103.5 -49t38.5 -130q0 -50 -17.5 -100t-50 -90.5t-77.5 -65.5t-99 -25zM262 92q27 0 50 14.5t40 38t26.5 53.5t9.5 61q0 45 -21 64t-50 19
q-27 0 -50 -14.5t-40 -38t-26.5 -53.5t-9.5 -61q0 -45 21 -64t50 -19z" />
    <glyph glyph-name="c" unicode="c" horiz-adv-x="518" 
d="M219 -16q-48 0 -83.5 15.5t-59 41.5t-35 60.5t-11.5 73.5q0 48 18 96.5t52.5 87t84 63t112.5 24.5q49 0 86 -14.5t62.5 -39.5t39.5 -58t17 -69h-137q-2 31 -19 51t-52 20q-27 0 -49 -13.5t-38.5 -36t-25.5 -50.5t-9 -58q0 -45 23 -64.5t52 -19.5q34 0 59 18.5t40 52.5
h137q-32 -85 -101 -133t-163 -48z" />
    <glyph glyph-name="d" unicode="d" horiz-adv-x="568" 
d="M171 -14q-32 0 -58.5 13t-45.5 36.5t-29 56.5t-10 73q0 50 18 100t50 90.5t77.5 65.5t99.5 25q31 0 53.5 -10t38 -26t25 -37t13.5 -43h2l124 381h143l-231 -711h-137l27 87h-1q-32 -46 -71.5 -73.5t-87.5 -27.5zM251 88q27 0 50 14.5t40 38t26.5 53.5t9.5 61q0 45 -21 64
t-50 19q-27 0 -50 -14.5t-40 -38t-26.5 -53.5t-9.5 -61q0 -45 20.5 -64t50.5 -19z" />
    <glyph glyph-name="e" unicode="e" horiz-adv-x="529" 
d="M228 -16q-91 0 -144 53t-53 144q0 50 19 98t54.5 85t86 59.5t112.5 22.5q56 0 96.5 -21t64.5 -56.5t31 -83t-4 -101.5h-325q-2 -28 5.5 -46t20 -28t27.5 -14t29 -4q29 0 53 11t38 34h137q-15 -35 -41 -63t-59 -48t-71 -31t-77 -11zM293 343q-37 0 -67 -21t-45 -61h187
q2 37 -16 59.5t-59 22.5z" />
    <glyph glyph-name="f" unicode="f" horiz-adv-x="388" 
d="M158 314h-112l38 116h112l28 86q18 57 43.5 94.5t60.5 60t82 31.5t109 9h28l-43 -131h-23q-46 0 -76 -18.5t-44 -63.5l-22 -68h104l-38 -116h-104l-102 -314h-143z" />
    <glyph glyph-name="g" unicode="g" horiz-adv-x="567" 
d="M484 338q12 -30 12 -63q0 -37 -13 -71t-36.5 -62.5t-57.5 -49.5t-76 -30q54 -14 88 -49t34 -83q0 -35 -17 -67t-49 -56.5t-77.5 -39t-101.5 -12.5q-51 1 -94.5 18t-75 48.5t-48.5 76.5t-15 102h138q-1 -74 27.5 -104t75.5 -31q21 0 40.5 5.5t34.5 17.5t24 30.5t9 42.5
q0 15 -4.5 30t-14 28t-24.5 22.5t-35 13.5q-43 3 -76 17.5t-55.5 37.5t-34 52.5t-11.5 63.5q0 43 17.5 83t50 70.5t78 48.5t101.5 18q26 0 48.5 -4t42.5 -12h253l-67 -92h-91zM255 160q25 0 43.5 10.5t31.5 27t19.5 36.5t6.5 39q0 27 -15 47t-50 20q-25 0 -44 -10.5t-32 -27
t-19.5 -36.5t-6.5 -38q0 -29 15.5 -48.5t50.5 -19.5z" />
    <glyph glyph-name="h" unicode="h" 
d="M218 711h143l-124 -382h1q32 57 73.5 87t95.5 30q25 0 49 -10.5t38.5 -34.5t16 -63.5t-17.5 -97.5l-79 -240h-143l80 244q8 25 8.5 41.5t-5 27t-16 15t-23.5 4.5q-45 0 -75.5 -43t-58.5 -130l-51 -159h-143z" />
    <glyph glyph-name="i" unicode="i" horiz-adv-x="257" 
d="M130 0h-143l140 430h143zM307 545h-143l48 147h143z" />
    <glyph glyph-name="j" unicode="j" horiz-adv-x="257" 
d="M-99 -264l226 694h143l-187 -576l-181 -118h-1zM307 545h-143l48 147h143z" />
    <glyph glyph-name="k" unicode="k" horiz-adv-x="523" 
d="M410 430h168l-209 -212l86 -218h-155l-88 225l1 3zM130 0h-143l231 711h143z" />
    <glyph glyph-name="l" unicode="l" horiz-adv-x="257" 
d="M130 0h-143l231 711h143z" />
    <glyph glyph-name="m" unicode="m" horiz-adv-x="812" 
d="M127 430h143l-33 -101h1q32 57 73 87t96 30q20 0 38 -6.5t31.5 -21t20.5 -38t5 -57.5q37 59 84.5 91t101.5 32q25 0 48 -10.5t36.5 -34.5t14.5 -63.5t-18 -97.5l-78 -240h-143l79 244q16 50 5 69t-37 19q-45 0 -74.5 -43t-58.5 -130l-52 -159h-143l79 244q16 50 5 69
t-37 19q-45 0 -75 -43t-58 -130l-51 -159h-143z" />
    <glyph glyph-name="n" unicode="n" 
d="M238 329q32 57 73.5 87t95.5 30q25 0 49 -10.5t38.5 -34.5t16 -63.5t-17.5 -97.5l-79 -240h-143l80 244q8 25 8.5 41.5t-5 27t-16 15t-23.5 4.5q-45 0 -75.5 -43t-58.5 -130l-51 -159h-143l140 430h143l-33 -101h1v0z" />
    <glyph glyph-name="o" unicode="o" horiz-adv-x="552" 
d="M243 -16q-50 0 -89.5 15t-66.5 42t-41.5 64t-14.5 80q0 50 20 97t57 83.5t88 58.5t113 22q50 0 89.5 -15t66.5 -42t41.5 -64t14.5 -80q0 -50 -20 -97t-57 -83.5t-88 -58.5t-113 -22zM255 96q27 0 50 13.5t39.5 35t25.5 48t9 52.5q0 43 -22.5 66t-59.5 23q-27 0 -50 -13.5
t-39.5 -35t-25.5 -48t-9 -52.5q0 -42 22 -65.5t60 -23.5z" />
    <glyph glyph-name="p" unicode="p" horiz-adv-x="568" 
d="M127 430h137l-28 -87h2q32 46 71.5 73.5t87.5 27.5q65 0 103.5 -49t38.5 -130q0 -50 -17.5 -100t-50 -90.5t-77.5 -65.5t-99 -25q-31 0 -53.5 10t-38.5 26t-25 37t-13 43h-2l-108 -330h-143zM262 92q27 0 50 14.5t40 38t26.5 53.5t9.5 61q0 45 -21 64t-50 19
q-27 0 -50 -14.5t-40 -38t-26.5 -53.5t-9.5 -61q0 -45 21 -64t50 -19z" />
    <glyph glyph-name="q" unicode="q" horiz-adv-x="568" 
d="M323 75h-2q-30 -41 -67.5 -65t-82.5 -24q-65 0 -103.5 49t-38.5 130q0 50 17.5 100t50 90.5t77.5 65.5t99 25q31 0 54 -10t38.5 -26t25 -37t13.5 -43h1l33 100h143l-215 -660h-143zM251 88q27 0 50 14.5t40 38t26.5 53.5t9.5 61q0 45 -21 64t-50 19q-27 0 -50 -14.5
t-40 -38t-26.5 -53.5t-9.5 -61q0 -45 21 -64t50 -19z" />
    <glyph glyph-name="r" unicode="r" horiz-adv-x="383" 
d="M233 310q42 75 92 103t110 28h4l-45 -138h-43q-31 0 -56 -6t-45 -22t-36.5 -44t-31.5 -72l-52 -159h-143l140 430h143l-39 -120h2v0z" />
    <glyph glyph-name="s" unicode="s" horiz-adv-x="427" 
d="M179 -16q-35 0 -66 10t-54.5 29.5t-38 48t-17.5 64.5h125q0 -26 16 -42.5t44 -16.5q23 0 38 10t15 26q0 14 -11 25.5t-34 24.5l-53 31q-40 23 -57 55t-17 66q0 63 48 99.5t129 36.5q79 0 123 -39.5t44 -102.5h-124q-2 23 -17 35.5t-35 12.5q-19 0 -30.5 -9.5t-11.5 -25.5
q0 -12 7.5 -22t24.5 -21l43 -25q54 -31 76.5 -60t22.5 -71q0 -29 -14 -54.5t-39 -44.5t-60 -29.5t-77 -10.5z" />
    <glyph glyph-name="t" unicode="t" horiz-adv-x="398" 
d="M333 430h120l-37 -116h-121l-102 -314h-143l102 314h-105l38 116h105l37 116l181 118h1z" />
    <glyph glyph-name="u" unicode="u" 
d="M297 101q-32 -57 -73 -87t-96 -30q-25 0 -48.5 10.5t-38 34.5t-16 63.5t17.5 97.5l78 240h143l-79 -244q-8 -25 -8 -41.5t5 -27t15.5 -15t23.5 -4.5q45 0 74.5 43t58.5 130l52 159h143l-140 -430h-143l33 101h-2v0z" />
    <glyph glyph-name="v" unicode="v" horiz-adv-x="484" 
d="M73 430h125l11 -277l196 277h151l-316 -430h-149z" />
    <glyph glyph-name="w" unicode="w" horiz-adv-x="714" 
d="M91 430h128l-28 -292l165 262h113l-13 -262l173 292h140l-252 -430h-159l17 261l-167 -261h-159z" />
    <glyph glyph-name="x" unicode="x" horiz-adv-x="493" 
d="M322 216l102 -216h-143l-58 124l-135 -124h-158l245 226l-95 204h143l52 -112l121 112h158z" />
    <glyph glyph-name="y" unicode="y" horiz-adv-x="524" 
d="M117 0l-47 430h130l31 -284l219 284h149l-339 -430l-82 -230h-143z" />
    <glyph glyph-name="z" unicode="z" horiz-adv-x="459" 
d="M-57 0l308 321h-176l36 109h394l-308 -321h196l-35 -109h-415z" />
    <glyph glyph-name="braceleft" unicode="{" horiz-adv-x="366" 
d="M157 -230q-53 0 -86 17t-49.5 45.5t-17.5 65t12 74.5l44 133q6 18 9 35t0 30t-14.5 21.5t-33.5 11.5l33 101q25 0 41 6.5t27 18.5t18.5 30.5t15.5 42.5l34 107q19 60 38 99t47 62t70 32t108 9h42l-40 -123h-17q-27 0 -44.5 -3t-29.5 -13.5t-21.5 -30t-19.5 -51.5l-26 -82
q-15 -47 -30.5 -75t-34.5 -43.5t-43 -23t-56 -11.5l-1 -3q49 -12 67.5 -51t-2.5 -102l-36 -108q-11 -33 -14.5 -52t2.5 -29.5t21 -13.5t42 -3h17l-40 -123h-32v0z" />
    <glyph glyph-name="bar" unicode="|" horiz-adv-x="394" 
d="M135 -230v941h140v-941h-140z" />
    <glyph glyph-name="braceright" unicode="}" horiz-adv-x="366" 
d="M226 711q53 0 86 -17t49.5 -45.5t17.5 -65t-12 -74.5l-44 -133q-6 -18 -9 -35t0 -30t14.5 -21.5t33.5 -11.5l-33 -101q-25 0 -41 -6.5t-27 -18.5t-18.5 -30.5t-15.5 -42.5l-34 -107q-19 -60 -38 -99t-47 -62t-70 -32t-108 -9h-42l40 123h17q27 0 44.5 3t29.5 13.5
t21.5 30t19.5 51.5l26 82q15 47 30.5 75t34.5 43.5t43 23t56 11.5l1 3q-49 12 -67.5 51t2.5 102l36 108q11 33 14.5 52t-2.5 29.5t-21 13.5t-42 3h-17l40 123h32v0z" />
    <glyph glyph-name="uni00A0" unicode="&#xa0;" horiz-adv-x="214" 
 />
    <glyph glyph-name="exclamdown" unicode="&#xa1;" horiz-adv-x="252" 
d="M-94 -230l64 195l137 268h48l-36 -268l-64 -195h-149zM121 430h151l-49 -151h-151z" />
    <glyph glyph-name="sterling" unicode="&#xa3;" horiz-adv-x="594" 
d="M423 596q-45 0 -70 -22.5t-25 -65.5q0 -40 12 -73.5t18 -67.5h158l-26 -80h-136q-14 -43 -50 -80.5t-91 -72.5l-1 -1h301l-43 -133h-502l1 4q38 27 83 57t84 62.5t65 67.5t26 71q0 7 -0.5 13t-0.5 12h-155l26 80h114q-5 17 -10.5 32.5t-10 32.5t-7.5 36t-3 43
q0 44 19.5 80.5t54 62t81 39.5t100.5 14q57 0 101.5 -17.5t73 -48t39 -72t-1.5 -90.5h-148q7 32 3.5 54.5t-14.5 36.5t-28.5 20t-36.5 6z" />
    <glyph glyph-name="yen" unicode="&#xa5;" horiz-adv-x="708" 
d="M430 240l-13 -42h158l-26 -80h-158l-38 -118h-140l38 118h-159l26 80h159l14 42h-159l26 80h119l-97 372h141l76 -302l271 302h168l-339 -372h118l-26 -80h-159z" />
    <glyph glyph-name="dieresis" unicode="&#xa8;" horiz-adv-x="383" 
d="M522 703l-46 -141h-129l45 141h130zM262 562h-129l45 141h130z" />
    <glyph glyph-name="copyright" unicode="&#xa9;" horiz-adv-x="830" 
d="M457 -16q-75 0 -141 28.5t-115 78t-77 115t-28 140.5t28 140.5t77 114.5t115 77.5t141 28.5t141 -28.5t115 -77.5t77 -114.5t28 -140.5t-28 -140.5t-77 -115t-115 -78t-141 -28.5zM457 66q58 0 108 21.5t87 59.5t58 89t21 110t-21 110t-58 89t-87 59.5t-108 21.5
t-108 -21.5t-87 -59.5t-58 -89t-21 -110t21 -110t58 -89t87 -59.5t108 -21.5zM459 163q-38 0 -73 13.5t-62 38t-43 59t-16 76.5t16 76.5t43 58.5t62 37.5t73 13.5q72 0 120.5 -36t65.5 -99h-92q-13 28 -34.5 43.5t-59.5 15.5q-21 0 -40.5 -8t-34.5 -22.5t-23.5 -35
t-8.5 -44.5q0 -49 31 -80t76 -31q40 0 61 15.5t33 44.5h92q-17 -63 -66 -99.5t-120 -36.5z" />
    <glyph glyph-name="guillemotleft" unicode="&#xab;" horiz-adv-x="533" 
d="M379 217l53 -191h-133l-54 204l179 180h145zM166 217l53 -191h-133l-54 204l179 180h145z" />
    <glyph glyph-name="uni00AD" unicode="&#xad;" horiz-adv-x="410" 
d="M35 157l41 123h301l-41 -123h-301z" />
    <glyph glyph-name="macron" unicode="&#xaf;" horiz-adv-x="350" 
d="M142 587l29 91h310l-30 -91h-309z" />
    <glyph glyph-name="degree" unicode="&#xb0;" horiz-adv-x="396" 
d="M143 566q0 34 13 64t35.5 52t52.5 35t64 13t64 -13t52.5 -35t35.5 -52t13 -64t-13 -64t-35.5 -52t-52.5 -35t-64 -13t-64 13t-52.5 35t-35.5 52t-13 64zM224 566q0 -34 23.5 -60t60.5 -26q39 0 62 24.5t23 61.5q0 38 -25 62t-60 24q-16 0 -31 -6t-27 -17t-19 -27t-7 -36z
" />
    <glyph glyph-name="acute" unicode="&#xb4;" horiz-adv-x="315" 
d="M252 553h-116l154 158h170z" />
    <glyph glyph-name="periodcentered" unicode="&#xb7;" horiz-adv-x="261" 
d="M81 296h151l-49 -151h-151z" />
    <glyph glyph-name="cedilla" unicode="&#xb8;" horiz-adv-x="268" 
d="M22 -71q13 8 26.5 9.5t27.5 1.5q25 0 44.5 -17t19.5 -52q0 -46 -40.5 -76.5t-107.5 -30.5q-29 0 -53 6t-43 14l24 56q13 -7 31.5 -12.5t38.5 -5.5q28 0 46 9.5t18 30.5q0 14 -10 23t-27 9q-10 0 -22 -2.5t-25 -8.5l-27 29l82 88h62l-66 -70z" />
    <glyph glyph-name="guillemotright" unicode="&#xbb;" horiz-adv-x="532" 
d="M154.99 218.986l-52.9961 190.988h132.991l53.9971 -203.987l-178.989 -179.989h-144.991zM367.978 218.986l-52.9971 190.988h132.992l53.9971 -203.987l-178.989 -179.989h-144.991z" />
    <glyph glyph-name="questiondown" unicode="&#xbf;" horiz-adv-x="557" 
d="M166 -242q-55 0 -97 13.5t-70 36.5t-42 52.5t-14 61.5q0 40 15 72t40 56t57.5 41t67.5 28q25 8 42 16.5t28.5 20.5t19.5 28t16 40l3 9h143l-6 -19q-15 -45 -31 -75.5t-36 -50.5t-45.5 -33t-61.5 -24q-61 -18 -84 -40t-23 -54q0 -26 22.5 -44.5t64.5 -18.5q49 0 86.5 27
t50.5 96h145q-14 -71 -43 -117t-68 -73t-85.5 -38t-94.5 -11zM287 430h151l-49 -151h-151z" />
    <glyph glyph-name="Agrave" unicode="&#xc0;" horiz-adv-x="694" 
d="M-70 0l500 692h156l30 -692h-143l-6 173h-248l-123 -173h-166zM455 504l-147 -206h154zM347 884h154l75 -141h-116z" />
    <glyph glyph-name="Aacute" unicode="&#xc1;" horiz-adv-x="694" 
d="M-70 0l500 692h156l30 -692h-143l-6 173h-248l-123 -173h-166zM455 504l-147 -206h154zM584 743h-116l154 141h167z" />
    <glyph glyph-name="Acircumflex" unicode="&#xc2;" horiz-adv-x="694" 
d="M-70 0l500 692h156l30 -692h-143l-6 173h-248l-123 -173h-166zM455 504l-147 -206h154zM710 743h-113l-55 61l-107 -61h-113l191 141h98z" />
    <glyph glyph-name="Atilde" unicode="&#xc3;" horiz-adv-x="694" 
d="M-70 0l500 692h156l30 -692h-143l-6 173h-248l-123 -173h-166zM455 504l-147 -206h154zM607 838q17 0 31 9t19 35h85q-8 -35 -22.5 -59t-32.5 -39t-38.5 -21.5t-40.5 -6.5q-25 0 -43 7t-33 15t-28 15t-28 7q-17 0 -31 -9t-19 -35h-85q8 34 22.5 58t32.5 39t38.5 22
t40.5 7q25 0 43 -7t33 -15t28 -15t28 -7z" />
    <glyph glyph-name="Adieresis" unicode="&#xc4;" horiz-adv-x="694" 
d="M-70 0l500 692h156l30 -692h-143l-6 173h-248l-123 -173h-166zM455 504l-147 -206h154zM391 884h129l-46 -141h-129zM605 884h129l-46 -141h-129z" />
    <glyph glyph-name="Aring" unicode="&#xc5;" horiz-adv-x="694" 
d="M-70 0l500 692h156l30 -692h-143l-6 173h-248l-123 -173h-166zM455 504l-147 -206h154zM520 775q23 0 39.5 16t16.5 42q0 27 -16.5 43t-39.5 16t-39.5 -16t-16.5 -43q0 -26 16.5 -42t39.5 -16zM519 722q-24 0 -44.5 8.5t-35.5 23.5t-24 35t-9 44t9 44t24 35t35.5 23.5
t44.5 8.5t45 -8.5t36 -23.5t24 -35t9 -44t-9 -44t-24 -35t-36 -23.5t-45 -8.5z" />
    <glyph glyph-name="AE" unicode="&#xc6;" horiz-adv-x="969" 
d="M449 173h-236l-124 -173h-163l496 692h163l-283 -394h187l129 394h458l-43 -132h-310l-47 -143h265l-43 -132h-264l-50 -153h310l-43 -132h-458z" />
    <glyph glyph-name="Ccedilla" unicode="&#xc7;" horiz-adv-x="774" 
d="M396 -16q-75 0 -133 23t-98 64.5t-60.5 98t-20.5 124.5q0 81 30 155.5t84.5 131.5t130.5 91.5t167 34.5q66 0 119.5 -20.5t92.5 -55t63.5 -80.5t33.5 -97h-161q-11 57 -53.5 88.5t-105.5 31.5q-52 0 -97 -22.5t-78.5 -60t-52.5 -86.5t-19 -102q0 -50 14.5 -85.5t38.5 -58
t55 -32.5t64 -10q65 0 118 33t79 87h160q-21 -55 -56.5 -101.5t-83 -80t-106 -52.5t-125.5 -19zM300 -70q11 8 24.5 11.5t24.5 3.5q27 0 48 -17.5t21 -52.5q0 -51 -40.5 -81t-107.5 -30q-29 0 -53 6t-43 14l24 56q13 -7 31.5 -12.5t38.5 -5.5q23 0 43.5 10t20.5 33
q0 29 -37 29q-10 0 -22 -2.5t-25 -8.5l-27 29l82 88h62l-66 -70h1z" />
    <glyph glyph-name="Egrave" unicode="&#xc8;" horiz-adv-x="587" 
d="M236 692h458l-43 -132h-310l-47 -143h265l-43 -132h-264l-50 -153h310l-43 -132h-458zM317 884h154l75 -141h-116z" />
    <glyph glyph-name="Eacute" unicode="&#xc9;" horiz-adv-x="587" 
d="M236 692h458l-43 -132h-310l-47 -143h265l-43 -132h-264l-50 -153h310l-43 -132h-458zM534 743h-116l154 141h167z" />
    <glyph glyph-name="Ecircumflex" unicode="&#xca;" horiz-adv-x="587" 
d="M236 692h458l-43 -132h-310l-47 -143h265l-43 -132h-264l-50 -153h310l-43 -132h-458zM670 743h-113l-55 61l-107 -61h-113l191 141h98z" />
    <glyph glyph-name="Edieresis" unicode="&#xcb;" horiz-adv-x="587" 
d="M236 692h458l-43 -132h-310l-47 -143h265l-43 -132h-264l-50 -153h310l-43 -132h-458zM357 884h129l-46 -141h-129zM571 884h129l-46 -141h-129z" />
    <glyph glyph-name="Igrave" unicode="&#xcc;" horiz-adv-x="310" 
d="M159 0h-148l225 692h148zM155 885h154l75 -141h-116z" />
    <glyph glyph-name="Iacute" unicode="&#xcd;" horiz-adv-x="310" 
d="M159 0h-148l225 692h148zM380 743h-116l154 141h167z" />
    <glyph glyph-name="Icircumflex" unicode="&#xce;" horiz-adv-x="310" 
d="M159 0h-148l225 692h148zM521 743h-113l-55 61l-107 -61h-113l191 141h98z" />
    <glyph glyph-name="Idieresis" unicode="&#xcf;" horiz-adv-x="310" 
d="M159 0h-148l225 692h148zM202 884h129l-46 -141h-129zM416 884h129l-46 -141h-129z" />
    <glyph glyph-name="Eth" unicode="&#xd0;" horiz-adv-x="748" 
d="M122 285h-80l42 132h81l90 275h201q71 0 126.5 -20t94 -56t59 -87t20.5 -113q0 -83 -33 -158.5t-96.5 -132.5t-157.5 -91t-215 -34h-224zM297 134q73 0 131 22.5t98 60.5t61 87.5t21 102.5q0 80 -48.5 115.5t-130.5 35.5h-69l-46 -141h148l-42 -132h-149l-49 -151h75z
" />
    <glyph glyph-name="Ntilde" unicode="&#xd1;" horiz-adv-x="749" 
d="M11 0l225 692h142l145 -483l156 483h144l-225 -692h-142l-144 483l-157 -483h-144zM636 838q17 0 31 9t19 35h85q-8 -35 -22.5 -59t-32.5 -39t-38.5 -21.5t-40.5 -6.5q-25 0 -43 7t-33 15t-28 15t-28 7q-17 0 -31 -9t-19 -35h-85q8 34 22.5 58t32.5 39t38.5 22t40.5 7
q25 0 43 -7t33 -15t28 -15t28 -7z" />
    <glyph glyph-name="Ograve" unicode="&#xd2;" horiz-adv-x="820" 
d="M405 -16q-61 0 -118.5 19t-102.5 57.5t-72.5 97t-27.5 137.5q0 89 33.5 164.5t90.5 130.5t132.5 86t159.5 31q60 0 118 -19t103 -57.5t72.5 -97t27.5 -137.5q0 -89 -33.5 -164.5t-90.5 -130.5t-132.5 -86t-159.5 -31zM417 117q54 0 100 21.5t79.5 58.5t52.5 86t19 104
q0 86 -49 136.5t-131 50.5q-54 0 -100 -21.5t-79.5 -58.5t-52.5 -86t-19 -104q0 -86 48.5 -136.5t131.5 -50.5zM357 884h154l75 -141h-116z" />
    <glyph glyph-name="Oacute" unicode="&#xd3;" horiz-adv-x="820" 
d="M405 -16q-61 0 -118.5 19t-102.5 57.5t-72.5 97t-27.5 137.5q0 89 33.5 164.5t90.5 130.5t132.5 86t159.5 31q60 0 118 -19t103 -57.5t72.5 -97t27.5 -137.5q0 -89 -33.5 -164.5t-90.5 -130.5t-132.5 -86t-159.5 -31zM417 117q54 0 100 21.5t79.5 58.5t52.5 86t19 104
q0 86 -49 136.5t-131 50.5q-54 0 -100 -21.5t-79.5 -58.5t-52.5 -86t-19 -104q0 -86 48.5 -136.5t131.5 -50.5zM619 743h-116l154 141h167z" />
    <glyph glyph-name="Ocircumflex" unicode="&#xd4;" horiz-adv-x="820" 
d="M405 -16q-61 0 -118.5 19t-102.5 57.5t-72.5 97t-27.5 137.5q0 89 33.5 164.5t90.5 130.5t132.5 86t159.5 31q60 0 118 -19t103 -57.5t72.5 -97t27.5 -137.5q0 -89 -33.5 -164.5t-90.5 -130.5t-132.5 -86t-159.5 -31zM417 117q54 0 100 21.5t79.5 58.5t52.5 86t19 104
q0 86 -49 136.5t-131 50.5q-54 0 -100 -21.5t-79.5 -58.5t-52.5 -86t-19 -104q0 -86 48.5 -136.5t131.5 -50.5zM765 743h-113l-55 61l-107 -61h-113l191 141h98z" />
    <glyph glyph-name="Otilde" unicode="&#xd5;" horiz-adv-x="820" 
d="M405 -16q-61 0 -118.5 19t-102.5 57.5t-72.5 97t-27.5 137.5q0 89 33.5 164.5t90.5 130.5t132.5 86t159.5 31q60 0 118 -19t103 -57.5t72.5 -97t27.5 -137.5q0 -89 -33.5 -164.5t-90.5 -130.5t-132.5 -86t-159.5 -31zM417 117q54 0 100 21.5t79.5 58.5t52.5 86t19 104
q0 86 -49 136.5t-131 50.5q-54 0 -100 -21.5t-79.5 -58.5t-52.5 -86t-19 -104q0 -86 48.5 -136.5t131.5 -50.5zM654 838q17 0 31 9t19 35h85q-8 -35 -22.5 -59t-32.5 -39t-38.5 -21.5t-40.5 -6.5q-25 0 -43 7t-33 15t-28 15t-28 7q-17 0 -31 -9t-19 -35h-85q8 34 22.5 58
t32.5 39t38.5 22t40.5 7q25 0 43 -7t33 -15t28 -15t28 -7z" />
    <glyph glyph-name="Odieresis" unicode="&#xd6;" horiz-adv-x="820" 
d="M405 -16q-61 0 -118.5 19t-102.5 57.5t-72.5 97t-27.5 137.5q0 89 33.5 164.5t90.5 130.5t132.5 86t159.5 31q60 0 118 -19t103 -57.5t72.5 -97t27.5 -137.5q0 -89 -33.5 -164.5t-90.5 -130.5t-132.5 -86t-159.5 -31zM417 117q54 0 100 21.5t79.5 58.5t52.5 86t19 104
q0 86 -49 136.5t-131 50.5q-54 0 -100 -21.5t-79.5 -58.5t-52.5 -86t-19 -104q0 -86 48.5 -136.5t131.5 -50.5zM445 884h129l-46 -141h-129zM659 884h129l-46 -141h-129z" />
    <glyph glyph-name="multiply" unicode="&#xd7;" horiz-adv-x="530" 
d="M14 94l172 130l-83 123l101 70l80 -119l170 128l63 -89l-172 -130l83 -122l-101 -70l-80 118l-170 -128z" />
    <glyph glyph-name="Oslash" unicode="&#xd8;" horiz-adv-x="820" 
d="M57 39l77 77q-24 35 -37 79.5t-13 99.5q0 89 33.5 164.5t90.5 130.5t132.5 86t159.5 31q46 0 90.5 -11t84.5 -34l81 82l77 -80l-74 -74q29 -37 45.5 -85t16.5 -109q0 -89 -33.5 -164.5t-90.5 -130.5t-132.5 -86t-159.5 -31q-52 0 -101 13.5t-91 40.5l-79 -79zM417 117
q54 0 100 21.5t79.5 58.5t52.5 86t19 104q0 50 -19 91l-333 -335q43 -26 101 -26zM237 304q0 -38 11 -73l322 326q-37 17 -82 17q-54 0 -100 -21.5t-79.5 -58.5t-52.5 -86t-19 -104z" />
    <glyph glyph-name="Ugrave" unicode="&#xd9;" horiz-adv-x="726" 
d="M338 114q70 0 114 40t69 115l138 423h148l-140 -431q-24 -75 -59.5 -127.5t-80 -85.5t-97.5 -48.5t-114 -15.5q-67 0 -118 23t-81 63.5t-36.5 97t14.5 122.5l130 402h148l-133 -411q-27 -85 0.5 -126t97.5 -41zM340 884h154l75 -141h-116z" />
    <glyph glyph-name="Uacute" unicode="&#xda;" horiz-adv-x="726" 
d="M338 114q70 0 114 40t69 115l138 423h148l-140 -431q-24 -75 -59.5 -127.5t-80 -85.5t-97.5 -48.5t-114 -15.5q-67 0 -118 23t-81 63.5t-36.5 97t14.5 122.5l130 402h148l-133 -411q-27 -85 0.5 -126t97.5 -41zM556 743h-116l154 141h167z" />
    <glyph glyph-name="Ucircumflex" unicode="&#xdb;" horiz-adv-x="726" 
d="M338 114q70 0 114 40t69 115l138 423h148l-140 -431q-24 -75 -59.5 -127.5t-80 -85.5t-97.5 -48.5t-114 -15.5q-67 0 -118 23t-81 63.5t-36.5 97t14.5 122.5l130 402h148l-133 -411q-27 -85 0.5 -126t97.5 -41zM726 743h-113l-55 61l-107 -61h-113l191 141h98z" />
    <glyph glyph-name="Udieresis" unicode="&#xdc;" horiz-adv-x="726" 
d="M338 114q70 0 114 40t69 115l138 423h148l-140 -431q-24 -75 -59.5 -127.5t-80 -85.5t-97.5 -48.5t-114 -15.5q-67 0 -118 23t-81 63.5t-36.5 97t14.5 122.5l130 402h148l-133 -411q-27 -85 0.5 -126t97.5 -41zM406 884h129l-46 -141h-129zM620 884h129l-46 -141h-129z
" />
    <glyph glyph-name="Yacute" unicode="&#xdd;" horiz-adv-x="671" 
d="M650 692h173l-402 -441l-82 -251h-148l82 251l-115 441h145l76 -302zM529 743h-116l154 141h167z" />
    <glyph glyph-name="Thorn" unicode="&#xde;" horiz-adv-x="628" 
d="M413 576q60 0 103 -15t71 -41t41 -60.5t13 -74.5q0 -51 -21 -98t-61 -83t-97.5 -57t-130.5 -21h-131l-41 -126h-148l225 692h148l-38 -116h67zM349 256q37 0 64.5 9.5t46 26t27.5 38t9 44.5q0 32 -19.5 52t-64.5 20h-108l-62 -190h107z" />
    <glyph glyph-name="germandbls" unicode="&#xdf;" horiz-adv-x="637" 
d="M312 -15q-17 0 -35 1t-37 4l39 122q12 -2 23 -3t22 -1q26 0 50 7.5t42 21.5t29 35.5t11 49.5q0 22 -8.5 39t-23.5 29t-34.5 18t-41.5 6h-10l38 116h7q29 0 54 10.5t43 27.5t28.5 38.5t10.5 42.5q0 33 -18 48.5t-51 15.5q-35 0 -61.5 -23.5t-45.5 -80.5l-165 -509h-143
l102 314h-77l38 116h77l30 93q18 55 44.5 93t60 61.5t73 34t83.5 10.5q90 0 138 -42.5t48 -106.5q0 -44 -18 -77.5t-48.5 -57.5t-71.5 -38.5t-87 -20.5v-2q35 -6 65.5 -20.5t53.5 -36.5t36.5 -50.5t13.5 -62.5q0 -53 -22.5 -94t-61.5 -69.5t-90.5 -43.5t-109.5 -15z" />
    <glyph glyph-name="agrave" unicode="&#xe0;" horiz-adv-x="561" 
d="M169 -14q-32 0 -57.5 13t-44 36.5t-28.5 56.5t-10 73q0 50 17.5 100t49 90.5t76 65.5t97.5 25q30 0 52.5 -10t37.5 -26t24 -37t13 -43h2l33 100h143l-140 -430h-135l27 87h-1q-32 -46 -70.5 -73.5t-85.5 -27.5zM248 88q27 0 49.5 14.5t39 38t25.5 53.5t9 61q0 45 -20 64
t-49 19q-26 0 -48.5 -14.5t-39 -38t-25.5 -53.5t-9 -61q0 -45 19.5 -64t48.5 -19zM186 711h162l113 -158h-116z" />
    <glyph glyph-name="aacute" unicode="&#xe1;" horiz-adv-x="561" 
d="M169 -14q-32 0 -57.5 13t-44 36.5t-28.5 56.5t-10 73q0 50 17.5 100t49 90.5t76 65.5t97.5 25q30 0 52.5 -10t37.5 -26t24 -37t13 -43h2l33 100h143l-140 -430h-135l27 87h-1q-32 -46 -70.5 -73.5t-85.5 -27.5zM248 88q27 0 49.5 14.5t39 38t25.5 53.5t9 61q0 45 -20 64
t-49 19q-26 0 -48.5 -14.5t-39 -38t-25.5 -53.5t-9 -61q0 -45 19.5 -64t48.5 -19zM446 553h-116l154 158h170z" />
    <glyph glyph-name="acircumflex" unicode="&#xe2;" horiz-adv-x="561" 
d="M169 -14q-32 0 -57.5 13t-44 36.5t-28.5 56.5t-10 73q0 50 17.5 100t49 90.5t76 65.5t97.5 25q30 0 52.5 -10t37.5 -26t24 -37t13 -43h2l33 100h143l-140 -430h-135l27 87h-1q-32 -46 -70.5 -73.5t-85.5 -27.5zM248 88q27 0 49.5 14.5t39 38t25.5 53.5t9 61q0 45 -20 64
t-49 19q-26 0 -48.5 -14.5t-39 -38t-25.5 -53.5t-9 -61q0 -45 19.5 -64t48.5 -19zM592 553h-108l-53 78l-109 -78h-118l194 158h98z" />
    <glyph glyph-name="atilde" unicode="&#xe3;" horiz-adv-x="561" 
d="M169 -14q-32 0 -57.5 13t-44 36.5t-28.5 56.5t-10 73q0 50 17.5 100t49 90.5t76 65.5t97.5 25q30 0 52.5 -10t37.5 -26t24 -37t13 -43h2l33 100h143l-140 -430h-135l27 87h-1q-32 -46 -70.5 -73.5t-85.5 -27.5zM248 88q27 0 49.5 14.5t39 38t25.5 53.5t9 61q0 45 -20 64
t-49 19q-26 0 -48.5 -14.5t-39 -38t-25.5 -53.5t-9 -61q0 -45 19.5 -64t48.5 -19zM453 651q17 0 31 9t19 35h85q-8 -35 -22.5 -59t-32.5 -39t-38.5 -21.5t-40.5 -6.5q-25 0 -43 7t-33 15t-28 15t-28 7q-17 0 -31 -9t-19 -35h-85q8 34 22.5 58t32.5 39t38.5 22t40.5 7
q25 0 43 -7t33 -15t28 -15t28 -7z" />
    <glyph glyph-name="adieresis" unicode="&#xe4;" horiz-adv-x="561" 
d="M169 -14q-32 0 -57.5 13t-44 36.5t-28.5 56.5t-10 73q0 50 17.5 100t49 90.5t76 65.5t97.5 25q30 0 52.5 -10t37.5 -26t24 -37t13 -43h2l33 100h143l-140 -430h-135l27 87h-1q-32 -46 -70.5 -73.5t-85.5 -27.5zM248 88q27 0 49.5 14.5t39 38t25.5 53.5t9 61q0 45 -20 64
t-49 19q-26 0 -48.5 -14.5t-39 -38t-25.5 -53.5t-9 -61q0 -45 19.5 -64t48.5 -19zM613 703l-46 -141h-129l45 141h130zM353 562h-129l45 141h130z" />
    <glyph glyph-name="aring" unicode="&#xe5;" horiz-adv-x="561" 
d="M169 -14q-32 0 -57.5 13t-44 36.5t-28.5 56.5t-10 73q0 50 17.5 100t49 90.5t76 65.5t97.5 25q30 0 52.5 -10t37.5 -26t24 -37t13 -43h2l33 100h143l-140 -430h-135l27 87h-1q-32 -46 -70.5 -73.5t-85.5 -27.5zM248 88q27 0 49.5 14.5t39 38t25.5 53.5t9 61q0 45 -20 64
t-49 19q-26 0 -48.5 -14.5t-39 -38t-25.5 -53.5t-9 -61q0 -45 19.5 -64t48.5 -19zM376 521q-24 0 -44.5 8.5t-35.5 23.5t-24 35t-9 44t9 44t24 35t35.5 23.5t44.5 8.5t45 -8.5t36 -23.5t24 -35t9 -44t-9 -44t-24 -35t-36 -23.5t-45 -8.5zM377 574q23 0 39.5 16t16.5 42
q0 27 -16.5 43t-39.5 16t-39.5 -16t-16.5 -43q0 -26 16.5 -42t39.5 -16z" />
    <glyph glyph-name="ae" unicode="&#xe6;" horiz-adv-x="845" 
d="M792 137q-15 -35 -40.5 -63t-58 -48t-70 -31t-76.5 -11q-54 0 -87.5 16.5t-53.5 44.5l-15 -45h-87l28 87h-2q-32 -46 -71.5 -73.5t-87.5 -27.5q-65 0 -103.5 49t-38.5 130q0 50 18 100t50.5 90.5t78 65.5t101.5 25q60 0 95 -31.5t47 -83.5q36 57 92.5 86t114.5 29
q49 0 88 -19t63.5 -53.5t33 -83t-3.5 -106.5h-320q-2 -26 4.5 -43.5t17.5 -28.5t25.5 -15.5t29.5 -4.5q26 0 51 11t40 34h137zM611 343q-35 0 -64 -21t-44 -61h181q2 44 -18 63t-55 19zM377 255q0 45 -21 64t-50 19q-27 0 -50 -14.5t-40 -38t-26.5 -53.5t-9.5 -61
q0 -45 21 -64t50 -19q27 0 50 14.5t40 38t26.5 53.5t9.5 61z" />
    <glyph glyph-name="ccedilla" unicode="&#xe7;" horiz-adv-x="518" 
d="M219 -16q-48 0 -83.5 15.5t-59 41.5t-35 60.5t-11.5 73.5q0 48 18 96.5t52.5 87t84 63t112.5 24.5q49 0 86 -14.5t62.5 -39.5t39.5 -58t17 -69h-137q-2 31 -19 51t-52 20q-27 0 -49 -13.5t-38.5 -36t-25.5 -50.5t-9 -58q0 -45 23 -64.5t52 -19.5q34 0 59 18.5t40 52.5
h137q-32 -85 -101 -133t-163 -48zM147 -71q13 8 26.5 9.5t27.5 1.5q25 0 44.5 -17t19.5 -52q0 -46 -40.5 -76.5t-107.5 -30.5q-29 0 -53 6t-43 14l24 56q13 -7 31.5 -12.5t38.5 -5.5q28 0 46 9.5t18 30.5q0 14 -10 23t-27 9q-10 0 -22 -2.5t-25 -8.5l-27 29l82 88h62
l-66 -70z" />
    <glyph glyph-name="egrave" unicode="&#xe8;" horiz-adv-x="529" 
d="M228 -16q-91 0 -144 53t-53 144q0 50 19 98t54.5 85t86 59.5t112.5 22.5q56 0 96.5 -21t64.5 -56.5t31 -83t-4 -101.5h-325q-2 -28 5.5 -46t20 -28t27.5 -14t29 -4q29 0 53 11t38 34h137q-15 -35 -41 -63t-59 -48t-71 -31t-77 -11zM293 343q-37 0 -67 -21t-45 -61h187
q2 37 -16 59.5t-59 22.5zM132 711h162l113 -158h-116z" />
    <glyph glyph-name="eacute" unicode="&#xe9;" horiz-adv-x="529" 
d="M228 -16q-91 0 -144 53t-53 144q0 50 19 98t54.5 85t86 59.5t112.5 22.5q56 0 96.5 -21t64.5 -56.5t31 -83t-4 -101.5h-325q-2 -28 5.5 -46t20 -28t27.5 -14t29 -4q29 0 53 11t38 34h137q-15 -35 -41 -63t-59 -48t-71 -31t-77 -11zM293 343q-37 0 -67 -21t-45 -61h187
q2 37 -16 59.5t-59 22.5zM416 553h-116l154 158h170z" />
    <glyph glyph-name="ecircumflex" unicode="&#xea;" horiz-adv-x="529" 
d="M228 -16q-91 0 -144 53t-53 144q0 50 19 98t54.5 85t86 59.5t112.5 22.5q56 0 96.5 -21t64.5 -56.5t31 -83t-4 -101.5h-325q-2 -28 5.5 -46t20 -28t27.5 -14t29 -4q29 0 53 11t38 34h137q-15 -35 -41 -63t-59 -48t-71 -31t-77 -11zM293 343q-37 0 -67 -21t-45 -61h187
q2 37 -16 59.5t-59 22.5zM555 553h-108l-53 78l-109 -78h-118l194 158h98z" />
    <glyph glyph-name="edieresis" unicode="&#xeb;" horiz-adv-x="529" 
d="M228 -16q-91 0 -144 53t-53 144q0 50 19 98t54.5 85t86 59.5t112.5 22.5q56 0 96.5 -21t64.5 -56.5t31 -83t-4 -101.5h-325q-2 -28 5.5 -46t20 -28t27.5 -14t29 -4q29 0 53 11t38 34h137q-15 -35 -41 -63t-59 -48t-71 -31t-77 -11zM293 343q-37 0 -67 -21t-45 -61h187
q2 37 -16 59.5t-59 22.5zM584 703l-46 -141h-129l45 141h130zM324 562h-129l45 141h130z" />
    <glyph glyph-name="igrave" unicode="&#xec;" horiz-adv-x="257" 
d="M7 711h162l113 -158h-116zM130 0h-143l140 430h143z" />
    <glyph glyph-name="iacute" unicode="&#xed;" horiz-adv-x="257" 
d="M291 553h-116l154 158h170zM130 0h-143l140 430h143z" />
    <glyph glyph-name="icircumflex" unicode="&#xee;" horiz-adv-x="257" 
d="M437 553h-108l-53 78l-109 -78h-118l194 158h98zM130 0h-143l140 430h143z" />
    <glyph glyph-name="idieresis" unicode="&#xef;" horiz-adv-x="257" 
d="M130 0h-143l140 430h143zM460 703l-46 -141h-129l45 141h130zM200 562h-129l45 141h130z" />
    <glyph glyph-name="eth" unicode="&#xf0;" horiz-adv-x="547" 
d="M307 565q-19 12 -40.5 22t-44.5 18l46 112q84 -27 149 -79l111 75l35 -53l-100 -67q36 -43 56 -95.5t20 -113.5q0 -72 -19.5 -143.5t-58.5 -128.5t-97 -92.5t-134 -35.5q-47 0 -83 16t-61.5 43.5t-38.5 64.5t-13 79q0 54 18.5 100t49.5 80.5t72.5 54t86.5 19.5
q32 0 56.5 -11.5t42.5 -31t28.5 -45.5t15.5 -55h2q10 43 10 81q0 48 -15 83.5t-41 62.5l-95 -63l-33 53zM250 97q24 0 45 14t36.5 35.5t24 48.5t8.5 54q0 38 -19.5 61t-53.5 23q-24 0 -45 -14t-36.5 -35.5t-24 -48.5t-8.5 -54q0 -38 19.5 -61t53.5 -23z" />
    <glyph glyph-name="ntilde" unicode="&#xf1;" 
d="M238 329q32 57 73.5 87t95.5 30q25 0 49 -10.5t38.5 -34.5t16 -63.5t-17.5 -97.5l-79 -240h-143l80 244q8 25 8.5 41.5t-5 27t-16 15t-23.5 4.5q-45 0 -75.5 -43t-58.5 -130l-51 -159h-143l140 430h143l-33 -101h1v0zM460 651q17 0 31 9t19 35h85q-8 -35 -22.5 -59
t-32.5 -39t-38.5 -21.5t-40.5 -6.5q-25 0 -43 7t-33 15t-28 15t-28 7q-17 0 -31 -9t-19 -35h-85q8 34 22.5 58t32.5 39t38.5 22t40.5 7q25 0 43 -7t33 -15t28 -15t28 -7z" />
    <glyph glyph-name="ograve" unicode="&#xf2;" horiz-adv-x="552" 
d="M243 -16q-50 0 -89.5 15t-66.5 42t-41.5 64t-14.5 80q0 50 20 97t57 83.5t88 58.5t113 22q50 0 89.5 -15t66.5 -42t41.5 -64t14.5 -80q0 -50 -20 -97t-57 -83.5t-88 -58.5t-113 -22zM255 96q27 0 50 13.5t39.5 35t25.5 48t9 52.5q0 43 -22.5 66t-59.5 23q-27 0 -50 -13.5
t-39.5 -35t-25.5 -48t-9 -52.5q0 -42 22 -65.5t60 -23.5zM162 711h162l113 -158h-116z" />
    <glyph glyph-name="oacute" unicode="&#xf3;" horiz-adv-x="552" 
d="M243 -16q-50 0 -89.5 15t-66.5 42t-41.5 64t-14.5 80q0 50 20 97t57 83.5t88 58.5t113 22q50 0 89.5 -15t66.5 -42t41.5 -64t14.5 -80q0 -50 -20 -97t-57 -83.5t-88 -58.5t-113 -22zM255 96q27 0 50 13.5t39.5 35t25.5 48t9 52.5q0 43 -22.5 66t-59.5 23q-27 0 -50 -13.5
t-39.5 -35t-25.5 -48t-9 -52.5q0 -42 22 -65.5t60 -23.5zM430 553h-116l154 158h170z" />
    <glyph glyph-name="ocircumflex" unicode="&#xf4;" horiz-adv-x="552" 
d="M243 -16q-50 0 -89.5 15t-66.5 42t-41.5 64t-14.5 80q0 50 20 97t57 83.5t88 58.5t113 22q50 0 89.5 -15t66.5 -42t41.5 -64t14.5 -80q0 -50 -20 -97t-57 -83.5t-88 -58.5t-113 -22zM255 96q27 0 50 13.5t39.5 35t25.5 48t9 52.5q0 43 -22.5 66t-59.5 23q-27 0 -50 -13.5
t-39.5 -35t-25.5 -48t-9 -52.5q0 -42 22 -65.5t60 -23.5zM578 553h-108l-53 78l-109 -78h-118l194 158h98z" />
    <glyph glyph-name="otilde" unicode="&#xf5;" horiz-adv-x="552" 
d="M243 -16q-50 0 -89.5 15t-66.5 42t-41.5 64t-14.5 80q0 50 20 97t57 83.5t88 58.5t113 22q50 0 89.5 -15t66.5 -42t41.5 -64t14.5 -80q0 -50 -20 -97t-57 -83.5t-88 -58.5t-113 -22zM255 96q27 0 50 13.5t39.5 35t25.5 48t9 52.5q0 43 -22.5 66t-59.5 23q-27 0 -50 -13.5
t-39.5 -35t-25.5 -48t-9 -52.5q0 -42 22 -65.5t60 -23.5zM438 651q17 0 31 9t19 35h85q-8 -35 -22.5 -59t-32.5 -39t-38.5 -21.5t-40.5 -6.5q-25 0 -43 7t-33 15t-28 15t-28 7q-17 0 -31 -9t-19 -35h-85q8 34 22.5 58t32.5 39t38.5 22t40.5 7q25 0 43 -7t33 -15t28 -15
t28 -7z" />
    <glyph glyph-name="odieresis" unicode="&#xf6;" horiz-adv-x="552" 
d="M243 -16q-50 0 -89.5 15t-66.5 42t-41.5 64t-14.5 80q0 50 20 97t57 83.5t88 58.5t113 22q50 0 89.5 -15t66.5 -42t41.5 -64t14.5 -80q0 -50 -20 -97t-57 -83.5t-88 -58.5t-113 -22zM255 96q27 0 50 13.5t39.5 35t25.5 48t9 52.5q0 43 -22.5 66t-59.5 23q-27 0 -50 -13.5
t-39.5 -35t-25.5 -48t-9 -52.5q0 -42 22 -65.5t60 -23.5zM591 703l-46 -141h-129l45 141h130zM331 562h-129l45 141h130z" />
    <glyph glyph-name="divide" unicode="&#xf7;" horiz-adv-x="530" 
d="M260 0h-130l43 131h130zM63 272h441l-36 -112h-442zM358 301h-130l42 129h130z" />
    <glyph glyph-name="oslash" unicode="&#xf8;" horiz-adv-x="552" 
d="M243 -16q-37 0 -67.5 8.5t-55.5 22.5l-47 -48l-41 40l44 45q-45 54 -45 133q0 50 20 97t57 83.5t88 58.5t113 22q36 0 66.5 -8.5t55.5 -23.5l50 51l41 -40l-47 -48q46 -54 46 -132q0 -50 -20 -97t-57 -83.5t-88 -58.5t-113 -22zM255 96q27 0 50 13.5t39.5 35t25.5 48
t9 52.5q0 8 -1 15.5t-3 14.5l-165 -168q18 -11 45 -11zM173 185q0 -18 3 -31l165 169q-19 11 -44 11q-27 0 -50 -13.5t-39.5 -35t-25.5 -48t-9 -52.5z" />
    <glyph glyph-name="ugrave" unicode="&#xf9;" 
d="M297 101q-32 -57 -73 -87t-96 -30q-25 0 -48.5 10.5t-38 34.5t-16 63.5t17.5 97.5l78 240h143l-79 -244q-8 -25 -8 -41.5t5 -27t15.5 -15t23.5 -4.5q45 0 74.5 43t58.5 130l52 159h143l-140 -430h-143l33 101h-2v0zM182 711h162l113 -158h-116z" />
    <glyph glyph-name="uacute" unicode="&#xfa;" 
d="M297 101q-32 -57 -73 -87t-96 -30q-25 0 -48.5 10.5t-38 34.5t-16 63.5t17.5 97.5l78 240h143l-79 -244q-8 -25 -8 -41.5t5 -27t15.5 -15t23.5 -4.5q45 0 74.5 43t58.5 130l52 159h143l-140 -430h-143l33 101h-2v0zM424 553h-116l154 158h170z" />
    <glyph glyph-name="ucircumflex" unicode="&#xfb;" 
d="M297 101q-32 -57 -73 -87t-96 -30q-25 0 -48.5 10.5t-38 34.5t-16 63.5t17.5 97.5l78 240h143l-79 -244q-8 -25 -8 -41.5t5 -27t15.5 -15t23.5 -4.5q45 0 74.5 43t58.5 130l52 159h143l-140 -430h-143l33 101h-2v0zM564 553h-108l-53 78l-109 -78h-118l194 158h98z" />
    <glyph glyph-name="udieresis" unicode="&#xfc;" 
d="M297 101q-32 -57 -73 -87t-96 -30q-25 0 -48.5 10.5t-38 34.5t-16 63.5t17.5 97.5l78 240h143l-79 -244q-8 -25 -8 -41.5t5 -27t15.5 -15t23.5 -4.5q45 0 74.5 43t58.5 130l52 159h143l-140 -430h-143l33 101h-2v0zM595 703l-46 -141h-129l45 141h130zM335 562h-129
l45 141h130z" />
    <glyph glyph-name="yacute" unicode="&#xfd;" horiz-adv-x="524" 
d="M117 0l-47 430h130l31 -284l219 284h149l-339 -430l-82 -230h-143zM411 553h-116l154 158h170z" />
    <glyph glyph-name="thorn" unicode="&#xfe;" horiz-adv-x="568" 
d="M262 92q27 0 50 14.5t40 38t26.5 53.5t9.5 61q0 45 -21 64t-50 19q-27 0 -50 -14.5t-40 -38t-26.5 -53.5t-9.5 -61q0 -45 21 -64t50 -19zM55 -230h-143l306 941h143l-116 -356h2q30 41 67.5 65t82.5 24q65 0 103.5 -49t38.5 -130q0 -50 -17.5 -100t-50 -90.5t-77.5 -65.5
t-99 -25q-31 0 -53.5 10t-38.5 26t-25 37t-13 43h-2z" />
    <glyph glyph-name="ydieresis" unicode="&#xff;" horiz-adv-x="524" 
d="M117 0l-47 430h130l31 -284l219 284h149l-339 -430l-82 -230h-143zM583 703l-46 -141h-129l45 141h130zM323 562h-129l45 141h130z" />
    <glyph glyph-name="Abreve" unicode="&#x102;" horiz-adv-x="694" 
d="M-70 0l500 692h156l30 -692h-143l-6 173h-248l-123 -173h-166zM455 504l-147 -206h154zM526 750q-40 0 -68 11t-45.5 29t-25 40t-5.5 44h97q-2 -23 10.5 -37.5t47.5 -14.5t55.5 14t31.5 38h97q-12 -27 -27.5 -49.5t-38.5 -39t-54.5 -26t-74.5 -9.5z" />
    <glyph glyph-name="Amacron" unicode="&#x100;" horiz-adv-x="694" 
d="M-70 0l500 692h156l30 -692h-143l-6 173h-248l-123 -173h-166zM455 504l-147 -206h154zM371 774l30 91h310l-30 -91h-310z" />
    <glyph glyph-name="Aogonek" unicode="&#x104;" horiz-adv-x="694" 
d="M616 0q-27 -9 -52 -18.5t-43.5 -20.5t-30 -24t-11.5 -29q0 -15 12.5 -24t33.5 -9q24 0 54 12l-27 -85q-20 -6 -40.5 -9t-39.5 -3q-24 0 -46 6t-38.5 17.5t-26 28.5t-9.5 40q0 20 9.5 37.5t26 32.5t38.5 27t47 21l-6 173h-248l-123 -173h-166l500 692h156zM455 504
l-147 -206h154z" />
    <glyph glyph-name="Cacute" unicode="&#x106;" horiz-adv-x="773" 
d="M395 -16q-75 0 -133 23t-98 64.5t-60.5 98t-20.5 124.5q0 81 30 155.5t84.5 131.5t130.5 91.5t167 34.5q66 0 119.5 -20.5t92.5 -55t63.5 -80.5t33.5 -97h-161q-11 57 -53.5 88.5t-105.5 31.5q-52 0 -97 -22.5t-78.5 -60t-52.5 -86.5t-19 -102q0 -50 14.5 -85.5t38.5 -58
t55 -32.5t64 -10q65 0 118 33t79 87h160q-21 -55 -56.5 -101.5t-83 -80t-106 -52.5t-125.5 -19zM596 743h-116l154 141h167z" />
    <glyph glyph-name="Ccaron" unicode="&#x10c;" horiz-adv-x="773" 
d="M395 -16q-75 0 -133 23t-98 64.5t-60.5 98t-20.5 124.5q0 81 30 155.5t84.5 131.5t130.5 91.5t167 34.5q66 0 119.5 -20.5t92.5 -55t63.5 -80.5t33.5 -97h-161q-11 57 -53.5 88.5t-105.5 31.5q-52 0 -97 -22.5t-78.5 -60t-52.5 -86.5t-19 -102q0 -50 14.5 -85.5t38.5 -58
t55 -32.5t64 -10q65 0 118 33t79 87h160q-21 -55 -56.5 -101.5t-83 -80t-106 -52.5t-125.5 -19zM401 884h113l55 -61l107 61h113l-191 -141h-98z" />
    <glyph glyph-name="Ccircumflex" unicode="&#x108;" horiz-adv-x="773" 
d="M395 -16q-75 0 -133 23t-98 64.5t-60.5 98t-20.5 124.5q0 81 30 155.5t84.5 131.5t130.5 91.5t167 34.5q66 0 119.5 -20.5t92.5 -55t63.5 -80.5t33.5 -97h-161q-11 57 -53.5 88.5t-105.5 31.5q-52 0 -97 -22.5t-78.5 -60t-52.5 -86.5t-19 -102q0 -50 14.5 -85.5t38.5 -58
t55 -32.5t64 -10q65 0 118 33t79 87h160q-21 -55 -56.5 -101.5t-83 -80t-106 -52.5t-125.5 -19zM760 743h-113l-55 61l-107 -61h-113l191 141h98z" />
    <glyph glyph-name="Cdotaccent" unicode="&#x10a;" horiz-adv-x="773" 
d="M395 -16q-75 0 -133 23t-98 64.5t-60.5 98t-20.5 124.5q0 81 30 155.5t84.5 131.5t130.5 91.5t167 34.5q66 0 119.5 -20.5t92.5 -55t63.5 -80.5t33.5 -97h-161q-11 57 -53.5 88.5t-105.5 31.5q-52 0 -97 -22.5t-78.5 -60t-52.5 -86.5t-19 -102q0 -50 14.5 -85.5t38.5 -58
t55 -32.5t64 -10q65 0 118 33t79 87h160q-21 -55 -56.5 -101.5t-83 -80t-106 -52.5t-125.5 -19zM600 743h-134l46 141h134z" />
    <glyph glyph-name="Dcaron" unicode="&#x10e;" horiz-adv-x="729" 
d="M236 692h201q71 0 126.5 -20t94 -56t59 -87t20.5 -113q0 -83 -33 -158.5t-96.5 -132.5t-157.5 -91t-215 -34h-224zM278 134q73 0 131 22.5t98 60.5t61 87.5t21 102.5q0 80 -48.5 115.5t-130.5 35.5h-69l-138 -424h75zM333 884h113l55 -61l107 61h113l-191 -141h-98z" />
    <glyph glyph-name="Dcroat" unicode="&#x110;" horiz-adv-x="748" 
d="M122 285h-80l42 132h81l90 275h201q71 0 126.5 -20t94 -56t59 -87t20.5 -113q0 -83 -33 -158.5t-96.5 -132.5t-157.5 -91t-215 -34h-224zM297 134q73 0 131 22.5t98 60.5t61 87.5t21 102.5q0 80 -48.5 115.5t-130.5 35.5h-69l-46 -141h148l-42 -132h-149l-49 -151h75z
" />
    <glyph glyph-name="Ebreve" unicode="&#x114;" horiz-adv-x="587" 
d="M236 692h458l-43 -132h-310l-47 -143h265l-43 -132h-264l-50 -153h310l-43 -132h-458zM490 750q-40 0 -68 11t-45.5 29t-25 40t-5.5 44h97q-2 -23 10.5 -37.5t47.5 -14.5t55.5 14t31.5 38h97q-12 -27 -27.5 -49.5t-38.5 -39t-54.5 -26t-74.5 -9.5z" />
    <glyph glyph-name="Ecaron" unicode="&#x11a;" horiz-adv-x="587" 
d="M236 692h458l-43 -132h-310l-47 -143h265l-43 -132h-264l-50 -153h310l-43 -132h-458zM327 884h113l55 -61l107 61h113l-191 -141h-98z" />
    <glyph glyph-name="Emacron" unicode="&#x112;" horiz-adv-x="587" 
d="M236 692h458l-43 -132h-310l-47 -143h265l-43 -132h-264l-50 -153h310l-43 -132h-458zM331 774l30 91h310l-30 -91h-310z" />
    <glyph glyph-name="Eogonek" unicode="&#x118;" horiz-adv-x="587" 
d="M236 692h458l-43 -132h-310l-47 -143h265l-43 -132h-264l-50 -153h310l-43 -132h-458zM469 0q-27 -9 -52 -18.5t-43.5 -20.5t-30 -24t-11.5 -29q0 -15 12.5 -24t33.5 -9q24 0 54 12l-27 -85q-20 -6 -40.5 -9t-39.5 -3q-53 0 -89 23t-36 69q0 20 9.5 37.5t26 32.5t38.5 27
t47 21h148v0z" />
    <glyph glyph-name="Edotaccent" unicode="&#x116;" horiz-adv-x="587" 
d="M236 692h458l-43 -132h-310l-47 -143h265l-43 -132h-264l-50 -153h310l-43 -132h-458zM546 743h-134l46 141h134z" />
    <glyph glyph-name="Gbreve" unicode="&#x11e;" horiz-adv-x="807" 
d="M585 109q-45 -66 -109 -95.5t-133 -29.5q-59 0 -107.5 22t-83 61.5t-53.5 94t-19 120.5q0 78 29.5 154t84.5 136t133 97.5t175 37.5q64 0 117 -18.5t93 -51t66 -76t36 -93.5h-160q-8 27 -23.5 47t-37.5 33t-48 19.5t-54 6.5q-51 0 -98 -22t-83 -60t-57 -89.5t-21 -109.5
q0 -47 14.5 -82.5t39.5 -59.5t59.5 -36.5t74.5 -12.5q75 0 125.5 32.5t70.5 92.5l8 24h-222l41 126h366l-123 -377h-137l37 109h-1v0zM601 750q-40 0 -68 11t-45.5 29t-25 40t-5.5 44h97q-2 -23 10.5 -37.5t47.5 -14.5t55.5 14t31.5 38h97q-12 -27 -27.5 -49.5t-38.5 -39
t-54.5 -26t-74.5 -9.5z" />
    <glyph glyph-name="Gcircumflex" unicode="&#x11c;" horiz-adv-x="807" 
d="M585 109q-45 -66 -109 -95.5t-133 -29.5q-59 0 -107.5 22t-83 61.5t-53.5 94t-19 120.5q0 78 29.5 154t84.5 136t133 97.5t175 37.5q64 0 117 -18.5t93 -51t66 -76t36 -93.5h-160q-8 27 -23.5 47t-37.5 33t-48 19.5t-54 6.5q-51 0 -98 -22t-83 -60t-57 -89.5t-21 -109.5
q0 -47 14.5 -82.5t39.5 -59.5t59.5 -36.5t74.5 -12.5q75 0 125.5 32.5t70.5 92.5l8 24h-222l41 126h366l-123 -377h-137l37 109h-1v0zM752 743h-113l-55 61l-107 -61h-113l191 141h98z" />
    <glyph glyph-name="uni0122" unicode="&#x122;" horiz-adv-x="807" 
d="M585 109q-45 -66 -109 -95.5t-133 -29.5q-59 0 -107.5 22t-83 61.5t-53.5 94t-19 120.5q0 78 29.5 154t84.5 136t133 97.5t175 37.5q64 0 117 -18.5t93 -51t66 -76t36 -93.5h-160q-8 27 -23.5 47t-37.5 33t-48 19.5t-54 6.5q-51 0 -98 -22t-83 -60t-57 -89.5t-21 -109.5
q0 -47 14.5 -82.5t39.5 -59.5t59.5 -36.5t74.5 -12.5q75 0 125.5 32.5t70.5 92.5l8 24h-222l41 126h366l-123 -377h-137l37 109h-1v0zM273 -191h-62l43 134h133l-43 -134l-103 -129h-72z" />
    <glyph glyph-name="Gdotaccent" unicode="&#x120;" horiz-adv-x="807" 
d="M585 109q-45 -66 -109 -95.5t-133 -29.5q-59 0 -107.5 22t-83 61.5t-53.5 94t-19 120.5q0 78 29.5 154t84.5 136t133 97.5t175 37.5q64 0 117 -18.5t93 -51t66 -76t36 -93.5h-160q-8 27 -23.5 47t-37.5 33t-48 19.5t-54 6.5q-51 0 -98 -22t-83 -60t-57 -89.5t-21 -109.5
q0 -47 14.5 -82.5t39.5 -59.5t59.5 -36.5t74.5 -12.5q75 0 125.5 32.5t70.5 92.5l8 24h-222l41 126h366l-123 -377h-137l37 109h-1v0zM605 743h-134l46 141h134z" />
    <glyph glyph-name="Hbar" unicode="&#x126;" horiz-adv-x="760" 
d="M551 285h-296l-93 -285h-148l158 487h-49l35 110h50l31 95h148l-31 -95h296l31 95h148l-31 -95h50l-36 -110h-50l-158 -487h-148zM594 417l22 70h-296l-23 -70h297z" />
    <glyph glyph-name="Hcircumflex" unicode="&#x124;" horiz-adv-x="754" 
d="M548 285h-296l-93 -285h-148l225 692h148l-90 -275h297l89 275h148l-225 -692h-148zM737 743h-113l-55 61l-107 -61h-113l191 141h98z" />
    <glyph glyph-name="Ibreve" unicode="&#x12c;" horiz-adv-x="310" 
d="M159 0h-148l225 692h148zM344 750q-40 0 -68 11t-45.5 29t-25 40t-5.5 44h97q-2 -23 10.5 -37.5t47.5 -14.5t55.5 14t31.5 38h97q-12 -27 -27.5 -49.5t-38.5 -39t-54.5 -26t-74.5 -9.5z" />
    <glyph glyph-name="Idotaccent" unicode="&#x130;" horiz-adv-x="310" 
d="M393 743h-134l46 141h134zM159 0h-148l225 692h148z" />
    <glyph glyph-name="Imacron" unicode="&#x12a;" horiz-adv-x="310" 
d="M159 0h-148l225 692h148zM182 774l30 91h310l-30 -91h-310z" />
    <glyph glyph-name="Iogonek" unicode="&#x12e;" horiz-adv-x="310" 
d="M159 0h-148l225 692h148zM160 0q-27 -9 -52 -18.5t-43.5 -20.5t-30 -24t-11.5 -29q0 -15 12.5 -24t33.5 -9q24 0 54 12l-27 -85q-20 -6 -40.5 -9t-39.5 -3q-53 0 -89 23t-36 69q0 20 9.5 37.5t26 32.5t38.5 27t47 21h148v0z" />
    <glyph glyph-name="Itilde" unicode="&#x128;" horiz-adv-x="310" 
d="M159 0h-148l225 692h148zM418 838q17 0 31 9t19 35h85q-8 -35 -22.5 -59t-32.5 -39t-38.5 -21.5t-40.5 -6.5q-25 0 -43 7t-33 15t-28 15t-28 7q-17 0 -31 -9t-19 -35h-85q8 34 22.5 58t32.5 39t38.5 22t40.5 7q25 0 43 -7t33 -15t28 -15t28 -7z" />
    <glyph glyph-name="uni1ECA" unicode="&#x1eca;" horiz-adv-x="310" 
d="M83 -212h-134l44 136h134zM159 0h-148l225 692h148z" />
    <glyph glyph-name="Jcircumflex" unicode="&#x134;" horiz-adv-x="559" 
d="M217 -16q-54 0 -96.5 18t-70 49.5t-38.5 75t-1 95.5h148q-7 -55 7.5 -86t59.5 -31q41 0 66.5 26t46.5 91l152 470h148l-159 -488q-37 -113 -99.5 -166.5t-163.5 -53.5zM770 743h-113l-55 61l-107 -61h-113l191 141h98z" />
    <glyph glyph-name="uni0136" unicode="&#x136;" horiz-adv-x="667" 
d="M159 0h-148l225 692h148zM275 342l2 5l355 345h185l-376 -359l164 -333h-164zM230 -191h-62l43 134h133l-43 -134l-103 -129h-72z" />
    <glyph glyph-name="Lacute" unicode="&#x139;" horiz-adv-x="528" 
d="M236 692h148l-180 -554h287l-44 -138h-436zM388 743h-116l154 141h167z" />
    <glyph glyph-name="Lcaron" unicode="&#x13d;" horiz-adv-x="534" 
d="M236 692h148l-180 -554h287l-44 -138h-436zM491 493h-90l95 200h130z" />
    <glyph glyph-name="uni013B" unicode="&#x13b;" horiz-adv-x="528" 
d="M236 692h148l-180 -554h287l-44 -138h-436zM165 -191h-62l43 134h133l-43 -134l-103 -129h-72z" />
    <glyph glyph-name="Ldot" unicode="&#x13f;" horiz-adv-x="538" 
d="M521 352h-134l46 141h134zM236 692h148l-180 -554h287l-44 -138h-436z" />
    <glyph glyph-name="Lslash" unicode="&#x141;" horiz-adv-x="575" 
d="M69 325l113 59l101 308h148l-70 -216l166 86l-45 -139l-167 -86l-64 -199h287l-44 -138h-436l79 245l-114 -59z" />
    <glyph glyph-name="Nacute" unicode="&#x143;" horiz-adv-x="749" 
d="M11 0l225 692h142l145 -483l156 483h144l-225 -692h-142l-144 483l-157 -483h-144zM575 743h-116l154 141h167z" />
    <glyph glyph-name="Ncaron" unicode="&#x147;" horiz-adv-x="749" 
d="M11 0l225 692h142l145 -483l156 483h144l-225 -692h-142l-144 483l-157 -483h-144zM389 884h113l55 -61l107 61h113l-191 -141h-98z" />
    <glyph glyph-name="uni0145" unicode="&#x145;" horiz-adv-x="749" 
d="M11 0l225 692h142l145 -483l156 483h144l-225 -692h-142l-144 483l-157 -483h-144zM261 -191h-62l43 134h133l-43 -134l-103 -129h-72z" />
    <glyph glyph-name="OE" unicode="&#x152;" horiz-adv-x="1125" 
d="M600 41q-45 -27 -96 -42t-108 -15q-75 0 -133.5 23.5t-99 64.5t-61.5 96.5t-21 120.5q0 83 32 159t88.5 133.5t134.5 91.5t171 34q91 0 152.5 -33t96.5 -90l35 108h441l-43 -132h-310l-47 -143h265l-42 -132h-265l-50 -153h310l-43 -132h-421zM404 117q59 0 108 25.5
t84 66t54.5 89.5t19.5 97q0 45 -13 78.5t-36.5 56t-54.5 33.5t-67 11q-59 0 -108 -25.5t-84 -66t-54.5 -89.5t-19.5 -97q0 -45 13 -78.5t36.5 -56t54.5 -33.5t67 -11z" />
    <glyph glyph-name="Obreve" unicode="&#x14e;" horiz-adv-x="820" 
d="M405 -16q-61 0 -118.5 19t-102.5 57.5t-72.5 97t-27.5 137.5q0 89 33.5 164.5t90.5 130.5t132.5 86t159.5 31q60 0 118 -19t103 -57.5t72.5 -97t27.5 -137.5q0 -89 -33.5 -164.5t-90.5 -130.5t-132.5 -86t-159.5 -31zM417 117q54 0 100 21.5t79.5 58.5t52.5 86t19 104
q0 86 -49 136.5t-131 50.5q-54 0 -100 -21.5t-79.5 -58.5t-52.5 -86t-19 -104q0 -86 48.5 -136.5t131.5 -50.5zM580 750q-40 0 -68 11t-45.5 29t-25 40t-5.5 44h97q-2 -23 10.5 -37.5t47.5 -14.5t55.5 14t31.5 38h97q-12 -27 -27.5 -49.5t-38.5 -39t-54.5 -26t-74.5 -9.5z
" />
    <glyph glyph-name="Ohungarumlaut" unicode="&#x150;" horiz-adv-x="820" 
d="M405 -16q-61 0 -118.5 19t-102.5 57.5t-72.5 97t-27.5 137.5q0 89 33.5 164.5t90.5 130.5t132.5 86t159.5 31q60 0 118 -19t103 -57.5t72.5 -97t27.5 -137.5q0 -89 -33.5 -164.5t-90.5 -130.5t-132.5 -86t-159.5 -31zM417 117q54 0 100 21.5t79.5 58.5t52.5 86t19 104
q0 86 -49 136.5t-131 50.5q-54 0 -100 -21.5t-79.5 -58.5t-52.5 -86t-19 -104q0 -86 48.5 -136.5t131.5 -50.5zM738 884h168l-205 -141h-116zM536 884h168l-205 -141h-116z" />
    <glyph glyph-name="Omacron" unicode="&#x14c;" horiz-adv-x="820" 
d="M405 -16q-61 0 -118.5 19t-102.5 57.5t-72.5 97t-27.5 137.5q0 89 33.5 164.5t90.5 130.5t132.5 86t159.5 31q60 0 118 -19t103 -57.5t72.5 -97t27.5 -137.5q0 -89 -33.5 -164.5t-90.5 -130.5t-132.5 -86t-159.5 -31zM417 117q54 0 100 21.5t79.5 58.5t52.5 86t19 104
q0 86 -49 136.5t-131 50.5q-54 0 -100 -21.5t-79.5 -58.5t-52.5 -86t-19 -104q0 -86 48.5 -136.5t131.5 -50.5zM419 774l30 91h310l-30 -91h-310z" />
    <glyph glyph-name="uni1ECC" unicode="&#x1ecc;" horiz-adv-x="820" 
d="M405 -16q-61 0 -118.5 19t-102.5 57.5t-72.5 97t-27.5 137.5q0 89 33.5 164.5t90.5 130.5t132.5 86t159.5 31q60 0 118 -19t103 -57.5t72.5 -97t27.5 -137.5q0 -89 -33.5 -164.5t-90.5 -130.5t-132.5 -86t-159.5 -31zM417 117q54 0 100 21.5t79.5 58.5t52.5 86t19 104
q0 86 -49 136.5t-131 50.5q-54 0 -100 -21.5t-79.5 -58.5t-52.5 -86t-19 -104q0 -86 48.5 -136.5t131.5 -50.5zM373 -212h-134l44 136h134z" />
    <glyph glyph-name="Racute" unicode="&#x154;" horiz-adv-x="651" 
d="M315 275h-67l-89 -275h-148l225 692h197q58 0 102 -13.5t73 -37.5t44 -56.5t15 -70.5q0 -79 -51 -141t-155 -86l106 -287h-150zM398 402q25 0 47.5 7t39 19.5t26 30t9.5 39.5q0 64 -79 64h-100l-51 -160h108zM500 743h-116l154 141h167z" />
    <glyph glyph-name="Rcaron" unicode="&#x158;" horiz-adv-x="651" 
d="M315 275h-67l-89 -275h-148l225 692h197q58 0 102 -13.5t73 -37.5t44 -56.5t15 -70.5q0 -79 -51 -141t-155 -86l106 -287h-150zM398 402q25 0 47.5 7t39 19.5t26 30t9.5 39.5q0 64 -79 64h-100l-51 -160h108zM308 884h113l55 -61l107 61h113l-191 -141h-98z" />
    <glyph glyph-name="uni0156" unicode="&#x156;" horiz-adv-x="651" 
d="M315 275h-67l-89 -275h-148l225 692h197q58 0 102 -13.5t73 -37.5t44 -56.5t15 -70.5q0 -79 -51 -141t-155 -86l106 -287h-150zM398 402q25 0 47.5 7t39 19.5t26 30t9.5 39.5q0 64 -79 64h-100l-51 -160h108zM224 -191h-62l43 134h133l-43 -134l-103 -129h-72z" />
    <glyph glyph-name="Sacute" unicode="&#x15a;" horiz-adv-x="568" 
d="M267 -16q-47 0 -89 15t-74 44t-51 71.5t-19 97.5h152q1 -57 28 -81.5t66 -24.5q41 0 64.5 22.5t23.5 58.5q0 23 -13 45t-42 45l-71 56q-19 15 -36.5 34.5t-31 42t-22 48.5t-8.5 54q0 45 17.5 81.5t50 62t77.5 39.5t99 14q52 0 93.5 -16.5t70.5 -45.5t45 -69t16 -86h-153
q1 42 -21 69t-66 27q-35 0 -58.5 -18.5t-23.5 -48.5q0 -46 48 -85l65 -51q21 -17 41.5 -37t36.5 -44t25.5 -51t9.5 -58q0 -45 -17.5 -83.5t-49.5 -67t-78.5 -44.5t-104.5 -16zM493 743h-116l154 141h167z" />
    <glyph glyph-name="Scaron" unicode="&#x160;" horiz-adv-x="568" 
d="M267 -16q-47 0 -89 15t-74 44t-51 71.5t-19 97.5h152q1 -57 28 -81.5t66 -24.5q41 0 64.5 22.5t23.5 58.5q0 23 -13 45t-42 45l-71 56q-19 15 -36.5 34.5t-31 42t-22 48.5t-8.5 54q0 45 17.5 81.5t50 62t77.5 39.5t99 14q52 0 93.5 -16.5t70.5 -45.5t45 -69t16 -86h-153
q1 42 -21 69t-66 27q-35 0 -58.5 -18.5t-23.5 -48.5q0 -46 48 -85l65 -51q21 -17 41.5 -37t36.5 -44t25.5 -51t9.5 -58q0 -45 -17.5 -83.5t-49.5 -67t-78.5 -44.5t-104.5 -16zM308 884h113l55 -61l107 61h113l-191 -141h-98z" />
    <glyph glyph-name="Scedilla" unicode="&#x15e;" horiz-adv-x="568" 
d="M267 -16q-47 0 -89 15t-74 44t-51 71.5t-19 97.5h152q1 -57 28 -81.5t66 -24.5q41 0 64.5 22.5t23.5 58.5q0 23 -13 45t-42 45l-71 56q-19 15 -36.5 34.5t-31 42t-22 48.5t-8.5 54q0 45 17.5 81.5t50 62t77.5 39.5t99 14q52 0 93.5 -16.5t70.5 -45.5t45 -69t16 -86h-153
q1 42 -21 69t-66 27q-35 0 -58.5 -18.5t-23.5 -48.5q0 -46 48 -85l65 -51q21 -17 41.5 -37t36.5 -44t25.5 -51t9.5 -58q0 -45 -17.5 -83.5t-49.5 -67t-78.5 -44.5t-104.5 -16zM206 -70q11 8 24.5 11.5t24.5 3.5q27 0 48 -17.5t21 -52.5q0 -51 -40.5 -81t-107.5 -30
q-29 0 -53 6t-43 14l24 56q13 -7 31.5 -12.5t38.5 -5.5q23 0 43.5 10t20.5 33q0 29 -37 29q-10 0 -22 -2.5t-25 -8.5l-27 29l82 88h62l-66 -70h1z" />
    <glyph glyph-name="Scircumflex" unicode="&#x15c;" horiz-adv-x="568" 
d="M267 -16q-47 0 -89 15t-74 44t-51 71.5t-19 97.5h152q1 -57 28 -81.5t66 -24.5q41 0 64.5 22.5t23.5 58.5q0 23 -13 45t-42 45l-71 56q-19 15 -36.5 34.5t-31 42t-22 48.5t-8.5 54q0 45 17.5 81.5t50 62t77.5 39.5t99 14q52 0 93.5 -16.5t70.5 -45.5t45 -69t16 -86h-153
q1 42 -21 69t-66 27q-35 0 -58.5 -18.5t-23.5 -48.5q0 -46 48 -85l65 -51q21 -17 41.5 -37t36.5 -44t25.5 -51t9.5 -58q0 -45 -17.5 -83.5t-49.5 -67t-78.5 -44.5t-104.5 -16zM641 743h-113l-55 61l-107 -61h-113l191 141h98z" />
    <glyph glyph-name="uni0218" unicode="&#x218;" horiz-adv-x="568" 
d="M267 -16q-47 0 -89 15t-74 44t-51 71.5t-19 97.5h152q1 -57 28 -81.5t66 -24.5q41 0 64.5 22.5t23.5 58.5q0 23 -13 45t-42 45l-71 56q-19 15 -36.5 34.5t-31 42t-22 48.5t-8.5 54q0 45 17.5 81.5t50 62t77.5 39.5t99 14q52 0 93.5 -16.5t70.5 -45.5t45 -69t16 -86h-153
q1 42 -21 69t-66 27q-35 0 -58.5 -18.5t-23.5 -48.5q0 -46 48 -85l65 -51q21 -17 41.5 -37t36.5 -44t25.5 -51t9.5 -58q0 -45 -17.5 -83.5t-49.5 -67t-78.5 -44.5t-104.5 -16zM179 -191h-62l43 134h133l-43 -134l-103 -129h-72z" />
    <glyph glyph-name="Tcaron" unicode="&#x164;" horiz-adv-x="569" 
d="M668 560h-198l-182 -560h-148l182 560h-198l43 132h544zM304 884h113l55 -61l107 61h113l-191 -141h-98z" />
    <glyph glyph-name="uni0162" unicode="&#x162;" horiz-adv-x="569" 
d="M154 -191h-62l43 134h133l-43 -134l-103 -129h-72zM668 560h-198l-182 -560h-148l182 560h-198l43 132h544z" />
    <glyph glyph-name="uni021A" unicode="&#x21a;" horiz-adv-x="569" 
d="M154 -191h-62l43 134h133l-43 -134l-103 -129h-72zM668 560h-198l-182 -560h-148l182 560h-198l43 132h544z" />
    <glyph glyph-name="Ubreve" unicode="&#x16c;" horiz-adv-x="726" 
d="M338 114q70 0 114 40t69 115l138 423h148l-140 -431q-24 -75 -59.5 -127.5t-80 -85.5t-97.5 -48.5t-114 -15.5q-67 0 -118 23t-81 63.5t-36.5 97t14.5 122.5l130 402h148l-133 -411q-27 -85 0.5 -126t97.5 -41zM526 750q-40 0 -68 11t-45.5 29t-25 40t-5.5 44h97
q-2 -23 10.5 -37.5t47.5 -14.5t55.5 14t31.5 38h97q-12 -27 -27.5 -49.5t-38.5 -39t-54.5 -26t-74.5 -9.5z" />
    <glyph glyph-name="Uhungarumlaut" unicode="&#x170;" horiz-adv-x="726" 
d="M338 114q70 0 114 40t69 115l138 423h148l-140 -431q-24 -75 -59.5 -127.5t-80 -85.5t-97.5 -48.5t-114 -15.5q-67 0 -118 23t-81 63.5t-36.5 97t14.5 122.5l130 402h148l-133 -411q-27 -85 0.5 -126t97.5 -41zM706 884h168l-205 -141h-116zM504 884h168l-205 -141h-116z
" />
    <glyph glyph-name="Umacron" unicode="&#x16a;" horiz-adv-x="726" 
d="M369 774l30 91h310l-30 -91h-310zM338 114q70 0 114 40t69 115l138 423h148l-140 -431q-24 -75 -59.5 -127.5t-80 -85.5t-97.5 -48.5t-114 -15.5q-67 0 -118 23t-81 63.5t-36.5 97t14.5 122.5l130 402h148l-133 -411q-27 -85 0.5 -126t97.5 -41z" />
    <glyph glyph-name="Uogonek" unicode="&#x172;" horiz-adv-x="726" 
d="M338 114q70 0 114 40t69 115l138 423h148l-140 -431q-24 -75 -59.5 -127.5t-80 -85.5t-97.5 -48.5t-114 -15.5q-67 0 -118 23t-81 63.5t-36.5 97t14.5 122.5l130 402h148l-133 -411q-27 -85 0.5 -126t97.5 -41zM409 0q-27 -9 -52 -18.5t-43.5 -20.5t-30 -24t-11.5 -29
q0 -15 12.5 -24t33.5 -9q24 0 54 12l-27 -85q-20 -6 -40.5 -9t-39.5 -3q-53 0 -89 23t-36 69q0 20 9.5 37.5t26 32.5t38.5 27t47 21h148v0z" />
    <glyph glyph-name="Uring" unicode="&#x16e;" horiz-adv-x="726" 
d="M338 114q70 0 114 40t69 115l138 423h148l-140 -431q-24 -75 -59.5 -127.5t-80 -85.5t-97.5 -48.5t-114 -15.5q-67 0 -118 23t-81 63.5t-36.5 97t14.5 122.5l130 402h148l-133 -411q-27 -85 0.5 -126t97.5 -41zM528 775q23 0 39.5 16t16.5 42q0 27 -16.5 43t-39.5 16
t-39.5 -16t-16.5 -43q0 -26 16.5 -42t39.5 -16zM527 722q-24 0 -44.5 8.5t-35.5 23.5t-24 35t-9 44t9 44t24 35t35.5 23.5t44.5 8.5t45 -8.5t36 -23.5t24 -35t9 -44t-9 -44t-24 -35t-36 -23.5t-45 -8.5z" />
    <glyph glyph-name="Utilde" unicode="&#x168;" horiz-adv-x="726" 
d="M338 114q70 0 114 40t69 115l138 423h148l-140 -431q-24 -75 -59.5 -127.5t-80 -85.5t-97.5 -48.5t-114 -15.5q-67 0 -118 23t-81 63.5t-36.5 97t14.5 122.5l130 402h148l-133 -411q-27 -85 0.5 -126t97.5 -41zM610 838q17 0 31 9t19 35h85q-8 -35 -22.5 -59t-32.5 -39
t-38.5 -21.5t-40.5 -6.5q-25 0 -43 7t-33 15t-28 15t-28 7q-17 0 -31 -9t-19 -35h-85q8 34 22.5 58t32.5 39t38.5 22t40.5 7q25 0 43 -7t33 -15t28 -15t28 -7z" />
    <glyph glyph-name="uni1EE4" unicode="&#x1ee4;" horiz-adv-x="726" 
d="M338 114q70 0 114 40t69 115l138 423h148l-140 -431q-24 -75 -59.5 -127.5t-80 -85.5t-97.5 -48.5t-114 -15.5q-67 0 -118 23t-81 63.5t-36.5 97t14.5 122.5l130 402h148l-133 -411q-27 -85 0.5 -126t97.5 -41zM289 -212h-134l44 136h134z" />
    <glyph glyph-name="Wacute" unicode="&#x1e82;" horiz-adv-x="946" 
d="M182 692h147l-64 -504l281 460h131l-32 -460l275 504h164l-386 -692h-179l31 438l-273 -438h-179zM705 743h-116l154 141h167z" />
    <glyph glyph-name="Wcircumflex" unicode="&#x174;" horiz-adv-x="946" 
d="M182 692h147l-64 -504l281 460h131l-32 -460l275 504h164l-386 -692h-179l31 438l-273 -438h-179zM823 743h-113l-55 61l-107 -61h-113l191 141h98z" />
    <glyph glyph-name="Wdieresis" unicode="&#x1e84;" horiz-adv-x="946" 
d="M182 692h147l-64 -504l281 460h131l-32 -460l275 504h164l-386 -692h-179l31 438l-273 -438h-179zM503 884h129l-46 -141h-129zM717 884h129l-46 -141h-129z" />
    <glyph glyph-name="Wgrave" unicode="&#x1e80;" horiz-adv-x="946" 
d="M182 692h147l-64 -504l281 460h131l-32 -460l275 504h164l-386 -692h-179l31 438l-273 -438h-179zM440 884h154l75 -141h-116z" />
    <glyph glyph-name="Ycircumflex" unicode="&#x176;" horiz-adv-x="671" 
d="M650 692h173l-402 -441l-82 -251h-148l82 251l-115 441h145l76 -302zM682 743h-113l-55 61l-107 -61h-113l191 141h98z" />
    <glyph glyph-name="Ydieresis" unicode="&#x178;" horiz-adv-x="671" 
d="M650 692h173l-402 -441l-82 -251h-148l82 251l-115 441h145l76 -302zM361 884h129l-46 -141h-129zM575 884h129l-46 -141h-129z" />
    <glyph glyph-name="Ygrave" unicode="&#x1ef2;" horiz-adv-x="671" 
d="M650 692h173l-402 -441l-82 -251h-148l82 251l-115 441h145l76 -302zM302 884h154l75 -141h-116z" />
    <glyph glyph-name="uni0232" unicode="&#x232;" horiz-adv-x="671" 
d="M650 692h173l-402 -441l-82 -251h-148l82 251l-115 441h145l76 -302zM332 774l30 91h310l-30 -91h-310z" />
    <glyph glyph-name="Zacute" unicode="&#x179;" horiz-adv-x="600" 
d="M450 567h-285l41 125h531l-506 -565h306l-41 -127h-558zM527 743h-116l154 141h167z" />
    <glyph glyph-name="Zcaron" unicode="&#x17d;" horiz-adv-x="600" 
d="M450 567h-285l41 125h531l-506 -565h306l-41 -127h-558zM336 884h113l55 -61l107 61h113l-191 -141h-98z" />
    <glyph glyph-name="Zdotaccent" unicode="&#x17b;" horiz-adv-x="600" 
d="M450 567h-285l41 125h531l-506 -565h306l-41 -127h-558zM533 743h-134l46 141h134z" />
    <glyph glyph-name="abreve" unicode="&#x103;" horiz-adv-x="561" 
d="M169 -14q-32 0 -57.5 13t-44 36.5t-28.5 56.5t-10 73q0 50 17.5 100t49 90.5t76 65.5t97.5 25q30 0 52.5 -10t37.5 -26t24 -37t13 -43h2l33 100h143l-140 -430h-135l27 87h-1q-32 -46 -70.5 -73.5t-85.5 -27.5zM248 88q27 0 49.5 14.5t39 38t25.5 53.5t9 61q0 45 -20 64
t-49 19q-26 0 -48.5 -14.5t-39 -38t-25.5 -53.5t-9 -61q0 -45 19.5 -64t48.5 -19zM395 570q-40 0 -68 11t-45.5 29t-25 40t-5.5 44h97q-2 -23 10.5 -37.5t47.5 -14.5t55.5 14t31.5 38h97q-12 -27 -27.5 -49.5t-38.5 -39t-54.5 -26t-74.5 -9.5z" />
    <glyph glyph-name="amacron" unicode="&#x101;" horiz-adv-x="561" 
d="M169 -14q-32 0 -57.5 13t-44 36.5t-28.5 56.5t-10 73q0 50 17.5 100t49 90.5t76 65.5t97.5 25q30 0 52.5 -10t37.5 -26t24 -37t13 -43h2l33 100h143l-140 -430h-135l27 87h-1q-32 -46 -70.5 -73.5t-85.5 -27.5zM248 88q27 0 49.5 14.5t39 38t25.5 53.5t9 61q0 45 -20 64
t-49 19q-26 0 -48.5 -14.5t-39 -38t-25.5 -53.5t-9 -61q0 -45 19.5 -64t48.5 -19zM244 587l29 91h310l-30 -91h-309z" />
    <glyph glyph-name="aogonek" unicode="&#x105;" horiz-adv-x="561" 
d="M169 -14q-32 0 -57.5 13t-44 36.5t-28.5 56.5t-10 73q0 50 17.5 100t49 90.5t76 65.5t97.5 25q30 0 52.5 -10t37.5 -26t24 -37t13 -43h2l33 100h143l-140 -430h1q-27 -9 -52 -18.5t-44.5 -20.5t-31 -24t-11.5 -29q0 -15 12.5 -24t33.5 -9q24 0 54 12l-27 -85
q-20 -6 -40.5 -9t-39.5 -3q-49 0 -81.5 23t-32.5 69q0 20 10 37.5t27 32.5t39.5 27t47.5 21l27 87h-1q-32 -46 -70.5 -73.5t-85.5 -27.5zM248 88q27 0 49.5 14.5t39 38t25.5 53.5t9 61q0 45 -20 64t-49 19q-26 0 -48.5 -14.5t-39 -38t-25.5 -53.5t-9 -61q0 -45 19.5 -64
t48.5 -19z" />
    <glyph glyph-name="cacute" unicode="&#x107;" horiz-adv-x="518" 
d="M420 553h-116l154 158h170zM219 -16q-48 0 -83.5 15.5t-59 41.5t-35 60.5t-11.5 73.5q0 48 18 96.5t52.5 87t84 63t112.5 24.5q49 0 86 -14.5t62.5 -39.5t39.5 -58t17 -69h-137q-2 31 -19 51t-52 20q-27 0 -49 -13.5t-38.5 -36t-25.5 -50.5t-9 -58q0 -45 23 -64.5
t52 -19.5q34 0 59 18.5t40 52.5h137q-32 -85 -101 -133t-163 -48z" />
    <glyph glyph-name="ccaron" unicode="&#x10d;" horiz-adv-x="518" 
d="M219 -16q-48 0 -83.5 15.5t-59 41.5t-35 60.5t-11.5 73.5q0 48 18 96.5t52.5 87t84 63t112.5 24.5q49 0 86 -14.5t62.5 -39.5t39.5 -58t17 -69h-137q-2 31 -19 51t-52 20q-27 0 -49 -13.5t-38.5 -36t-25.5 -50.5t-9 -58q0 -45 23 -64.5t52 -19.5q34 0 59 18.5t40 52.5
h137q-32 -85 -101 -133t-163 -48zM227 711h108l53 -77l109 77h118l-194 -157h-98z" />
    <glyph glyph-name="ccircumflex" unicode="&#x109;" horiz-adv-x="518" 
d="M219 -16q-48 0 -83.5 15.5t-59 41.5t-35 60.5t-11.5 73.5q0 48 18 96.5t52.5 87t84 63t112.5 24.5q49 0 86 -14.5t62.5 -39.5t39.5 -58t17 -69h-137q-2 31 -19 51t-52 20q-27 0 -49 -13.5t-38.5 -36t-25.5 -50.5t-9 -58q0 -45 23 -64.5t52 -19.5q34 0 59 18.5t40 52.5
h137q-32 -85 -101 -133t-163 -48zM572 553h-108l-53 78l-109 -78h-118l194 158h98z" />
    <glyph glyph-name="cdotaccent" unicode="&#x10b;" horiz-adv-x="518" 
d="M219 -16q-48 0 -83.5 15.5t-59 41.5t-35 60.5t-11.5 73.5q0 48 18 96.5t52.5 87t84 63t112.5 24.5q49 0 86 -14.5t62.5 -39.5t39.5 -58t17 -69h-137q-2 31 -19 51t-52 20q-27 0 -49 -13.5t-38.5 -36t-25.5 -50.5t-9 -58q0 -45 23 -64.5t52 -19.5q34 0 59 18.5t40 52.5
h137q-32 -85 -101 -133t-163 -48zM422 562h-134l45 140h134z" />
    <glyph glyph-name="dcaron" unicode="&#x10f;" horiz-adv-x="592" 
d="M171 -14q-32 0 -58.5 13t-45.5 36.5t-29 56.5t-10 73q0 50 18 100t50 90.5t77.5 65.5t99.5 25q31 0 53.5 -10t38 -26t25 -37t13.5 -43h2l124 381h143l-231 -711h-137l27 87h-1q-32 -46 -71.5 -73.5t-87.5 -27.5zM251 88q27 0 50 14.5t40 38t26.5 53.5t9.5 61q0 45 -21 64
t-50 19q-27 0 -50 -14.5t-40 -38t-26.5 -53.5t-9.5 -61q0 -45 20.5 -64t50.5 -19zM752 511h-90l95 200h130z" />
    <glyph glyph-name="dcroat" unicode="&#x111;" horiz-adv-x="568" 
d="M171 -14q-32 0 -58.5 13t-45.5 36.5t-29 56.5t-10 73q0 50 18 100t50 90.5t77.5 65.5t99.5 25q31 0 53.5 -10t38 -26t25 -37t13.5 -43h2l51 159h-124l34 102h124l39 120h143l-39 -120h96l-34 -102h-95l-159 -489h-137l27 87h-1q-32 -46 -71.5 -73.5t-87.5 -27.5zM251 88
q27 0 50 14.5t40 38t26.5 53.5t9.5 61q0 45 -21 64t-50 19q-27 0 -50 -14.5t-40 -38t-26.5 -53.5t-9.5 -61q0 -45 20.5 -64t50.5 -19z" />
    <glyph glyph-name="ebreve" unicode="&#x115;" horiz-adv-x="529" 
d="M228 -16q-91 0 -144 53t-53 144q0 50 19 98t54.5 85t86 59.5t112.5 22.5q56 0 96.5 -21t64.5 -56.5t31 -83t-4 -101.5h-325q-2 -28 5.5 -46t20 -28t27.5 -14t29 -4q29 0 53 11t38 34h137q-15 -35 -41 -63t-59 -48t-71 -31t-77 -11zM293 343q-37 0 -67 -21t-45 -61h187
q2 37 -16 59.5t-59 22.5zM385 570q-40 0 -68 11t-45.5 29t-25 40t-5.5 44h97q-2 -23 10.5 -37.5t47.5 -14.5t55.5 14t31.5 38h97q-12 -27 -27.5 -49.5t-38.5 -39t-54.5 -26t-74.5 -9.5z" />
    <glyph glyph-name="ecaron" unicode="&#x11b;" horiz-adv-x="529" 
d="M228 -16q-91 0 -144 53t-53 144q0 50 19 98t54.5 85t86 59.5t112.5 22.5q56 0 96.5 -21t64.5 -56.5t31 -83t-4 -101.5h-325q-2 -28 5.5 -46t20 -28t27.5 -14t29 -4q29 0 53 11t38 34h137q-15 -35 -41 -63t-59 -48t-71 -31t-77 -11zM293 343q-37 0 -67 -21t-45 -61h187
q2 37 -16 59.5t-59 22.5zM223 711h108l53 -77l109 77h118l-194 -157h-98z" />
    <glyph glyph-name="emacron" unicode="&#x113;" horiz-adv-x="529" 
d="M228 -16q-91 0 -144 53t-53 144q0 50 19 98t54.5 85t86 59.5t112.5 22.5q56 0 96.5 -21t64.5 -56.5t31 -83t-4 -101.5h-325q-2 -28 5.5 -46t20 -28t27.5 -14t29 -4q29 0 53 11t38 34h137q-15 -35 -41 -63t-59 -48t-71 -31t-77 -11zM293 343q-37 0 -67 -21t-45 -61h187
q2 37 -16 59.5t-59 22.5zM213 587l29 91h310l-30 -91h-309z" />
    <glyph glyph-name="eogonek" unicode="&#x119;" horiz-adv-x="529" 
d="M228 -16q-91 0 -144 53t-53 144q0 50 19 98t54.5 85t86 59.5t112.5 22.5q56 0 96.5 -21t64.5 -56.5t31 -83t-4 -101.5h-325q-2 -28 5.5 -46t20 -28t27.5 -14t29 -4q29 0 53 11t38 34h137q-15 -35 -41 -63t-59 -48t-71 -31t-77 -11zM293 343q-37 0 -67 -21t-45 -61h187
q2 37 -16 59.5t-59 22.5zM309 0q-27 -9 -52 -18.5t-43.5 -20.5t-30 -24t-11.5 -29q0 -15 12.5 -24t33.5 -9q24 0 54 12l-27 -85q-20 -8 -40.5 -10t-39.5 -2q-24 0 -46 6t-38.5 17.5t-26 28.5t-9.5 40q0 20 9.5 37.5t26 32.5t38.5 27t47 21h143v0z" />
    <glyph glyph-name="edotaccent" unicode="&#x117;" horiz-adv-x="529" 
d="M228 -16q-91 0 -144 53t-53 144q0 50 19 98t54.5 85t86 59.5t112.5 22.5q56 0 96.5 -21t64.5 -56.5t31 -83t-4 -101.5h-325q-2 -28 5.5 -46t20 -28t27.5 -14t29 -4q29 0 53 11t38 34h137q-15 -35 -41 -63t-59 -48t-71 -31t-77 -11zM293 343q-37 0 -67 -21t-45 -61h187
q2 37 -16 59.5t-59 22.5zM423 562h-134l45 140h134z" />
    <glyph glyph-name="gbreve" unicode="&#x11f;" horiz-adv-x="567" 
d="M484 338q12 -30 12 -63q0 -37 -13 -71t-36.5 -62.5t-57.5 -49.5t-76 -30q54 -14 88 -49t34 -83q0 -35 -17 -67t-49 -56.5t-77.5 -39t-101.5 -12.5q-51 1 -94.5 18t-75 48.5t-48.5 76.5t-15 102h138q-1 -74 27.5 -104t75.5 -31q21 0 40.5 5.5t34.5 17.5t24 30.5t9 42.5
q0 15 -4.5 30t-14 28t-24.5 22.5t-35 13.5q-43 3 -76 17.5t-55.5 37.5t-34 52.5t-11.5 63.5q0 43 17.5 83t50 70.5t78 48.5t101.5 18q26 0 48.5 -4t42.5 -12h253l-67 -92h-91zM255 160q25 0 43.5 10.5t31.5 27t19.5 36.5t6.5 39q0 27 -15 47t-50 20q-25 0 -44 -10.5t-32 -27
t-19.5 -36.5t-6.5 -38q0 -29 15.5 -48.5t50.5 -19.5zM403 570q-40 0 -68 11t-45.5 29t-25 40t-5.5 44h97q-2 -23 10.5 -37.5t47.5 -14.5t55.5 14t31.5 38h97q-12 -27 -27.5 -49.5t-38.5 -39t-54.5 -26t-74.5 -9.5z" />
    <glyph glyph-name="gcircumflex" unicode="&#x11d;" horiz-adv-x="567" 
d="M484 338q12 -30 12 -63q0 -37 -13 -71t-36.5 -62.5t-57.5 -49.5t-76 -30q54 -14 88 -49t34 -83q0 -35 -17 -67t-49 -56.5t-77.5 -39t-101.5 -12.5q-51 1 -94.5 18t-75 48.5t-48.5 76.5t-15 102h138q-1 -74 27.5 -104t75.5 -31q21 0 40.5 5.5t34.5 17.5t24 30.5t9 42.5
q0 15 -4.5 30t-14 28t-24.5 22.5t-35 13.5q-43 3 -76 17.5t-55.5 37.5t-34 52.5t-11.5 63.5q0 43 17.5 83t50 70.5t78 48.5t101.5 18q26 0 48.5 -4t42.5 -12h253l-67 -92h-91zM255 160q25 0 43.5 10.5t31.5 27t19.5 36.5t6.5 39q0 27 -15 47t-50 20q-25 0 -44 -10.5t-32 -27
t-19.5 -36.5t-6.5 -38q0 -29 15.5 -48.5t50.5 -19.5zM584 553h-108l-53 78l-109 -78h-118l194 158h98z" />
    <glyph glyph-name="uni0123" unicode="&#x123;" horiz-adv-x="567" 
d="M484 338q12 -30 12 -63q0 -37 -13 -71t-36.5 -62.5t-57.5 -49.5t-76 -30q54 -14 88 -49t34 -83q0 -35 -17 -67t-49 -56.5t-77.5 -39t-101.5 -12.5q-51 1 -94.5 18t-75 48.5t-48.5 76.5t-15 102h138q-1 -74 27.5 -104t75.5 -31q21 0 40.5 5.5t34.5 17.5t24 30.5t9 42.5
q0 15 -4.5 30t-14 28t-24.5 22.5t-35 13.5q-43 3 -76 17.5t-55.5 37.5t-34 52.5t-11.5 63.5q0 43 17.5 83t50 70.5t78 48.5t101.5 18q26 0 48.5 -4t42.5 -12h253l-67 -92h-91zM329 687l99 117h72l-100 -117h61l-43 -134h-133zM255 160q25 0 43.5 10.5t31.5 27t19.5 36.5
t6.5 39q0 27 -15 47t-50 20q-25 0 -44 -10.5t-32 -27t-19.5 -36.5t-6.5 -38q0 -29 15.5 -48.5t50.5 -19.5z" />
    <glyph glyph-name="gdotaccent" unicode="&#x121;" horiz-adv-x="567" 
d="M484 338q12 -30 12 -63q0 -37 -13 -71t-36.5 -62.5t-57.5 -49.5t-76 -30q54 -14 88 -49t34 -83q0 -35 -17 -67t-49 -56.5t-77.5 -39t-101.5 -12.5q-51 1 -94.5 18t-75 48.5t-48.5 76.5t-15 102h138q-1 -74 27.5 -104t75.5 -31q21 0 40.5 5.5t34.5 17.5t24 30.5t9 42.5
q0 15 -4.5 30t-14 28t-24.5 22.5t-35 13.5q-43 3 -76 17.5t-55.5 37.5t-34 52.5t-11.5 63.5q0 43 17.5 83t50 70.5t78 48.5t101.5 18q26 0 48.5 -4t42.5 -12h253l-67 -92h-91zM255 160q25 0 43.5 10.5t31.5 27t19.5 36.5t6.5 39q0 27 -15 47t-50 20q-25 0 -44 -10.5t-32 -27
t-19.5 -36.5t-6.5 -38q0 -29 15.5 -48.5t50.5 -19.5zM441 562h-134l45 140h134z" />
    <glyph glyph-name="hbar" unicode="&#x127;" 
d="M146 489h-90l34 102h89l39 120h143l-39 -120h131l-34 -102h-130l-52 -160h1q32 57 73.5 87t95.5 30q25 0 49 -10.5t38.5 -34.5t16 -63.5t-17.5 -97.5l-79 -240h-143l80 244q8 25 8.5 41.5t-5 27t-16 15t-23.5 4.5q-45 0 -75.5 -43t-58.5 -130l-51 -159h-143z" />
    <glyph glyph-name="hcircumflex" unicode="&#x125;" 
d="M218 711h143l-124 -382h1q32 57 73.5 87t95.5 30q25 0 49 -10.5t38.5 -34.5t16 -63.5t-17.5 -97.5l-79 -240h-143l80 244q8 25 8.5 41.5t-5 27t-16 15t-23.5 4.5q-45 0 -75.5 -43t-58.5 -130l-51 -159h-143zM499 743h-113l-55 61l-107 -61h-113l191 141h98z" />
    <glyph glyph-name="dotlessi" unicode="&#x131;" horiz-adv-x="257" 
d="M130 0h-143l140 430h143z" />
    <glyph glyph-name="ibreve" unicode="&#x12d;" horiz-adv-x="257" 
d="M259 570q-40 0 -68 11t-45.5 29t-25 40t-5.5 44h97q-2 -23 10.5 -37.5t47.5 -14.5t55.5 14t31.5 38h97q-12 -27 -27.5 -49.5t-38.5 -39t-54.5 -26t-74.5 -9.5zM130 0h-143l140 430h143z" />
    <glyph glyph-name="imacron" unicode="&#x12b;" horiz-adv-x="257" 
d="M96 587l29 91h310l-30 -91h-309zM130 0h-143l140 430h143z" />
    <glyph glyph-name="iogonek" unicode="&#x12f;" horiz-adv-x="257" 
d="M131 0q-27 -9 -52 -18.5t-43.5 -20.5t-30 -24t-11.5 -29q0 -15 12.5 -24t33.5 -9q24 0 54 12l-27 -85q-20 -8 -40.5 -10t-39.5 -2q-24 0 -46 6t-38.5 17.5t-26 28.5t-9.5 40q0 20 9.5 37.5t26 32.5t38.5 27t47 21h143v0zM130 0h-143l140 430h143zM307 545h-143l48 147
h143z" />
    <glyph glyph-name="itilde" unicode="&#x129;" horiz-adv-x="257" 
d="M130 0h-143l140 430h143zM306 651q17 0 31 9t19 35h85q-8 -35 -22.5 -59t-32.5 -39t-38.5 -21.5t-40.5 -6.5q-25 0 -43 7t-33 15t-28 15t-28 7q-17 0 -31 -9t-19 -35h-85q8 34 22.5 58t32.5 39t38.5 22t40.5 7q25 0 43 -7t33 -15t28 -15t28 -7z" />
    <glyph glyph-name="uni1ECB" unicode="&#x1ecb;" horiz-adv-x="257" 
d="M57 -212h-134l44 136h134zM130 0h-143l140 430h143zM307 545h-143l48 147h143z" />
    <glyph glyph-name="uni0237" unicode="&#x237;" horiz-adv-x="257" 
d="M-99 -264l226 694h143l-187 -576l-181 -118h-1z" />
    <glyph glyph-name="jcircumflex" unicode="&#x135;" horiz-adv-x="257" 
d="M425 553h-108l-53 78l-109 -78h-118l194 158h98zM-99 -264l226 694h143l-187 -576l-181 -118h-1z" />
    <glyph glyph-name="uni0137" unicode="&#x137;" horiz-adv-x="523" 
d="M410 430h168l-209 -212l86 -218h-155l-88 225l1 3zM130 0h-143l231 711h143zM150 -191h-62l43 134h133l-43 -134l-103 -129h-72z" />
    <glyph glyph-name="lacute" unicode="&#x13a;" horiz-adv-x="257" 
d="M353 743h-116l154 141h167zM130 0h-143l231 711h143z" />
    <glyph glyph-name="lcaron" unicode="&#x13e;" horiz-adv-x="281" 
d="M130 0h-143l231 711h143zM434 511h-90l95 200h130z" />
    <glyph glyph-name="uni013C" unicode="&#x13c;" horiz-adv-x="257" 
d="M-5 -191h-62l43 134h133l-43 -134l-103 -129h-72zM130 0h-143l231 711h143z" />
    <glyph glyph-name="ldot" unicode="&#x140;" horiz-adv-x="347" 
d="M394 293h-134l45 140h134zM130 0h-143l231 711h143z" />
    <glyph glyph-name="lslash" unicode="&#x142;" horiz-adv-x="346" 
d="M329 457l87 38l-39 -120l-87 -38l-109 -337h-143l86 264l-91 -39l39 120l91 39l106 327h143z" />
    <glyph glyph-name="nacute" unicode="&#x144;" 
d="M238 329q32 57 73.5 87t95.5 30q25 0 49 -10.5t38.5 -34.5t16 -63.5t-17.5 -97.5l-79 -240h-143l80 244q8 25 8.5 41.5t-5 27t-16 15t-23.5 4.5q-45 0 -75.5 -43t-58.5 -130l-51 -159h-143l140 430h143l-33 -101h1v0zM466 553h-116l154 158h170z" />
    <glyph glyph-name="ncaron" unicode="&#x148;" 
d="M238 329q32 57 73.5 87t95.5 30q25 0 49 -10.5t38.5 -34.5t16 -63.5t-17.5 -97.5l-79 -240h-143l80 244q8 25 8.5 41.5t-5 27t-16 15t-23.5 4.5q-45 0 -75.5 -43t-58.5 -130l-51 -159h-143l140 430h143l-33 -101h1v0zM248 711h108l53 -77l109 77h118l-194 -157h-98z" />
    <glyph glyph-name="uni0146" unicode="&#x146;" 
d="M238 329q32 57 73.5 87t95.5 30q25 0 49 -10.5t38.5 -34.5t16 -63.5t-17.5 -97.5l-79 -240h-143l80 244q8 25 8.5 41.5t-5 27t-16 15t-23.5 4.5q-45 0 -75.5 -43t-58.5 -130l-51 -159h-143l140 430h143l-33 -101h1v0zM147 -191h-62l43 134h133l-43 -134l-103 -129h-72z
" />
    <glyph glyph-name="oe" unicode="&#x153;" horiz-adv-x="853" 
d="M237 -16q-48 0 -86 14.5t-64.5 41t-40.5 64t-14 82.5q0 51 20 98t56 83t86 57.5t109 21.5q53 0 91.5 -17.5t63.5 -49.5q33 31 77 49t98 18q49 0 88.5 -19t64 -53.5t33 -83t-3.5 -106.5h-320q-2 -26 4.5 -43.5t17.5 -28.5t25.5 -15.5t29.5 -4.5q26 0 51.5 10.5t39.5 34.5
h137q-15 -35 -40.5 -63t-58 -48t-70 -31t-76.5 -11q-54 0 -89.5 16.5t-57.5 44.5q-33 -29 -76.5 -45t-94.5 -16zM247 96q30 0 53 15.5t38.5 38.5t23.5 49t8 48q0 37 -17.5 62t-56.5 25q-30 0 -53 -15.5t-38.5 -38.5t-23.5 -49t-8 -48q0 -37 17.5 -62t56.5 -25zM619 343
q-35 0 -64 -21t-44 -61h181q2 44 -18 63t-55 19z" />
    <glyph glyph-name="obreve" unicode="&#x14f;" horiz-adv-x="552" 
d="M243 -16q-50 0 -89.5 15t-66.5 42t-41.5 64t-14.5 80q0 50 20 97t57 83.5t88 58.5t113 22q50 0 89.5 -15t66.5 -42t41.5 -64t14.5 -80q0 -50 -20 -97t-57 -83.5t-88 -58.5t-113 -22zM255 96q27 0 50 13.5t39.5 35t25.5 48t9 52.5q0 43 -22.5 66t-59.5 23q-27 0 -50 -13.5
t-39.5 -35t-25.5 -48t-9 -52.5q0 -42 22 -65.5t60 -23.5zM391 570q-40 0 -68 11t-45.5 29t-25 40t-5.5 44h97q-2 -23 10.5 -37.5t47.5 -14.5t55.5 14t31.5 38h97q-12 -27 -27.5 -49.5t-38.5 -39t-54.5 -26t-74.5 -9.5z" />
    <glyph glyph-name="ohungarumlaut" unicode="&#x151;" horiz-adv-x="552" 
d="M243 -16q-50 0 -89.5 15t-66.5 42t-41.5 64t-14.5 80q0 50 20 97t57 83.5t88 58.5t113 22q50 0 89.5 -15t66.5 -42t41.5 -64t14.5 -80q0 -50 -20 -97t-57 -83.5t-88 -58.5t-113 -22zM255 96q27 0 50 13.5t39.5 35t25.5 48t9 52.5q0 43 -22.5 66t-59.5 23q-27 0 -50 -13.5
t-39.5 -35t-25.5 -48t-9 -52.5q0 -42 22 -65.5t60 -23.5zM326 553h-116l154 158h170zM528 553h-116l154 158h170z" />
    <glyph glyph-name="omacron" unicode="&#x14d;" horiz-adv-x="552" 
d="M243 -16q-50 0 -89.5 15t-66.5 42t-41.5 64t-14.5 80q0 50 20 97t57 83.5t88 58.5t113 22q50 0 89.5 -15t66.5 -42t41.5 -64t14.5 -80q0 -50 -20 -97t-57 -83.5t-88 -58.5t-113 -22zM255 96q27 0 50 13.5t39.5 35t25.5 48t9 52.5q0 43 -22.5 66t-59.5 23q-27 0 -50 -13.5
t-39.5 -35t-25.5 -48t-9 -52.5q0 -42 22 -65.5t60 -23.5zM230 587l29 91h310l-30 -91h-309z" />
    <glyph glyph-name="uni1ECD" unicode="&#x1ecd;" horiz-adv-x="552" 
d="M243 -16q-50 0 -89.5 15t-66.5 42t-41.5 64t-14.5 80q0 50 20 97t57 83.5t88 58.5t113 22q50 0 89.5 -15t66.5 -42t41.5 -64t14.5 -80q0 -50 -20 -97t-57 -83.5t-88 -58.5t-113 -22zM255 96q27 0 50 13.5t39.5 35t25.5 48t9 52.5q0 43 -22.5 66t-59.5 23q-27 0 -50 -13.5
t-39.5 -35t-25.5 -48t-9 -52.5q0 -42 22 -65.5t60 -23.5zM219 -212h-134l44 136h134z" />
    <glyph glyph-name="racute" unicode="&#x155;" horiz-adv-x="383" 
d="M233 310q42 75 92 103t110 28h4l-45 -138h-43q-31 0 -56 -6t-45 -22t-36.5 -44t-31.5 -72l-52 -159h-143l140 430h143l-39 -120h2v0zM365 553h-116l154 158h170z" />
    <glyph glyph-name="rcaron" unicode="&#x159;" horiz-adv-x="383" 
d="M233 310q42 75 92 103t110 28h4l-45 -138h-43q-31 0 -56 -6t-45 -22t-36.5 -44t-31.5 -72l-52 -159h-143l140 430h143l-39 -120h2v0zM184 711h108l53 -77l109 77h118l-194 -157h-98z" />
    <glyph glyph-name="uni0157" unicode="&#x157;" horiz-adv-x="383" 
d="M233 310q42 75 92 103t110 28h4l-45 -138h-43q-31 0 -56 -6t-45 -22t-36.5 -44t-31.5 -72l-52 -159h-143l140 430h143l-39 -120h2v0zM-7 -191h-62l43 134h133l-43 -134l-103 -129h-72z" />
    <glyph glyph-name="sacute" unicode="&#x15b;" horiz-adv-x="427" 
d="M179 -16q-35 0 -66 10t-54.5 29.5t-38 48t-17.5 64.5h125q0 -26 16 -42.5t44 -16.5q23 0 38 10t15 26q0 14 -11 25.5t-34 24.5l-53 31q-40 23 -57 55t-17 66q0 63 48 99.5t129 36.5q79 0 123 -39.5t44 -102.5h-124q-2 23 -17 35.5t-35 12.5q-19 0 -30.5 -9.5t-11.5 -25.5
q0 -12 7.5 -22t24.5 -21l43 -25q54 -31 76.5 -60t22.5 -71q0 -29 -14 -54.5t-39 -44.5t-60 -29.5t-77 -10.5zM378 553h-116l154 158h170z" />
    <glyph glyph-name="scaron" unicode="&#x161;" horiz-adv-x="427" 
d="M179 -16q-35 0 -66 10t-54.5 29.5t-38 48t-17.5 64.5h125q0 -26 16 -42.5t44 -16.5q23 0 38 10t15 26q0 14 -11 25.5t-34 24.5l-53 31q-40 23 -57 55t-17 66q0 63 48 99.5t129 36.5q79 0 123 -39.5t44 -102.5h-124q-2 23 -17 35.5t-35 12.5q-19 0 -30.5 -9.5t-11.5 -25.5
q0 -12 7.5 -22t24.5 -21l43 -25q54 -31 76.5 -60t22.5 -71q0 -29 -14 -54.5t-39 -44.5t-60 -29.5t-77 -10.5zM188 711h108l53 -77l109 77h118l-194 -157h-98z" />
    <glyph glyph-name="scedilla" unicode="&#x15f;" horiz-adv-x="427" 
d="M179 -16q-35 0 -66 10t-54.5 29.5t-38 48t-17.5 64.5h125q0 -26 16 -42.5t44 -16.5q23 0 38 10t15 26q0 14 -11 25.5t-34 24.5l-53 31q-40 23 -57 55t-17 66q0 63 48 99.5t129 36.5q79 0 123 -39.5t44 -102.5h-124q-2 23 -17 35.5t-35 12.5q-19 0 -30.5 -9.5t-11.5 -25.5
q0 -12 7.5 -22t24.5 -21l43 -25q54 -31 76.5 -60t22.5 -71q0 -29 -14 -54.5t-39 -44.5t-60 -29.5t-77 -10.5zM120 -71q13 8 26.5 9.5t27.5 1.5q25 0 44.5 -17t19.5 -52q0 -46 -40.5 -76.5t-107.5 -30.5q-29 0 -53 6t-43 14l24 56q13 -7 31.5 -12.5t38.5 -5.5q28 0 46 9.5
t18 30.5q0 14 -10 23t-27 9q-10 0 -22 -2.5t-25 -8.5l-27 29l82 88h62l-66 -70z" />
    <glyph glyph-name="scircumflex" unicode="&#x15d;" horiz-adv-x="427" 
d="M179 -16q-35 0 -66 10t-54.5 29.5t-38 48t-17.5 64.5h125q0 -26 16 -42.5t44 -16.5q23 0 38 10t15 26q0 14 -11 25.5t-34 24.5l-53 31q-40 23 -57 55t-17 66q0 63 48 99.5t129 36.5q79 0 123 -39.5t44 -102.5h-124q-2 23 -17 35.5t-35 12.5q-19 0 -30.5 -9.5t-11.5 -25.5
q0 -12 7.5 -22t24.5 -21l43 -25q54 -31 76.5 -60t22.5 -71q0 -29 -14 -54.5t-39 -44.5t-60 -29.5t-77 -10.5zM518 553h-108l-53 78l-109 -78h-118l194 158h98z" />
    <glyph glyph-name="uni0219" unicode="&#x219;" horiz-adv-x="427" 
d="M179 -16q-35 0 -66 10t-54.5 29.5t-38 48t-17.5 64.5h125q0 -26 16 -42.5t44 -16.5q23 0 38 10t15 26q0 14 -11 25.5t-34 24.5l-53 31q-40 23 -57 55t-17 66q0 63 48 99.5t129 36.5q79 0 123 -39.5t44 -102.5h-124q-2 23 -17 35.5t-35 12.5q-19 0 -30.5 -9.5t-11.5 -25.5
q0 -12 7.5 -22t24.5 -21l43 -25q54 -31 76.5 -60t22.5 -71q0 -29 -14 -54.5t-39 -44.5t-60 -29.5t-77 -10.5zM83 -193h-62l43 134h133l-43 -134l-103 -129h-72z" />
    <glyph glyph-name="tcaron" unicode="&#x165;" horiz-adv-x="398" 
d="M333 430h120l-37 -116h-121l-102 -314h-143l102 314h-105l38 116h105l37 116l181 118h1zM506 511h-90l95 200h130z" />
    <glyph glyph-name="uni0163" unicode="&#x163;" horiz-adv-x="398" 
d="M333 430h120l-37 -116h-121l-102 -314h-143l102 314h-105l38 116h105l37 116l181 118h1zM56 -191h-62l43 134h133l-43 -134l-103 -129h-72z" />
    <glyph glyph-name="uni021B" unicode="&#x21b;" horiz-adv-x="398" 
d="M333 430h120l-37 -116h-121l-102 -314h-143l102 314h-105l38 116h105l37 116l181 118h1zM56 -191h-62l43 134h133l-43 -134l-103 -129h-72z" />
    <glyph glyph-name="ubreve" unicode="&#x16d;" 
d="M297 101q-32 -57 -73 -87t-96 -30q-25 0 -48.5 10.5t-38 34.5t-16 63.5t17.5 97.5l78 240h143l-79 -244q-8 -25 -8 -41.5t5 -27t15.5 -15t23.5 -4.5q45 0 74.5 43t58.5 130l52 159h143l-140 -430h-143l33 101h-2v0zM394 570q-40 0 -68 11t-45.5 29t-25 40t-5.5 44h97
q-2 -23 10.5 -37.5t47.5 -14.5t55.5 14t31.5 38h97q-12 -27 -27.5 -49.5t-38.5 -39t-54.5 -26t-74.5 -9.5z" />
    <glyph glyph-name="uhungarumlaut" unicode="&#x171;" 
d="M297 101q-32 -57 -73 -87t-96 -30q-25 0 -48.5 10.5t-38 34.5t-16 63.5t17.5 97.5l78 240h143l-79 -244q-8 -25 -8 -41.5t5 -27t15.5 -15t23.5 -4.5q45 0 74.5 43t58.5 130l52 159h143l-140 -430h-143l33 101h-2v0zM327 553h-116l154 158h170zM529 553h-116l154 158h170z
" />
    <glyph glyph-name="umacron" unicode="&#x16b;" 
d="M297 101q-32 -57 -73 -87t-96 -30q-25 0 -48.5 10.5t-38 34.5t-16 63.5t17.5 97.5l78 240h143l-79 -244q-8 -25 -8 -41.5t5 -27t15.5 -15t23.5 -4.5q45 0 74.5 43t58.5 130l52 159h143l-140 -430h-143l33 101h-2v0zM231 587l29 91h310l-30 -91h-309z" />
    <glyph glyph-name="uogonek" unicode="&#x173;" 
d="M297 101q-32 -57 -73 -87t-96 -30q-25 0 -48.5 10.5t-38 34.5t-16 63.5t17.5 97.5l78 240h143l-79 -244q-8 -25 -8 -41.5t5 -27t15.5 -15t23.5 -4.5q45 0 74.5 43t58.5 130l52 159h143l-140 -430h-143l33 101h-2v0zM409 0q-27 -9 -52 -18.5t-43.5 -20.5t-30 -24
t-11.5 -29q0 -15 12.5 -24t33.5 -9q24 0 54 12l-27 -85q-20 -8 -40.5 -10t-39.5 -2q-24 0 -46 6t-38.5 17.5t-26 28.5t-9.5 40q0 20 9.5 37.5t26 32.5t38.5 27t47 21h143v0z" />
    <glyph glyph-name="uring" unicode="&#x16f;" 
d="M297 101q-32 -57 -73 -87t-96 -30q-25 0 -48.5 10.5t-38 34.5t-16 63.5t17.5 97.5l78 240h143l-79 -244q-8 -25 -8 -41.5t5 -27t15.5 -15t23.5 -4.5q45 0 74.5 43t58.5 130l52 159h143l-140 -430h-143l33 101h-2v0zM370 521q-24 0 -44.5 8.5t-35.5 23.5t-24 35t-9 44
t9 44t24 35t35.5 23.5t44.5 8.5t45 -8.5t36 -23.5t24 -35t9 -44t-9 -44t-24 -35t-36 -23.5t-45 -8.5zM371 574q23 0 39.5 16t16.5 42q0 27 -16.5 43t-39.5 16t-39.5 -16t-16.5 -43q0 -26 16.5 -42t39.5 -16z" />
    <glyph glyph-name="utilde" unicode="&#x169;" 
d="M297 101q-32 -57 -73 -87t-96 -30q-25 0 -48.5 10.5t-38 34.5t-16 63.5t17.5 97.5l78 240h143l-79 -244q-8 -25 -8 -41.5t5 -27t15.5 -15t23.5 -4.5q45 0 74.5 43t58.5 130l52 159h143l-140 -430h-143l33 101h-2v0zM448 651q17 0 31 9t19 35h85q-8 -35 -22.5 -59
t-32.5 -39t-38.5 -21.5t-40.5 -6.5q-25 0 -43 7t-33 15t-28 15t-28 7q-17 0 -31 -9t-19 -35h-85q8 34 22.5 58t32.5 39t38.5 22t40.5 7q25 0 43 -7t33 -15t28 -15t28 -7z" />
    <glyph glyph-name="uni1EE5" unicode="&#x1ee5;" 
d="M297 101q-32 -57 -73 -87t-96 -30q-25 0 -48.5 10.5t-38 34.5t-16 63.5t17.5 97.5l78 240h143l-79 -244q-8 -25 -8 -41.5t5 -27t15.5 -15t23.5 -4.5q45 0 74.5 43t58.5 130l52 159h143l-140 -430h-143l33 101h-2v0zM191 -212h-134l44 136h134z" />
    <glyph glyph-name="wacute" unicode="&#x1e83;" horiz-adv-x="714" 
d="M91 430h128l-28 -292l165 262h113l-13 -262l173 292h140l-252 -430h-159l17 261l-167 -261h-159zM534 553h-116l154 158h170z" />
    <glyph glyph-name="wcircumflex" unicode="&#x175;" horiz-adv-x="714" 
d="M91 430h128l-28 -292l165 262h113l-13 -262l173 292h140l-252 -430h-159l17 261l-167 -261h-159zM659 553h-108l-53 78l-109 -78h-118l194 158h98z" />
    <glyph glyph-name="wdieresis" unicode="&#x1e85;" horiz-adv-x="714" 
d="M91 430h128l-28 -292l165 262h113l-13 -262l173 292h140l-252 -430h-159l17 261l-167 -261h-159zM687 703l-46 -141h-129l45 141h130zM427 562h-129l45 141h130z" />
    <glyph glyph-name="wgrave" unicode="&#x1e81;" horiz-adv-x="714" 
d="M91 430h128l-28 -292l165 262h113l-13 -262l173 292h140l-252 -430h-159l17 261l-167 -261h-159zM221 711h162l113 -158h-116z" />
    <glyph glyph-name="ycircumflex" unicode="&#x177;" horiz-adv-x="524" 
d="M117 0l-47 430h130l31 -284l219 284h149l-339 -430l-82 -230h-143zM568 553h-108l-53 78l-109 -78h-118l194 158h98z" />
    <glyph glyph-name="ygrave" unicode="&#x1ef3;" horiz-adv-x="524" 
d="M117 0l-47 430h130l31 -284l219 284h149l-339 -430l-82 -230h-143zM152 711h162l113 -158h-116z" />
    <glyph glyph-name="uni0233" unicode="&#x233;" horiz-adv-x="524" 
d="M117 0l-47 430h130l31 -284l219 284h149l-339 -430l-82 -230h-143zM215 587l29 91h310l-30 -91h-309z" />
    <glyph glyph-name="zacute" unicode="&#x17a;" horiz-adv-x="459" 
d="M-57 0l308 321h-176l36 109h394l-308 -321h196l-35 -109h-415zM414 553h-116l154 158h170z" />
    <glyph glyph-name="zcaron" unicode="&#x17e;" horiz-adv-x="459" 
d="M-57 0l308 321h-176l36 109h394l-308 -321h196l-35 -109h-415zM201 711h108l53 -77l109 77h118l-194 -157h-98z" />
    <glyph glyph-name="zdotaccent" unicode="&#x17c;" horiz-adv-x="459" 
d="M-57 0l308 321h-176l36 109h394l-308 -321h196l-35 -109h-415zM407 562h-134l45 140h134z" />
    <glyph glyph-name="ellipsis" unicode="&#x2026;" horiz-adv-x="858" 
d="M640 151h151l-49 -151h-151zM340 151h151l-49 -151h-151zM40 151h151l-49 -151h-151z" />
    <glyph glyph-name="endash" unicode="&#x2013;" horiz-adv-x="489" 
d="M35 158l40 122h380l-39 -122h-381z" />
    <glyph glyph-name="emdash" unicode="&#x2014;" horiz-adv-x="774" 
d="M35 158l40 122h665l-39 -122h-666z" />
    <glyph glyph-name="guilsinglleft" unicode="&#x2039;" horiz-adv-x="320" 
d="M166 217l53 -191h-133l-54 204l179 180h145z" />
    <glyph glyph-name="guilsinglright" unicode="&#x203a;" horiz-adv-x="319" 
d="M154.99 218.986l-52.9961 190.988h132.991l53.9971 -203.987l-178.989 -179.989h-144.991z" />
    <glyph glyph-name="quoteleft" unicode="&#x2018;" horiz-adv-x="255" 
d="M229 519h64l-49 -151h-150l49 151l151 192h86z" />
    <glyph glyph-name="quoteright" unicode="&#x2019;" horiz-adv-x="251" 
d="M239 560h-64l49 151h150l-49 -151l-151 -192h-86z" />
    <glyph glyph-name="quotedblleft" unicode="&#x201c;" horiz-adv-x="456" 
d="M229 519h64l-49 -151h-150l49 151l151 192h86zM430 519h64l-49 -151h-150l49 151l151 192h86z" />
    <glyph glyph-name="quotedblright" unicode="&#x201d;" horiz-adv-x="452" 
d="M440 560h-64l49 151h150l-49 -151l-151 -192h-86zM239 560h-64l49 151h150l-49 -151l-151 -192h-86z" />
    <glyph glyph-name="quotesinglbase" unicode="&#x201a;" horiz-adv-x="258" 
d="M56 0h-64l49 151h150l-49 -151l-151 -192h-86z" />
    <glyph glyph-name="quotedblbase" unicode="&#x201e;" horiz-adv-x="459" 
d="M257 0h-64l49 151h150l-49 -151l-151 -192h-86zM56 0h-64l49 151h150l-49 -151l-151 -192h-86z" />
    <glyph glyph-name="bullet" unicode="&#x2022;" horiz-adv-x="460" 
d="M397 224q0 -34 -13 -63.5t-35.5 -52t-52 -35.5t-63.5 -13t-63.5 13t-52 35.5t-35.5 52t-13 63.5t13 63.5t35.5 52t52 35.5t63.5 13t63.5 -13t52 -35.5t35.5 -52t13 -63.5z" />
    <glyph glyph-name="minus" unicode="&#x2212;" horiz-adv-x="530" 
d="M62 272h442l-36 -112h-442z" />
    <glyph glyph-name="Euro" unicode="&#x20ac;" horiz-adv-x="755" 
d="M235 462q23 52 59.5 97t84.5 78t107.5 51.5t128.5 18.5q67 0 129 -19.5t108 -61.5l-75 -110q-41 35 -82.5 50t-90.5 15q-75 0 -128.5 -34t-85.5 -85h349l-55 -80h-328q-10 -34 -12 -70h292l-56 -80h-229q18 -65 69.5 -94t120.5 -29q54 0 111 15l-44 -130q-22 -5 -45 -7.5
t-48 -2.5q-67 0 -120.5 18.5t-93.5 51.5t-64.5 78.5t-33.5 99.5h-163l57 80h102q2 17 4 35t6 35h-115l57 80h84z" />
    <glyph glyph-name="uniFB01" unicode="&#xfb01;" horiz-adv-x="637" 
d="M158 314h-112l38 116h112l28 86q18 57 43.5 94.5t60.5 60t82 31.5t109 9h28l-43 -131h-23q-46 0 -76 -18.5t-44 -63.5l-22 -68h104l-38 -116h-104l-102 -314h-143zM510 0h-143l140 430h143zM687 545h-143l48 147h143z" />
    <glyph glyph-name="uniFB02" unicode="&#xfb02;" horiz-adv-x="640" 
d="M158 314h-112l38 116h112l28 86q18 57 43.5 94.5t60.5 60t82 31.5t109 9h28l-43 -131h-23q-46 0 -76 -18.5t-44 -63.5l-22 -68h104l-38 -116h-104l-102 -314h-143zM513 0h-143l231 711h143z" />
    <glyph glyph-name="glyph328" horiz-adv-x="243" 
d="M300 545h-143l48 147h143z" />
    <glyph glyph-name="breve" unicode="&#x2d8;" horiz-adv-x="379" 
d="M319 570q-40 0 -68 11t-45.5 29t-25 40t-5.5 44h97q-2 -23 10.5 -37.5t47.5 -14.5t55.5 14t31.5 38h97q-12 -27 -27.5 -49.5t-38.5 -39t-54.5 -26t-74.5 -9.5z" />
    <glyph glyph-name="caron" unicode="&#x2c7;" horiz-adv-x="428" 
d="M182 711h108l53 -77l109 77h118l-194 -157h-98z" />
    <glyph glyph-name="circumflex" unicode="&#x2c6;" horiz-adv-x="428" 
d="M521 553h-108l-53 78l-109 -78h-118l194 158h98z" />
    <glyph glyph-name="dotaccent" unicode="&#x2d9;" horiz-adv-x="174" 
d="M267 562h-134l45 140h134z" />
    <glyph glyph-name="glyph333" horiz-adv-x="174" 
d="M15 -212h-134l44 136h134z" />
    <glyph glyph-name="hungarumlaut" unicode="&#x2dd;" horiz-adv-x="517" 
d="M249 553h-116l154 158h170zM451 553h-116l154 158h170z" />
    <glyph glyph-name="glyph335" horiz-adv-x="173" 
d="M-50 -191h-62l43 134h133l-43 -134l-103 -129h-72z" />
    <glyph glyph-name="ogonek" unicode="&#x2db;" horiz-adv-x="270" 
d="M180 0q-27 -9 -52 -18.5t-43.5 -20.5t-30 -24t-11.5 -29q0 -15 12.5 -24t33.5 -9q24 0 54 12l-27 -85q-20 -8 -40.5 -10t-39.5 -2q-24 0 -46 6t-38.5 17.5t-26 28.5t-9.5 40q0 20 9.5 37.5t26 32.5t38.5 27t47 21h143v0z" />
    <glyph glyph-name="ring" unicode="&#x2da;" horiz-adv-x="267" 
d="M260 521q-24 0 -44.5 8.5t-35.5 23.5t-24 35t-9 44t9 44t24 35t35.5 23.5t44.5 8.5t45 -8.5t36 -23.5t24 -35t9 -44t-9 -44t-24 -35t-36 -23.5t-45 -8.5zM261 574q23 0 39.5 16t16.5 42q0 27 -16.5 43t-39.5 16t-39.5 -16t-16.5 -43q0 -26 16.5 -42t39.5 -16z" />
    <glyph glyph-name="tilde" unicode="&#x2dc;" horiz-adv-x="406" 
d="M379 651q17 0 31 9t19 35h85q-8 -35 -22.5 -59t-32.5 -39t-38.5 -21.5t-40.5 -6.5q-25 0 -43 7t-33 15t-28 15t-28 7q-17 0 -31 -9t-19 -35h-85q8 34 22.5 58t32.5 39t38.5 22t40.5 7q25 0 43 -7t33 -15t28 -15t28 -7z" />
    <glyph glyph-name="glyph339" horiz-adv-x="200" 
d="M206 511h-90l95 200h130z" />
    <glyph glyph-name="glyph340" horiz-adv-x="315" 
d="M307 743h-116l154 141h167z" />
    <glyph glyph-name="glyph341" horiz-adv-x="379" 
d="M378 750q-40 0 -68 11t-45.5 29t-25 40t-5.5 44h97q-2 -23 10.5 -37.5t47.5 -14.5t55.5 14t31.5 38h97q-12 -27 -27.5 -49.5t-38.5 -39t-54.5 -26t-74.5 -9.5z" />
    <glyph glyph-name="glyph342" horiz-adv-x="428" 
d="M237 884h113l55 -61l107 61h113l-191 -141h-98z" />
    <glyph glyph-name="glyph343" horiz-adv-x="268" 
d="M22 -70q11 8 24.5 11.5t24.5 3.5q27 0 48 -17.5t21 -52.5q0 -51 -40.5 -81t-107.5 -30q-29 0 -53 6t-43 14l24 56q13 -7 31.5 -12.5t38.5 -5.5q23 0 43.5 10t20.5 33q0 29 -37 29q-10 0 -22 -2.5t-25 -8.5l-27 29l82 88h62l-66 -70h1z" />
    <glyph glyph-name="glyph344" horiz-adv-x="428" 
d="M579 743h-113l-55 61l-107 -61h-113l191 141h98z" />
    <glyph glyph-name="glyph345" horiz-adv-x="383" 
d="M237 884h129l-46 -141h-129zM451 884h129l-46 -141h-129z" />
    <glyph glyph-name="glyph346" horiz-adv-x="174" 
d="M325 743h-134l46 141h134z" />
    <glyph glyph-name="glyph347" horiz-adv-x="315" 
d="M237 884h154l75 -141h-116z" />
    <glyph glyph-name="glyph348" horiz-adv-x="517" 
d="M546 884h168l-205 -141h-116zM344 884h168l-205 -141h-116z" />
    <glyph glyph-name="glyph349" horiz-adv-x="350" 
d="M201 774l30 91h310l-30 -91h-310z" />
    <glyph glyph-name="glyph350" horiz-adv-x="270" 
d="M180 0q-27 -9 -52 -18.5t-43.5 -20.5t-30 -24t-11.5 -29q0 -15 12.5 -24t33.5 -9q24 0 54 12l-27 -85q-20 -6 -40.5 -9t-39.5 -3q-53 0 -89 23t-36 69q0 20 9.5 37.5t26 32.5t38.5 27t47 21h148v0z" />
    <glyph glyph-name="glyph351" horiz-adv-x="267" 
d="M335 775q23 0 39.5 16t16.5 42q0 27 -16.5 43t-39.5 16t-39.5 -16t-16.5 -43q0 -26 16.5 -42t39.5 -16zM334 722q-24 0 -44.5 8.5t-35.5 23.5t-24 35t-9 44t9 44t24 35t35.5 23.5t44.5 8.5t45 -8.5t36 -23.5t24 -35t9 -44t-9 -44t-24 -35t-36 -23.5t-45 -8.5z" />
    <glyph glyph-name="glyph352" horiz-adv-x="406" 
d="M465 838q17 0 31 9t19 35h85q-8 -35 -22.5 -59t-32.5 -39t-38.5 -21.5t-40.5 -6.5q-25 0 -43 7t-33 15t-28 15t-28 7q-17 0 -31 -9t-19 -35h-85q8 34 22.5 58t32.5 39t38.5 22t40.5 7q25 0 43 -7t33 -15t28 -15t28 -7z" />
    </font>
</defs>
</svg>
