<?xml version="1.0" standalone="no"?>
<!DOCTYPE svg PUBLIC "-//W3C//DTD SVG 1.1//EN" "http://www.w3.org/Graphics/SVG/1.1/DTD/svg11.dtd" >
<svg xmlns="http://www.w3.org/2000/svg" xmlns:xlink="http://www.w3.org/1999/xlink" version="1.1">
<metadata>
Created by Christoph Koeberlin (http://christoph.koe.berlin)
Copyright (c) 2017 Swiss Typefaces Sarl. All rights reserved.
</metadata>
<defs>
<font id="Font" horiz-adv-x="222" >
  <font-face 
    font-family="Font"
    font-weight="400"
    font-style="italic"
    font-stretch="normal"
    units-per-em="1000"
    panose-1="2 11 5 4 0 0 0 0 0 0"
    ascent="800"
    descent="-200"
    x-height="430"
    cap-height="692"
    bbox="-139 -264 1235 960"
    underline-thickness="62"
    underline-position="-151"
    slope="-18"
    unicode-range="U+0020-FB02"
  />
<missing-glyph horiz-adv-x="780" 
d="M188 725h500v-725h-500v725zM207 696v-667l220 333zM669 29v667l-221 -334zM221 19h433l-216 327zM438 378l216 328h-433z" />
    <glyph glyph-name=".notdef" horiz-adv-x="780" 
d="M188 725h500v-725h-500v725zM207 696v-667l220 333zM669 29v667l-221 -334zM221 19h433l-216 327zM438 378l216 328h-433z" />
    <glyph glyph-name="glyph1" horiz-adv-x="0" 
 />
    <glyph glyph-name="glyph2" horiz-adv-x="246" 
 />
    <glyph glyph-name="space" unicode=" " horiz-adv-x="246" 
 />
    <glyph glyph-name="exclam" unicode="!" horiz-adv-x="257" 
d="M109 218l68 278l64 196h83l-64 -196l-113 -278h-38zM39 110h110l-36 -110h-110z" />
    <glyph glyph-name="quotedbl" unicode="&#x22;" horiz-adv-x="355" 
d="M452 692l-101 -249h-48l61 249h88zM293 692l-101 -249h-48l61 249h88z" />
    <glyph glyph-name="numbersign" unicode="#" horiz-adv-x="676" 
d="M207 279l77 166h-136l32 68h135l83 179h71l-83 -179h149l83 179h70l-83 -179h128l-31 -68h-129l-76 -166h129l-32 -67h-128l-98 -212h-71l98 212h-149l-98 -212h-70l98 212h-135l32 67h134zM277 279h149l77 166h-149z" />
    <glyph glyph-name="dollar" unicode="$" horiz-adv-x="520" 
d="M445 694q60 -18 90 -65t29 -108h-82q-2 58 -34 87t-78 29q-26 0 -48.5 -8t-39.5 -22.5t-27 -35.5t-10 -47q0 -35 20 -66t48 -53l50 -39q42 -32 68.5 -77t26.5 -106q0 -41 -16 -76t-45.5 -61.5t-70 -41.5t-89.5 -16l-32 -99h-77l35 109q-37 10 -63 30.5t-43 46.5t-25 55
t-8 57h84q5 -69 40.5 -101t92.5 -32q65 0 101.5 36t36.5 90q0 38 -19 72.5t-57 63.5l-45 35q-42 32 -66.5 73.5t-24.5 93.5q0 35 14 68t40 58.5t64 41.5t86 17l36 109h77z" />
    <glyph glyph-name="percent" unicode="%" horiz-adv-x="944" 
d="M817 692h83l-687 -692h-83zM279 373q31 0 56 18.5t41.5 46t25.5 59.5t9 58q0 42 -21.5 63t-60.5 21q-32 0 -56.5 -18.5t-41 -46t-25.5 -59.5t-9 -58q0 -42 21.5 -63t60.5 -21zM269 309q-65 0 -104 41t-39 109q0 44 16 88t44.5 78.5t67.5 56t85 21.5q65 0 104 -41t39 -109
q0 -44 -16 -88t-44.5 -78.5t-67.5 -56t-85 -21.5zM699 52q31 0 56 18.5t41.5 46t25.5 59.5t9 58q0 42 -21.5 63t-60.5 21q-32 0 -56.5 -18.5t-41 -46t-25.5 -59.5t-9 -58q0 -42 21.5 -63t60.5 -21zM689 -12q-65 0 -104 41t-39 109q0 44 16 88t44.5 78.5t67.5 56t85 21.5
q65 0 104 -41t39 -109q0 -44 -16 -88t-44.5 -78.5t-67.5 -56t-85 -21.5z" />
    <glyph glyph-name="ampersand" unicode="&#x26;" horiz-adv-x="575" 
d="M413 112q-35 -54 -83 -89t-119 -35q-41 0 -73.5 14t-55 38t-35 55.5t-12.5 66.5q0 46 16.5 84.5t45 70.5t68 58t84.5 47q-11 25 -17.5 53t-6.5 60q0 34 13 64.5t37 53.5t58.5 36.5t78.5 13.5q34 0 64.5 -11.5t52 -32.5t32 -51t4.5 -66h-77q6 44 -18 69.5t-66 25.5
q-51 0 -77 -30.5t-26 -74.5q0 -35 12 -70.5t29 -66.5l180 -337l-30 -93zM229 54q45 0 89 23t76 70l-113 211l-6 11q-81 -41 -121.5 -88t-40.5 -111q0 -52 32 -84t84 -32z" />
    <glyph glyph-name="quotesingle" unicode="'" horiz-adv-x="196" 
d="M293 692l-101 -249h-48l61 249h88z" />
    <glyph glyph-name="parenleft" unicode="(" horiz-adv-x="287" 
d="M19 10q0 87 17.5 166.5t46.5 150t66 131t75.5 109.5t75.5 85.5t66 58.5h66q-59 -53 -119.5 -127.5t-110 -164.5t-81 -193t-31.5 -215q0 -79 10 -136.5t26 -104.5h-60q-17 40 -32 104t-15 136z" />
    <glyph glyph-name="parenright" unicode=")" horiz-adv-x="287" 
d="M284 471q0 -87 -17.5 -166.5t-46.5 -150t-66 -131t-75.5 -109.5t-75.5 -85.5t-66 -58.5h-66q59 53 119.5 127.5t110 164.5t81 193t31.5 215q0 79 -10 136.5t-26 104.5h60q17 -40 32 -104t15 -136z" />
    <glyph glyph-name="asterisk" unicode="*" horiz-adv-x="412" 
d="M200 465l65 89l-104 37l18 51l104 -39v108h56v-108l104 39l18 -51l-104 -37l65 -89l-49 -31l-62 91l-62 -91z" />
    <glyph glyph-name="plus" unicode="+" horiz-adv-x="530" 
d="M223 186h-184l21 62h184l59 182h63l-59 -182h185l-21 -62h-185l-60 -186h-63z" />
    <glyph glyph-name="comma" unicode="," horiz-adv-x="249" 
d="M58 0h-49l36 110h110l-36 -110l-118 -139h-61z" />
    <glyph glyph-name="hyphen" unicode="-" horiz-adv-x="369" 
d="M53 183l23 68h241l-23 -68h-241z" />
    <glyph glyph-name="period" unicode="." horiz-adv-x="240" 
d="M39 110h110l-36 -110h-110z" />
    <glyph glyph-name="slash" unicode="/" horiz-adv-x="431" 
d="M-29 0l501 711h82l-502 -711h-81z" />
    <glyph glyph-name="zero" unicode="0" horiz-adv-x="620" 
d="M275 -12q-41 0 -76.5 14.5t-61.5 43.5t-40.5 72.5t-14.5 102.5q0 46 10.5 99.5t30.5 107t49.5 103t68.5 88t86 61.5t103 23q41 0 76.5 -14.5t61.5 -43.5t40.5 -73t14.5 -102q0 -46 -10.5 -99.5t-30.5 -107t-49.5 -103t-68.5 -88t-86.5 -61.5t-102.5 -23zM282 54
q42 0 78 22t64.5 58t50.5 82t36.5 93.5t22 92.5t7.5 80q0 43 -9.5 72.5t-25.5 48t-37.5 26.5t-45.5 8q-42 0 -78 -22t-64.5 -58t-50.5 -82t-36.5 -93.5t-22 -92.5t-7.5 -80q0 -43 9.5 -72.5t25.5 -48t37.5 -26.5t45.5 -8z" />
    <glyph glyph-name="one" unicode="1" horiz-adv-x="318" 
d="M74 0l201 619h-105l24 73h182l-225 -692h-77z" />
    <glyph glyph-name="two" unicode="2" horiz-adv-x="556" 
d="M-23 0l5 15q21 65 67 123.5t133 114.5q31 19 66.5 37t71.5 35.5t70 35.5t61 38q42 31 61.5 64t19.5 73q0 19 -7.5 37t-22.5 32t-37 23t-51 9q-27 0 -55 -8t-52.5 -26.5t-44 -50.5t-28.5 -80h-80q9 46 27.5 87.5t50.5 73.5t78.5 51t109.5 19q45 0 80.5 -14t59.5 -36.5
t37 -51t13 -58.5q0 -56 -28.5 -101t-88.5 -90q-30 -22 -66 -42t-73.5 -39.5t-73 -37.5t-63.5 -35q-64 -41 -91 -72t-36 -52h358l-24 -74h-447z" />
    <glyph glyph-name="three" unicode="3" horiz-adv-x="580" 
d="M264 -12q-43 0 -83.5 14t-72 42t-49 68.5t-14.5 93.5h81q-1 -32 7.5 -60t26.5 -48.5t46 -32t67 -11.5q44 0 75 11.5t51 30.5t29 44.5t9 53.5q0 29 -13 53t-34.5 41t-50.5 26t-62 9h-13l24 75h10q50 0 89.5 10.5t67.5 28.5t42.5 43.5t14.5 55.5q0 25 -10 44t-26.5 32
t-38 19t-44.5 6q-72 0 -117.5 -45.5t-56.5 -119.5h-78q6 45 24.5 87t50 74t77 51t105.5 19q43 0 78.5 -12.5t61 -34t39 -50t13.5 -61.5q0 -39 -18 -73t-50.5 -59t-76.5 -39.5t-96 -15.5l-1 -2q32 -4 62 -17.5t53.5 -35t37.5 -50t14 -61.5q0 -44 -17 -81.5t-49.5 -64.5
t-79 -42.5t-105.5 -15.5z" />
    <glyph glyph-name="four" unicode="4" horiz-adv-x="576" 
d="M349 166h-340l22 69l495 457h70l-147 -453h94l-24 -73h-94l-54 -166h-76zM373 239l106 328l-354 -328h248z" />
    <glyph glyph-name="five" unicode="5" horiz-adv-x="564" 
d="M234 -12q-59 0 -98.5 21t-63 53.5t-31.5 70.5t-3 71h80q-2 -29 3 -56t19 -48t39 -33.5t64 -12.5q47 0 84.5 19.5t64 51t40.5 71.5t14 81q0 33 -9.5 56t-25 37.5t-35.5 21.5t-41 7q-26 0 -49 -6t-42.5 -16t-34.5 -23t-24 -26h-87l165 364h376l-24 -74h-307l-110 -235h2
q29 35 70 58.5t95 23.5q34 0 63 -13t50 -37t33 -58t12 -76q0 -54 -19.5 -106.5t-56.5 -94t-90.5 -67t-122.5 -25.5z" />
    <glyph glyph-name="six" unicode="6" horiz-adv-x="585" 
d="M269 -12q-92 0 -142.5 56.5t-50.5 155.5q0 54 12.5 112.5t35.5 114.5t56.5 106t74.5 88t90 60t103 22q43 0 76.5 -13.5t56 -37t34 -54.5t11.5 -67h-77q-1 30 -10 50.5t-23 32.5t-33 17.5t-41 5.5q-36 0 -74.5 -17.5t-75 -56.5t-69.5 -101t-57 -150h2q29 57 80 94t122 37
q43 0 74 -14.5t51.5 -39t30.5 -56.5t10 -67q0 -53 -19 -103t-53.5 -89t-84 -62.5t-110.5 -23.5zM277 54q43 0 76.5 18t56.5 46.5t35.5 63t12.5 67.5q0 66 -33.5 97.5t-85.5 31.5q-43 0 -77 -18t-57.5 -46.5t-36 -63t-12.5 -67.5q0 -66 34.5 -97.5t86.5 -31.5z" />
    <glyph glyph-name="seven" unicode="7" horiz-adv-x="520" 
d="M100 0q23 111 63 203.5t97.5 168.5t132 136.5t166.5 108.5v1h-413l24 74h481l-23 -69q-80 -52 -147.5 -106.5t-123 -125.5t-98 -165.5t-72.5 -225.5h-87v0z" />
    <glyph glyph-name="eight" unicode="8" horiz-adv-x="565" 
d="M261 -12q-51 0 -90 14.5t-64.5 39t-38.5 56.5t-13 67q0 44 16.5 79.5t44 61.5t63.5 41t75 18v2q-20 8 -36.5 23t-28.5 34.5t-18.5 42.5t-6.5 47q0 38 16 72.5t45.5 60.5t70 41t89.5 15q45 0 79.5 -13.5t58 -37t36 -54.5t12.5 -65q0 -39 -15 -71.5t-39.5 -56.5t-57 -38.5
t-67.5 -17.5v-2q49 -17 79 -58t30 -95q0 -42 -17.5 -79t-49 -65.5t-76 -45t-97.5 -16.5zM356 391q33 0 59 12t43.5 32t26.5 45.5t9 51.5q0 50 -33 77.5t-84 27.5q-33 0 -58.5 -12t-43 -31.5t-26.5 -45t-9 -51.5q0 -50 33 -78t83 -28zM265 54q31 0 59.5 10.5t50.5 31t35.5 49
t13.5 64.5q0 27 -10.5 48t-28.5 35.5t-42 22t-52 7.5q-31 0 -59.5 -10.5t-50.5 -31t-35 -49t-13 -64.5q0 -27 10 -48t28 -35.5t42 -22t52 -7.5z" />
    <glyph glyph-name="nine" unicode="9" horiz-adv-x="585" 
d="M401 703q92 0 142.5 -56.5t50.5 -155.5q0 -54 -12.5 -112.5t-35.5 -114.5t-56.5 -106t-74.5 -88t-90 -60t-103 -22q-43 0 -76.5 13.5t-56 37t-34 54.5t-11.5 67h77q1 -30 10 -50.5t23 -32.5t33 -17.5t41 -5.5q36 0 74.5 17.5t75 56.5t69.5 101t57 150h-2q-29 -57 -80 -94
t-122 -37q-43 0 -74 14.5t-51.5 39t-30.5 56.5t-10 67q0 53 19 103t53.5 89t84 62.5t110.5 23.5zM393 637q-43 0 -76.5 -18t-56.5 -46.5t-35.5 -63t-12.5 -67.5q0 -66 33.5 -97.5t85.5 -31.5q43 0 77 18t57.5 46.5t36 63t12.5 67.5q0 66 -34.5 97.5t-86.5 31.5z" />
    <glyph glyph-name="colon" unicode=":" horiz-adv-x="238" 
d="M134 430h110l-36 -110h-110zM30 110h110l-36 -110h-110z" />
    <glyph glyph-name="semicolon" unicode=";" horiz-adv-x="267" 
d="M62 0h-49l36 110h110l-36 -110l-118 -139h-61zM153 430h110l-36 -110h-110z" />
    <glyph glyph-name="equal" unicode="=" horiz-adv-x="530" 
d="M45 155h400l-20 -62h-400zM105 339h400l-20 -62h-400z" />
    <glyph glyph-name="question" unicode="?" horiz-adv-x="512" 
d="M385 703q43 0 77.5 -11.5t58 -32t36 -47.5t12.5 -58q0 -67 -40.5 -112.5t-131.5 -82.5q-29 -12 -47.5 -23.5t-30 -25t-19 -31t-14.5 -41.5l-6 -20h-77l5 17q10 33 20.5 59.5t28 48.5t44.5 40t69 34q65 24 93.5 55.5t28.5 73.5q0 43 -31 67t-84 24q-75 0 -119 -42
t-58 -108h-76q27 113 94.5 164.5t166.5 51.5zM163 110h110l-36 -110h-110z" />
    <glyph glyph-name="at" unicode="@" horiz-adv-x="830" 
d="M457 471q-30 0 -52.5 -13t-37.5 -34.5t-22 -48.5t-7 -55q0 -47 20.5 -75t65.5 -28q27 0 49 13.5t38.5 35.5t25.5 50t9 58q0 21 -7 38.5t-19.5 30.5t-28.5 20.5t-34 7.5zM652 215q46 0 77 39t31 108q0 59 -21.5 109.5t-59.5 88t-91 59t-116 21.5q-64 0 -118 -22.5
t-93 -62.5t-60.5 -93.5t-21.5 -116.5q0 -60 22 -113t62 -93.5t95.5 -64t123.5 -23.5q39 0 67 6.5t56 19.5l24 -59q-33 -16 -70.5 -23t-78.5 -7q-80 0 -147.5 28.5t-116 77t-75.5 113.5t-27 138q0 76 27 141.5t75 113.5t113.5 75.5t142.5 27.5q74 0 138.5 -25.5t112 -70.5
t75 -107.5t27.5 -137.5q0 -50 -14.5 -88t-38.5 -63.5t-55.5 -38.5t-65.5 -13q-56 0 -79.5 29t-26.5 72h-1q-17 -41 -51 -69.5t-86 -28.5q-26 0 -50.5 10t-44 30.5t-31 50t-11.5 68.5t13 76t36.5 66.5t56.5 47t73 17.5q42 0 69.5 -24.5t37.5 -57.5h1l8 67h64l-26 -194
q-8 -59 1.5 -81.5t47.5 -22.5z" />
    <glyph glyph-name="A" unicode="A" horiz-adv-x="646" 
d="M-64 0l528 692h86v-692h-77v208h-289l-158 -208h-90zM473 586l-234 -306h234v306z" />
    <glyph glyph-name="B" unicode="B" horiz-adv-x="619" 
d="M130 72h167q54 0 89.5 13.5t57.5 35.5t31 49t9 53q0 20 -7 38t-24.5 31.5t-46.5 21t-72 7.5h-123zM26 0l225 692h198q43 0 78 -10.5t59.5 -29.5t37.5 -45.5t13 -57.5q0 -45 -19 -79t-50 -58t-71 -38t-83 -18v-1q71 -11 111.5 -47.5t40.5 -90.5q0 -43 -16.5 -82.5
t-52 -69.5t-90.5 -47.5t-132 -17.5h-249zM234 390h124q50 0 87 12.5t62 32.5t37 46.5t12 54.5q0 41 -29 62.5t-95 21.5h-124z" />
    <glyph glyph-name="C" unicode="C" horiz-adv-x="730" 
d="M375 -12q-66 0 -119 21.5t-90 60.5t-57 93t-20 120q0 82 31 158t85.5 134.5t128.5 93t159 34.5q55 0 101.5 -16.5t81.5 -45t58 -67.5t31 -84h-95q-4 28 -18 53.5t-37.5 44.5t-55.5 30t-72 11q-66 0 -123.5 -29t-100 -77t-67 -110.5t-24.5 -129.5q0 -54 15.5 -95t43.5 -69
t66.5 -42.5t84.5 -14.5q37 0 72 10t65 28.5t53.5 44t38.5 56.5h95q-23 -48 -57.5 -87t-78 -67t-93.5 -43.5t-102 -15.5z" />
    <glyph glyph-name="D" unicode="D" horiz-adv-x="695" 
d="M251 692h152q141 0 218 -72.5t77 -200.5q0 -75 -32.5 -150t-95 -135t-152.5 -97t-204 -37h-188zM237 72q80 0 149 26.5t120 73t80 110.5t29 139q0 98 -57.5 148.5t-174.5 50.5h-75l-178 -548h107z" />
    <glyph glyph-name="E" unicode="E" horiz-adv-x="558" 
d="M251 692h412l-24 -72h-330l-74 -228h289l-23 -72h-289l-81 -248h330l-23 -72h-412z" />
    <glyph glyph-name="F" unicode="F" horiz-adv-x="556" 
d="M251 692h431l-24 -72h-349l-74 -228h297l-23 -72h-297l-104 -320h-82z" />
    <glyph glyph-name="G" unicode="G" horiz-adv-x="766" 
d="M595 105q-45 -60 -107 -88.5t-132 -28.5q-55 0 -103.5 20t-85 58.5t-57.5 93t-21 123.5q0 82 31 158t85.5 134.5t128 93t158.5 34.5q55 0 101.5 -16.5t81.5 -45t58 -67.5t31 -84h-95q-4 28 -18 53.5t-37.5 44.5t-55.5 30t-72 11q-66 0 -123.5 -29t-100 -77t-67 -110.5
t-24.5 -129.5q0 -54 16.5 -95.5t45 -70t68 -43t85.5 -14.5q42 0 81 10.5t70.5 30.5t55.5 49.5t36 68.5l21 65h-181l24 72h263l-116 -356h-78l34 105h-1v0z" />
    <glyph glyph-name="H" unicode="H" horiz-adv-x="735" 
d="M591 320h-379l-104 -320h-82l225 692h82l-98 -300h379l98 300h82l-225 -692h-82z" />
    <glyph glyph-name="I" unicode="I" horiz-adv-x="274" 
d="M108 0h-82l225 692h82z" />
    <glyph glyph-name="J" unicode="J" horiz-adv-x="507" 
d="M175 -12q-43 0 -78.5 16t-59 43.5t-33 65t0.5 80.5h80q-6 -35 -1 -60t19 -41t35 -23t47 -7q52 0 87.5 31.5t58.5 103.5l161 495h81l-162 -499q-15 -46 -36 -83.5t-49.5 -64.5t-65.5 -42t-85 -15z" />
    <glyph glyph-name="K" unicode="K" horiz-adv-x="596" 
d="M108 0h-82l225 692h82zM231 347v2l396 343h104l-405 -350l210 -342h-91z" />
    <glyph glyph-name="L" unicode="L" horiz-adv-x="506" 
d="M251 692h82l-202 -620h316l-23 -72h-398z" />
    <glyph glyph-name="M" unicode="M" horiz-adv-x="848" 
d="M433 113h-84l-71 410l-170 -523h-82l225 692h77l83 -497l407 497h89l-225 -692h-82l170 523z" />
    <glyph glyph-name="N" unicode="N" horiz-adv-x="714" 
d="M26 0l225 692h83l172 -571l185 571h82l-225 -692h-83l-172 571l-185 -571h-82z" />
    <glyph glyph-name="O" unicode="O" horiz-adv-x="804" 
d="M392 -12q-77 0 -133.5 24t-94.5 64.5t-56.5 95t-18.5 115.5q0 89 35 165t92 132t130 87.5t150 31.5q76 0 133 -24t95 -64.5t56.5 -95t18.5 -115.5q0 -89 -35 -165t-92 -132t-130 -87.5t-150 -31.5zM395 62q66 0 124.5 27t102 73.5t69 109t25.5 132.5q0 55 -16 97
t-45.5 70.5t-70.5 43t-91 14.5q-66 0 -124.5 -27t-102 -73.5t-69 -109t-25.5 -132.5q0 -55 16 -97t45.5 -70.5t70.5 -43t91 -14.5z" />
    <glyph glyph-name="P" unicode="P" horiz-adv-x="593" 
d="M191 260l-84 -260h-81l225 692h201q46 0 82.5 -13t62 -36.5t39 -56t13.5 -70.5q0 -58 -23 -105.5t-65 -81t-102 -51.5t-133 -18h-135zM353 332q53 0 93.5 14.5t68 39.5t41.5 57.5t14 67.5q0 52 -35.5 80.5t-107.5 28.5h-119l-93 -288h138z" />
    <glyph glyph-name="Q" unicode="Q" horiz-adv-x="804" 
d="M301 -46h372l-24 -73h-372zM392 -12q-77 0 -133.5 24t-94.5 64.5t-56.5 95t-18.5 115.5q0 89 35 165t92 132t130 87.5t150 31.5q76 0 133 -24t95 -64.5t56.5 -95t18.5 -115.5q0 -89 -35 -165t-92 -132t-130 -87.5t-150 -31.5zM395 62q66 0 124.5 27t102 73.5t69 109
t25.5 132.5q0 55 -16 97t-45.5 70.5t-70.5 43t-91 14.5q-66 0 -124.5 -27t-102 -73.5t-69 -109t-25.5 -132.5q0 -55 16 -97t45.5 -70.5t70.5 -43t91 -14.5z" />
    <glyph glyph-name="R" unicode="R" horiz-adv-x="613" 
d="M301 318h-91l-103 -318h-81l225 692h189q101 0 152 -42.5t51 -110.5q0 -44 -18 -82t-51.5 -67t-81 -47.5t-106.5 -23.5l136 -319h-86zM372 390q49 0 85 12t59.5 32t34.5 45.5t11 53.5q0 45 -28.5 66t-87.5 21h-138l-74 -230h138z" />
    <glyph glyph-name="S" unicode="S" horiz-adv-x="516" 
d="M232 -12q-56 0 -96 18.5t-65 47.5t-37 64.5t-12 68.5h86q5 -65 39.5 -96t91.5 -31q32 0 57 9.5t42.5 26t26.5 38t9 46.5q0 38 -17.5 71.5t-55.5 62.5l-45 35q-42 32 -66.5 74.5t-24.5 94.5q0 36 14.5 69.5t41.5 59t66.5 41t89.5 15.5q46 0 81 -14t58 -38.5t35 -58
t11 -71.5h-84q-2 54 -33 82t-77 28q-26 0 -48 -7.5t-38.5 -22t-26 -34t-9.5 -43.5q0 -35 18.5 -65.5t46.5 -52.5l50 -39q42 -32 68.5 -77.5t26.5 -106.5q0 -41 -16.5 -76.5t-46 -62t-70.5 -41.5t-91 -15z" />
    <glyph glyph-name="T" unicode="T" horiz-adv-x="548" 
d="M666 620h-221l-201 -620h-82l201 620h-221l24 72h524z" />
    <glyph glyph-name="U" unicode="U" horiz-adv-x="711" 
d="M320 62q94 0 151.5 56.5t91.5 160.5l134 413h82l-139 -427q-22 -68 -51.5 -119.5t-68.5 -86.5t-89 -53t-113 -18q-64 0 -113.5 19.5t-78 58.5t-33.5 96t19 132l129 398h82l-134 -413q-34 -104 1.5 -160.5t129.5 -56.5z" />
    <glyph glyph-name="V" unicode="V" horiz-adv-x="646" 
d="M181 0v692h77v-586l447 586h90l-528 -692h-86z" />
    <glyph glyph-name="W" unicode="W" horiz-adv-x="860" 
d="M183 692h83l-57 -558l318 515h80l-16 -515l305 558h91l-391 -692h-82l16 523l-324 -523h-82z" />
    <glyph glyph-name="X" unicode="X" horiz-adv-x="609" 
d="M395 352l139 -352h-83l-116 294l-300 -294h-98l371 363l-129 329h83l106 -270l276 270h98z" />
    <glyph glyph-name="Y" unicode="Y" horiz-adv-x="594" 
d="M638 692h97l-383 -432l-84 -260h-81l84 260l-101 432h81l80 -347z" />
    <glyph glyph-name="Z" unicode="Z" horiz-adv-x="564" 
d="M534 620h-349l24 72h491l-594 -620h376l-23 -72h-518z" />
    <glyph glyph-name="bracketleft" unicode="[" horiz-adv-x="307" 
d="M450 711l-20 -63h-130l-265 -815h130l-21 -63h-199l306 941h199z" />
    <glyph glyph-name="bracketright" unicode="]" horiz-adv-x="308" 
d="M-126 -230l20 63h130l265 815h-130l21 63h199l-306 -941h-199z" />
    <glyph glyph-name="underscore" unicode="_" horiz-adv-x="488" 
d="M-25 -62l20 62h369l-20 -62h-369z" />
    <glyph glyph-name="grave" unicode="`" horiz-adv-x="232" 
d="M124 711l131 -157h-72l-181 157h122z" />
    <glyph glyph-name="a" unicode="a" horiz-adv-x="525" 
d="M175 -9q-26 0 -51 11t-44 32.5t-30.5 54t-11.5 74.5q0 56 19.5 106.5t52.5 89t76.5 61t91.5 22.5q55 0 87 -30.5t48 -78.5h1l31 97h77l-140 -430h-73l29 85h-1q-9 -14 -24 -30.5t-35.5 -30.5t-46 -23.5t-56.5 -9.5zM216 53q40 0 71.5 20t54 50t34.5 66t12 68
q0 61 -28.5 89.5t-73.5 28.5q-39 0 -70.5 -20t-53.5 -50t-34 -66t-12 -68q0 -61 27.5 -89.5t72.5 -28.5z" />
    <glyph glyph-name="b" unicode="b" horiz-adv-x="526" 
d="M246 -12q-57 0 -88.5 30.5t-47.5 78.5h-1l-31 -97h-76l230 711h77l-115 -354h1q9 12 24 26t34.5 26.5t43 20.5t51.5 8q27 0 52 -10.5t44.5 -32t31.5 -53.5t12 -75q0 -56 -20 -106.5t-53 -89t-77 -61t-92 -22.5zM237 55q40 0 72 20t54.5 50t34.5 66t12 68q0 61 -28.5 89.5
t-73.5 28.5q-40 0 -72.5 -20t-55 -50t-34.5 -66t-12 -68q0 -61 29 -89.5t74 -28.5z" />
    <glyph glyph-name="c" unicode="c" horiz-adv-x="491" 
d="M218 -12q-40 0 -73 14t-56 39t-36 60t-13 76q0 51 19 99.5t52.5 85.5t79 59.5t98.5 22.5q39 0 71 -13t55 -35t36.5 -51.5t16.5 -63.5h-76q-5 45 -33.5 71t-73.5 26q-39 0 -69.5 -18.5t-52.5 -47.5t-33.5 -64.5t-11.5 -69.5q0 -32 9.5 -55t25.5 -38.5t36.5 -23t41.5 -7.5
q54 0 87 27.5t50 69.5h76q-12 -35 -33 -64.5t-50.5 -51.5t-65.5 -34.5t-77 -12.5z" />
    <glyph glyph-name="d" unicode="d" horiz-adv-x="527" 
d="M176 -9q-27 0 -51.5 11t-44 32.5t-31 54t-11.5 74.5q0 56 20 106.5t53 89t77 61t92 22.5q57 0 88.5 -30.5t47.5 -78.5h1l122 378h77l-231 -711h-73l29 85h-1q-9 -14 -24 -30.5t-36 -30.5t-47 -23.5t-57 -9.5zM218 53q40 0 72.5 20t55 50t34.5 66t12 68q0 61 -29 89.5
t-74 28.5q-40 0 -72 -20t-54.5 -50t-34.5 -66t-12 -68q0 -61 28.5 -89.5t73.5 -28.5z" />
    <glyph glyph-name="e" unicode="e" horiz-adv-x="506" 
d="M217 -12q-40 0 -72.5 14t-56 39t-36 60t-12.5 76q0 51 18.5 99t51.5 85.5t79 60t101 22.5q52 0 89 -22t58.5 -57t28 -79t-1.5 -87h-345q-4 -37 4 -64t23.5 -45t37 -27t45.5 -9q42 0 78 17.5t53 50.5h81q-14 -33 -37 -58.5t-53 -42t-64 -25t-70 -8.5zM281 380
q-23 0 -45.5 -7.5t-43 -23t-37 -38t-25.5 -52.5h265q2 25 -4.5 47t-21 38.5t-36.5 26t-52 9.5z" />
    <glyph glyph-name="f" unicode="f" horiz-adv-x="305" 
d="M168 366h-106l21 64h106l30 92q18 55 39 91.5t48 58.5t62.5 30.5t82.5 8.5h29l-22 -69h-24q-53 0 -86 -29.5t-57 -104.5l-25 -78h93l-21 -64h-93l-119 -366h-77z" />
    <glyph glyph-name="g" unicode="g" horiz-adv-x="515" 
d="M425 375q14 -20 22 -45.5t8 -55.5q0 -34 -12 -67t-33.5 -60.5t-51 -48.5t-64.5 -31q45 -18 72.5 -57.5t27.5 -87.5q0 -33 -15.5 -63t-43.5 -52.5t-67 -36t-86 -13.5t-88 15t-70.5 45t-44 75.5t-8.5 107.5h79q-6 -55 4.5 -89.5t31 -54t47.5 -26.5t54 -7q62 0 98.5 32.5
t36.5 82.5q0 24 -9 45t-24 37t-35.5 26t-43.5 13q-32 3 -59 16.5t-47 35t-31.5 51.5t-11.5 66q0 41 17.5 80t47.5 69t70.5 48.5t87.5 18.5q39 0 73 -14h216l-55 -55h-93zM238 122q33 0 59 14.5t44 37t28 49.5t10 53q0 50 -28 77t-73 27q-33 0 -59 -14.5t-44 -37t-28 -49.5
t-10 -53q0 -50 28 -77t73 -27z" />
    <glyph glyph-name="h" unicode="h" horiz-adv-x="508" 
d="M233 711h77l-119 -367h1q35 54 75.5 75.5t81.5 21.5q29 0 55 -11.5t42 -34.5t19.5 -58.5t-12.5 -83.5l-82 -253h-77l87 267q18 56 -1.5 82t-61.5 26q-56 0 -101 -44t-72 -127l-66 -204h-77z" />
    <glyph glyph-name="i" unicode="i" 
d="M79 0h-77l140 430h77zM261 561h-77l36 110h77z" />
    <glyph glyph-name="j" unicode="j" 
d="M-76 -242l218 672h77l-193 -595l-101 -77h-1zM261 561h-77l36 110h77z" />
    <glyph glyph-name="k" unicode="k" horiz-adv-x="456" 
d="M79 0h-77l231 711h77zM420 430h95l-260 -206l125 -224h-90l-126 226v1z" />
    <glyph glyph-name="l" unicode="l" 
d="M79 0h-77l231 711h77z" />
    <glyph glyph-name="m" unicode="m" horiz-adv-x="790" 
d="M142 430h77l-28 -86h1q35 54 74.5 75.5t80.5 21.5q23 0 44 -7t36 -21t24 -35.5t8 -50.5q35 54 80 84t95 30q29 0 54.5 -11.5t41 -34.5t18.5 -58.5t-13 -83.5l-82 -253h-77l87 267q18 56 0 82t-60 26q-56 0 -100 -44t-71 -127l-66 -204h-77l87 267q18 56 0 82t-60 26
q-56 0 -100 -44t-71 -127l-66 -204h-77z" />
    <glyph glyph-name="n" unicode="n" horiz-adv-x="508" 
d="M192 344q35 54 75.5 75.5t81.5 21.5q29 0 55 -11.5t42 -34.5t19.5 -58.5t-12.5 -83.5l-82 -253h-77l87 267q18 56 -1.5 82t-61.5 26q-56 0 -101 -44t-72 -127l-66 -204h-77l140 430h77l-28 -86h1v0z" />
    <glyph glyph-name="o" unicode="o" horiz-adv-x="530" 
d="M234 -12q-45 0 -81 14.5t-61.5 40t-39 61t-13.5 76.5q0 51 19.5 98.5t53.5 84.5t81 59t103 22q45 0 81 -14.5t61.5 -40t39 -61t13.5 -76.5q0 -51 -19.5 -98.5t-53.5 -84.5t-81.5 -59t-102.5 -22zM239 54q41 0 73 18t54.5 46.5t34.5 63.5t12 69q0 63 -34.5 95t-87.5 32
q-41 0 -73 -18t-54.5 -46.5t-34.5 -63.5t-12 -69q0 -63 34.5 -95t87.5 -32z" />
    <glyph glyph-name="p" unicode="p" horiz-adv-x="527" 
d="M142 430h73l-29 -85h1q7 11 21.5 27t35 30.5t47.5 25t59 10.5q26 0 51 -10.5t44.5 -32t31.5 -53.5t12 -75q0 -56 -20 -106.5t-53 -89t-77 -61t-92 -22.5q-57 0 -88.5 30.5t-47.5 78.5h-1l-105 -327h-77zM238 55q40 0 72 20t54.5 50t34.5 66t12 68q0 61 -28.5 89.5
t-73.5 28.5q-40 0 -72.5 -20t-55 -50t-34.5 -66t-12 -68q0 -61 29 -89.5t74 -28.5z" />
    <glyph glyph-name="q" unicode="q" horiz-adv-x="528" 
d="M332 73h-1q-9 -12 -24 -26.5t-34.5 -26.5t-43 -20.5t-51.5 -8.5q-27 0 -52.5 10.5t-45 32t-31 54t-11.5 75.5q0 56 20 106.5t53 89t77 61t92 22.5q57 0 88.5 -30.5t47.5 -78.5h1l31 97h76l-213 -660h-77zM218 53q40 0 72.5 20t55 50t34.5 66t12 68q0 61 -29 89.5
t-74 28.5q-40 0 -72 -20t-54.5 -50t-34.5 -66t-12 -68q0 -61 28.5 -89.5t73.5 -28.5z" />
    <glyph glyph-name="r" unicode="r" horiz-adv-x="329" 
d="M187 329q38 62 84 85t110 23h6l-26 -78h-26q-28 0 -55.5 -7t-52 -24t-45.5 -46.5t-36 -75.5l-67 -206h-77l140 430h77l-33 -101h1v0z" />
    <glyph glyph-name="s" unicode="s" horiz-adv-x="381" 
d="M146 -12q-36 0 -63 11.5t-45 31t-27 44t-9 50.5h73q1 -21 8.5 -35t18.5 -23t25 -13t28 -4q38 0 60.5 18.5t22.5 44.5q0 38 -47 69l-41 27q-31 20 -49 49t-18 63q0 23 10 45t29.5 39t47.5 27.5t64 10.5q66 0 99 -35.5t33 -91.5h-73q-3 34 -21 48.5t-46 14.5
q-34 0 -51 -16.5t-17 -39.5q0 -21 12 -36t29 -26l41 -27q32 -21 52 -48t20 -62q0 -29 -11.5 -53.5t-33 -43t-52 -29t-69.5 -10.5z" />
    <glyph glyph-name="t" unicode="t" horiz-adv-x="330" 
d="M266 430h122l-21 -64h-122l-119 -366h-77l119 366h-105l21 64h105l37 116l101 76h1z" />
    <glyph glyph-name="u" unicode="u" horiz-adv-x="498" 
d="M305 86q-35 -54 -73 -76t-79 -22q-29 0 -54 11.5t-40.5 35t-18 59t13.5 83.5l82 253h77l-87 -267q-18 -56 0 -82.5t60 -26.5q56 0 97.5 45t68.5 128l66 203h77l-140 -430h-77l28 86h-1v0z" />
    <glyph glyph-name="v" unicode="v" horiz-adv-x="437" 
d="M84 430h73l13 -336l245 336h83l-314 -430h-78z" />
    <glyph glyph-name="w" unicode="w" horiz-adv-x="653" 
d="M92 430h74l-16 -326l198 294h68l-4 -294l208 326h80l-277 -430h-72l7 313l-209 -313h-72z" />
    <glyph glyph-name="x" unicode="x" horiz-adv-x="458" 
d="M272 217l106 -217h-79l-81 168l-186 -168h-91l249 224l-99 206h78l76 -157l173 157h90z" />
    <glyph glyph-name="y" unicode="y" horiz-adv-x="468" 
d="M123 0l-43 430h75l31 -338l263 338h83l-333 -430l-85 -230h-76z" />
    <glyph glyph-name="z" unicode="z" horiz-adv-x="428" 
d="M-52 0l369 366h-222l21 64h355l-369 -366h242l-21 -64h-375z" />
    <glyph glyph-name="braceleft" unicode="{" horiz-adv-x="329" 
d="M142 -230q-80 0 -111.5 47.5t-2.5 138.5l57 176q6 18 7.5 36.5t-3.5 34t-19 26.5t-38 14l14 41q27 1 46.5 9t34 21t23.5 30t15 35l48 146q20 62 42 98.5t48 56t57.5 25.5t72.5 6h39l-20 -63h-34q-28 0 -48.5 -5t-36 -19t-28.5 -39.5t-26 -66.5l-40 -125q-10 -31 -21 -54
t-26 -39.5t-34 -27t-44 -15.5l-1 -3q35 -16 42.5 -53.5t-6.5 -82.5l-50 -155q-12 -36 -15.5 -61t3.5 -40t24.5 -22t48.5 -7h27l-21 -63h-24v0z" />
    <glyph glyph-name="bar" unicode="|" horiz-adv-x="333" 
d="M140 -230v941h69v-941h-69z" />
    <glyph glyph-name="braceright" unicode="}" horiz-adv-x="329" 
d="M203 711q80 0 111.5 -47.5t2.5 -138.5l-57 -176q-6 -18 -7.5 -36.5t3.5 -34t19 -26.5t38 -14l-14 -41q-27 -1 -46.5 -9t-34 -21t-23.5 -30t-15 -35l-48 -146q-20 -62 -42 -98.5t-48 -56t-57.5 -25.5t-72.5 -6h-39l20 63h34q28 0 48.5 5t36 19t28.5 39.5t26 66.5l40 125
q10 31 21 54t26 39.5t34 27t44 15.5l1 3q-35 16 -42.5 53.5t6.5 82.5l50 155q12 36 15.5 61t-3.5 40t-24.5 22t-48.5 7h-27l21 63h24v0z" />
    <glyph glyph-name="uni00A0" unicode="&#xa0;" horiz-adv-x="246" 
 />
    <glyph glyph-name="exclamdown" unicode="&#xa1;" horiz-adv-x="231" 
d="M-72 -230l54 164l113 278h38l-68 -278l-54 -164h-83zM130 430h110l-36 -110h-110z" />
    <glyph glyph-name="sterling" unicode="&#xa3;" horiz-adv-x="549" 
d="M405 637q-28 0 -54 -7.5t-45.5 -22.5t-31.5 -38.5t-12 -55.5q0 -35 12 -73t23 -76h152l-19 -60h-122q1 -5 1 -13q0 -37 -21 -69.5t-51 -60t-62.5 -49t-55.5 -36.5v-2h331l-24 -74h-455l1 3q56 37 103 72.5t81.5 71t54 71t19.5 71.5q0 10 -1 15h-138l19 60h108
q-11 36 -22.5 71t-11.5 74q0 43 16.5 79t46.5 61.5t73 39.5t96 14q55 0 95 -17.5t63.5 -48t29.5 -71t-7 -86.5h-78q12 40 8 69.5t-20.5 49t-43 29t-58.5 9.5z" />
    <glyph glyph-name="yen" unicode="&#xa5;" horiz-adv-x="624" 
d="M362 260l-20 -62h156l-19 -60h-157l-44 -138h-77l44 138h-155l19 60h156l20 62h-156l20 60h122l-87 372h76l80 -356l311 356h94l-330 -372h123l-20 -60h-156z" />
    <glyph glyph-name="dieresis" unicode="&#xa8;" horiz-adv-x="348" 
d="M460 687l-36 -110h-77l36 110h77zM223 577h-77l36 110h77z" />
    <glyph glyph-name="copyright" unicode="&#xa9;" horiz-adv-x="837" 
d="M461 -12q-75 0 -140 28t-113 77t-76 114t-28 139t28 139t76 113.5t113 76.5t140 28t140 -28t113 -76.5t76 -113.5t28 -139t-28 -139t-76 -114t-113 -77t-140 -28zM461 49q61 0 114 23t92 63t61.5 94.5t22.5 116.5t-22.5 116.5t-61.5 94.5t-92 63t-114 23t-114 -23
t-92 -63t-61.5 -94.5t-22.5 -116.5t22.5 -116.5t61.5 -94.5t92 -63t114 -23zM465 164q-38 0 -72 13.5t-60 38.5t-41 59t-15 75q0 40 15 74t41 59t60 38.5t72 13.5q64 0 110 -33t63 -90h-72q-13 31 -38 48t-63 17q-24 0 -46.5 -9.5t-39 -26t-26.5 -40t-10 -51.5t9.5 -51.5
t26 -40.5t39 -26.5t47.5 -9.5q39 0 64 17.5t37 47.5h72q-17 -56 -63.5 -89.5t-109.5 -33.5z" />
    <glyph glyph-name="guillemotleft" unicode="&#xab;" horiz-adv-x="465" 
d="M300 212l51 -176h-80l-53 182l171 182h88zM127 212l51 -176h-80l-53 182l171 182h88z" />
    <glyph glyph-name="uni00AD" unicode="&#xad;" horiz-adv-x="369" 
d="M53 183l23 68h241l-23 -68h-241z" />
    <glyph glyph-name="macron" unicode="&#xaf;" horiz-adv-x="300" 
d="M127 599l21 67h260l-21 -67h-260z" />
    <glyph glyph-name="degree" unicode="&#xb0;" horiz-adv-x="417" 
d="M152 566q0 34 13 64t35.5 52t52.5 35t64 13t64 -13t52.5 -35t35.5 -52t13 -64t-13 -64t-35.5 -52t-52.5 -35t-64 -13t-64 13t-52.5 35t-35.5 52t-13 64zM212 566q0 -21 7.5 -40.5t21.5 -34t33.5 -23.5t42.5 -9q49 0 77 31t28 76q0 47 -30 77t-75 30q-20 0 -39 -7.5
t-33.5 -21.5t-23.5 -34t-9 -44z" />
    <glyph glyph-name="acute" unicode="&#xb4;" horiz-adv-x="232" 
d="M220 554h-72l131 157h122z" />
    <glyph glyph-name="periodcentered" unicode="&#xb7;" horiz-adv-x="239" 
d="M86 283h110l-36 -110h-110z" />
    <glyph glyph-name="cedilla" unicode="&#xb8;" horiz-adv-x="268" 
d="M12 -81q21 12 47 12t45.5 -15.5t19.5 -50.5q0 -21 -10.5 -40t-29 -33.5t-45 -23t-59.5 -8.5q-22 0 -45 5t-41 14l23 42q14 -8 29.5 -12.5t35.5 -4.5q38 0 56 16.5t18 36.5q0 16 -10.5 26.5t-30.5 10.5t-45 -11l-20 21l90 96h47l-76 -81h1z" />
    <glyph glyph-name="guillemotright" unicode="&#xbb;" horiz-adv-x="464" 
d="M165.99 223.986l-50.9971 175.989h79.9951l52.9961 -181.989l-170.989 -181.988h-87.9941zM338.979 223.986l-50.9971 175.989h79.9951l52.9971 -181.989l-170.99 -181.988h-87.9941z" />
    <glyph glyph-name="questiondown" unicode="&#xbf;" horiz-adv-x="500" 
d="M129 -242q-44 0 -78 11.5t-57.5 32t-36 47.5t-12.5 58q0 33 9.5 61t30.5 51.5t53.5 43.5t78.5 39q29 12 47.5 23.5t30 25t19 31t14.5 41.5l6 20h77l-5 -17q-10 -33 -20.5 -59.5t-28 -48.5t-44.5 -40t-69 -34q-65 -24 -93.5 -55.5t-28.5 -73.5q0 -43 31 -67t84 -24
q75 0 119 42t58 108h76q-27 -113 -94.5 -164.5t-166.5 -51.5zM275 430h110l-36 -110h-110z" />
    <glyph glyph-name="Agrave" unicode="&#xc0;" horiz-adv-x="646" 
d="M-64 0l528 692h86v-692h-77v208h-289l-158 -208h-90zM473 586l-234 -306h234v306zM362 864h100l85 -121h-72z" />
    <glyph glyph-name="Aacute" unicode="&#xc1;" horiz-adv-x="646" 
d="M-64 0l528 692h86v-692h-77v208h-289l-158 -208h-90zM473 586l-234 -306h234v306zM555 743h-72l133 121h117z" />
    <glyph glyph-name="Acircumflex" unicode="&#xc2;" horiz-adv-x="646" 
d="M-64 0l528 692h86v-692h-77v208h-289l-158 -208h-90zM473 586l-234 -306h234v306zM672 743h-70l-65 64l-115 -64h-78l167 121h74z" />
    <glyph glyph-name="Atilde" unicode="&#xc3;" horiz-adv-x="646" 
d="M-64 0l528 692h86v-692h-77v208h-289l-158 -208h-90zM473 586l-234 -306h234v306zM583 817q18 0 30.5 9t17.5 31h66q-11 -51 -42 -76t-73 -25q-20 0 -36 6t-30 13.5t-26.5 14t-25.5 6.5q-18 0 -30.5 -9t-17.5 -31h-66q11 51 42 76t73 25q19 0 35 -6.5t30 -14t26.5 -13.5
t26.5 -6z" />
    <glyph glyph-name="Adieresis" unicode="&#xc4;" horiz-adv-x="646" 
d="M-64 0l528 692h86v-692h-77v208h-289l-158 -208h-90zM473 586l-234 -306h234v306zM410 853h77l-36 -110h-77zM611 853h77l-36 -110h-77z" />
    <glyph glyph-name="Aring" unicode="&#xc5;" horiz-adv-x="646" 
d="M-64 0l528 692h86v-692h-77v208h-289l-158 -208h-90zM473 586l-234 -306h234v306zM525 782q29 0 48.5 19.5t19.5 48.5q0 28 -19.5 47.5t-48.5 19.5q-28 0 -47.5 -19.5t-19.5 -47.5q0 -29 19.5 -48.5t47.5 -19.5zM525 739q-23 0 -43 9t-35 24t-23.5 35t-8.5 43
q0 22 8.5 42t23.5 35t35 24t43 9t43 -9t35 -24t24 -35t9 -42q0 -23 -9 -43t-24 -35t-35 -24t-43 -9z" />
    <glyph glyph-name="AE" unicode="&#xc6;" horiz-adv-x="918" 
d="M453 208h-266l-171 -208h-90l569 692h90l-339 -412h231l134 412h412l-24 -72h-330l-74 -228h289l-23 -72h-289l-81 -248h330l-23 -72h-412z" />
    <glyph glyph-name="Ccedilla" unicode="&#xc7;" horiz-adv-x="730" 
d="M375 -12q-66 0 -119 21.5t-90 60.5t-57 93t-20 120q0 82 31 158t85.5 134.5t128.5 93t159 34.5q55 0 101.5 -16.5t81.5 -45t58 -67.5t31 -84h-95q-4 28 -18 53.5t-37.5 44.5t-55.5 30t-72 11q-66 0 -123.5 -29t-100 -77t-67 -110.5t-24.5 -129.5q0 -54 15.5 -95t43.5 -69
t66.5 -42.5t84.5 -14.5q37 0 72 10t65 28.5t53.5 44t38.5 56.5h95q-23 -48 -57.5 -87t-78 -67t-93.5 -43.5t-102 -15.5zM275 -81q21 12 47 12t45.5 -15.5t19.5 -50.5q0 -21 -10.5 -40t-29 -33.5t-45 -23t-59.5 -8.5q-22 0 -45 5t-41 14l23 42q14 -8 29.5 -12.5t35.5 -4.5
q38 0 56 16.5t18 36.5q0 16 -10.5 26.5t-30.5 10.5t-45 -11l-20 21l90 96h47l-76 -81h1z" />
    <glyph glyph-name="Egrave" unicode="&#xc8;" horiz-adv-x="558" 
d="M251 692h412l-24 -72h-330l-74 -228h289l-23 -72h-289l-81 -248h330l-23 -72h-412zM329 864h100l85 -121h-72z" />
    <glyph glyph-name="Eacute" unicode="&#xc9;" horiz-adv-x="558" 
d="M251 692h412l-24 -72h-330l-74 -228h289l-23 -72h-289l-81 -248h330l-23 -72h-412zM487 743h-72l133 121h117z" />
    <glyph glyph-name="Ecircumflex" unicode="&#xca;" horiz-adv-x="558" 
d="M251 692h412l-24 -72h-330l-74 -228h289l-23 -72h-289l-81 -248h330l-23 -72h-412zM637 743h-70l-65 64l-115 -64h-78l167 121h74z" />
    <glyph glyph-name="Edieresis" unicode="&#xcb;" horiz-adv-x="558" 
d="M251 692h412l-24 -72h-330l-74 -228h289l-23 -72h-289l-81 -248h330l-23 -72h-412zM360 853h77l-36 -110h-77zM561 853h77l-36 -110h-77z" />
    <glyph glyph-name="Igrave" unicode="&#xcc;" horiz-adv-x="274" 
d="M108 0h-82l225 692h82zM147 864h100l85 -121h-72z" />
    <glyph glyph-name="Iacute" unicode="&#xcd;" horiz-adv-x="274" 
d="M108 0h-82l225 692h82zM349 743h-72l133 121h117z" />
    <glyph glyph-name="Icircumflex" unicode="&#xce;" horiz-adv-x="274" 
d="M108 0h-82l225 692h82zM473 743h-70l-65 64l-115 -64h-78l167 121h74z" />
    <glyph glyph-name="Idieresis" unicode="&#xcf;" horiz-adv-x="274" 
d="M108 0h-82l225 692h82zM196 853h77l-36 -110h-77zM397 853h77l-36 -110h-77z" />
    <glyph glyph-name="Eth" unicode="&#xd0;" horiz-adv-x="702" 
d="M137 320h-80l24 72h79l98 300h152q141 0 218 -72.5t77 -200.5q0 -75 -32.5 -150t-95 -135t-152.5 -97t-204 -37h-188zM244 72q80 0 149 26.5t120 73t80 110.5t29 139q0 98 -57.5 148.5t-174.5 50.5h-75l-74 -228h163l-24 -72h-163l-80 -248h107z" />
    <glyph glyph-name="Ntilde" unicode="&#xd1;" horiz-adv-x="714" 
d="M26 0l225 692h83l172 -571l185 571h82l-225 -692h-83l-172 571l-185 -571h-82zM610 817q18 0 30.5 9t17.5 31h66q-11 -51 -42 -76t-73 -25q-20 0 -36 6t-30 13.5t-26.5 14t-25.5 6.5q-18 0 -30.5 -9t-17.5 -31h-66q11 51 42 76t73 25q19 0 35 -6.5t30 -14t26.5 -13.5
t26.5 -6z" />
    <glyph glyph-name="Ograve" unicode="&#xd2;" horiz-adv-x="804" 
d="M392 -12q-77 0 -133.5 24t-94.5 64.5t-56.5 95t-18.5 115.5q0 89 35 165t92 132t130 87.5t150 31.5q76 0 133 -24t95 -64.5t56.5 -95t18.5 -115.5q0 -89 -35 -165t-92 -132t-130 -87.5t-150 -31.5zM395 62q66 0 124.5 27t102 73.5t69 109t25.5 132.5q0 55 -16 97
t-45.5 70.5t-70.5 43t-91 14.5q-66 0 -124.5 -27t-102 -73.5t-69 -109t-25.5 -132.5q0 -55 16 -97t45.5 -70.5t70.5 -43t91 -14.5zM405 864h100l85 -121h-72z" />
    <glyph glyph-name="Oacute" unicode="&#xd3;" horiz-adv-x="804" 
d="M392 -12q-77 0 -133.5 24t-94.5 64.5t-56.5 95t-18.5 115.5q0 89 35 165t92 132t130 87.5t150 31.5q76 0 133 -24t95 -64.5t56.5 -95t18.5 -115.5q0 -89 -35 -165t-92 -132t-130 -87.5t-150 -31.5zM395 62q66 0 124.5 27t102 73.5t69 109t25.5 132.5q0 55 -16 97
t-45.5 70.5t-70.5 43t-91 14.5q-66 0 -124.5 -27t-102 -73.5t-69 -109t-25.5 -132.5q0 -55 16 -97t45.5 -70.5t70.5 -43t91 -14.5zM598 743h-72l133 121h117z" />
    <glyph glyph-name="Ocircumflex" unicode="&#xd4;" horiz-adv-x="804" 
d="M392 -12q-77 0 -133.5 24t-94.5 64.5t-56.5 95t-18.5 115.5q0 89 35 165t92 132t130 87.5t150 31.5q76 0 133 -24t95 -64.5t56.5 -95t18.5 -115.5q0 -89 -35 -165t-92 -132t-130 -87.5t-150 -31.5zM395 62q66 0 124.5 27t102 73.5t69 109t25.5 132.5q0 55 -16 97
t-45.5 70.5t-70.5 43t-91 14.5q-66 0 -124.5 -27t-102 -73.5t-69 -109t-25.5 -132.5q0 -55 16 -97t45.5 -70.5t70.5 -43t91 -14.5zM727 743h-70l-65 64l-115 -64h-78l167 121h74z" />
    <glyph glyph-name="Otilde" unicode="&#xd5;" horiz-adv-x="804" 
d="M392 -12q-77 0 -133.5 24t-94.5 64.5t-56.5 95t-18.5 115.5q0 89 35 165t92 132t130 87.5t150 31.5q76 0 133 -24t95 -64.5t56.5 -95t18.5 -115.5q0 -89 -35 -165t-92 -132t-130 -87.5t-150 -31.5zM395 62q66 0 124.5 27t102 73.5t69 109t25.5 132.5q0 55 -16 97
t-45.5 70.5t-70.5 43t-91 14.5q-66 0 -124.5 -27t-102 -73.5t-69 -109t-25.5 -132.5q0 -55 16 -97t45.5 -70.5t70.5 -43t91 -14.5zM637 817q18 0 30.5 9t17.5 31h66q-11 -51 -42 -76t-73 -25q-20 0 -36 6t-30 13.5t-26.5 14t-25.5 6.5q-18 0 -30.5 -9t-17.5 -31h-66
q11 51 42 76t73 25q19 0 35 -6.5t30 -14t26.5 -13.5t26.5 -6z" />
    <glyph glyph-name="Odieresis" unicode="&#xd6;" horiz-adv-x="804" 
d="M392 -12q-77 0 -133.5 24t-94.5 64.5t-56.5 95t-18.5 115.5q0 89 35 165t92 132t130 87.5t150 31.5q76 0 133 -24t95 -64.5t56.5 -95t18.5 -115.5q0 -89 -35 -165t-92 -132t-130 -87.5t-150 -31.5zM395 62q66 0 124.5 27t102 73.5t69 109t25.5 132.5q0 55 -16 97
t-45.5 70.5t-70.5 43t-91 14.5q-66 0 -124.5 -27t-102 -73.5t-69 -109t-25.5 -132.5q0 -55 16 -97t45.5 -70.5t70.5 -43t91 -14.5zM448 853h77l-36 -110h-77zM649 853h77l-36 -110h-77z" />
    <glyph glyph-name="multiply" unicode="&#xd7;" horiz-adv-x="530" 
d="M27 75l193 145l-95 141l56 41l94 -140l193 146l35 -52l-193 -146l95 -140l-56 -41l-94 140l-193 -146z" />
    <glyph glyph-name="Oslash" unicode="&#xd8;" horiz-adv-x="804" 
d="M93 24l62 62q-34 40 -50 91.5t-16 109.5q0 89 35 165t92 132t130 87.5t150 31.5q67 0 118.5 -18.5t88.5 -50.5l69 69l36 -36l-70 -70q31 -39 46 -88.5t15 -104.5q0 -89 -35 -165t-92 -132t-130 -87.5t-150 -31.5q-64 0 -113.5 17t-86.5 46l-63 -63zM172 287
q0 -87 40 -144l435 435q-60 51 -154 51q-66 0 -124.5 -27t-102 -73.5t-69 -109t-25.5 -132.5zM395 62q66 0 124.5 27t102 73.5t69 109t25.5 132.5q0 41 -9.5 75t-26.5 60l-432 -432q59 -45 147 -45z" />
    <glyph glyph-name="Ugrave" unicode="&#xd9;" horiz-adv-x="711" 
d="M320 62q94 0 151.5 56.5t91.5 160.5l134 413h82l-139 -427q-22 -68 -51.5 -119.5t-68.5 -86.5t-89 -53t-113 -18q-64 0 -113.5 19.5t-78 58.5t-33.5 96t19 132l129 398h82l-134 -413q-34 -104 1.5 -160.5t129.5 -56.5zM399 864h100l85 -121h-72z" />
    <glyph glyph-name="Uacute" unicode="&#xda;" horiz-adv-x="711" 
d="M320 62q94 0 151.5 56.5t91.5 160.5l134 413h82l-139 -427q-22 -68 -51.5 -119.5t-68.5 -86.5t-89 -53t-113 -18q-64 0 -113.5 19.5t-78 58.5t-33.5 96t19 132l129 398h82l-134 -413q-34 -104 1.5 -160.5t129.5 -56.5zM532 743h-72l133 121h117z" />
    <glyph glyph-name="Ucircumflex" unicode="&#xdb;" horiz-adv-x="711" 
d="M320 62q94 0 151.5 56.5t91.5 160.5l134 413h82l-139 -427q-22 -68 -51.5 -119.5t-68.5 -86.5t-89 -53t-113 -18q-64 0 -113.5 19.5t-78 58.5t-33.5 96t19 132l129 398h82l-134 -413q-34 -104 1.5 -160.5t129.5 -56.5zM690 743h-70l-65 64l-115 -64h-78l167 121h74z" />
    <glyph glyph-name="Udieresis" unicode="&#xdc;" horiz-adv-x="711" 
d="M320 62q94 0 151.5 56.5t91.5 160.5l134 413h82l-139 -427q-22 -68 -51.5 -119.5t-68.5 -86.5t-89 -53t-113 -18q-64 0 -113.5 19.5t-78 58.5t-33.5 96t19 132l129 398h82l-134 -413q-34 -104 1.5 -160.5t129.5 -56.5zM412 853h77l-36 -110h-77zM613 853h77l-36 -110h-77
z" />
    <glyph glyph-name="Yacute" unicode="&#xdd;" horiz-adv-x="594" 
d="M638 692h97l-383 -432l-84 -260h-81l84 260l-101 432h81l80 -347zM454 743h-72l133 121h117z" />
    <glyph glyph-name="Thorn" unicode="&#xde;" horiz-adv-x="603" 
d="M410 562q46 0 82.5 -13t62 -36.5t39 -56t13.5 -70.5q0 -58 -23 -105.5t-65 -81t-102 -51.5t-133 -18h-135l-42 -130h-81l225 692h81l-42 -130h120zM311 202q53 0 93.5 14.5t68 39.5t41.5 57.5t14 67.5q0 52 -35.5 80.5t-107.5 28.5h-119l-93 -288h138z" />
    <glyph glyph-name="germandbls" unicode="&#xdf;" horiz-adv-x="547" 
d="M232 -12q-18 0 -38 1.5t-40 5.5l22 66q17 -4 35 -5.5t33 -1.5q42 0 75.5 13t56.5 37t35 57t12 73q0 27 -8 51t-24.5 42t-41.5 28.5t-59 10.5h-15l21 64h6q44 0 78 13.5t57.5 35t36 48t12.5 51.5q0 36 -20 57.5t-59 21.5q-27 0 -47 -9t-35 -24t-25.5 -35.5t-17.5 -44.5
l-177 -544h-77l119 366h-74l21 64h74l37 114q14 43 31.5 76t42 56t57.5 35t78 12q37 0 65 -11t47 -29t28.5 -42t9.5 -51q0 -38 -17.5 -70.5t-47.5 -58t-71 -41.5t-89 -19v-2q31 -2 60 -15t51.5 -35.5t36.5 -53.5t14 -68q0 -48 -18.5 -91.5t-53.5 -76.5t-84.5 -52t-112.5 -19
z" />
    <glyph glyph-name="agrave" unicode="&#xe0;" horiz-adv-x="525" 
d="M175 -9q-26 0 -51 11t-44 32.5t-30.5 54t-11.5 74.5q0 56 19.5 106.5t52.5 89t76.5 61t91.5 22.5q55 0 87 -30.5t48 -78.5h1l31 97h77l-140 -430h-73l29 85h-1q-9 -14 -24 -30.5t-35.5 -30.5t-46 -23.5t-56.5 -9.5zM216 53q40 0 71.5 20t54 50t34.5 66t12 68
q0 61 -28.5 89.5t-73.5 28.5q-39 0 -70.5 -20t-53.5 -50t-34 -66t-12 -68q0 -61 27.5 -89.5t72.5 -28.5zM252 711l131 -157h-72l-181 157h122z" />
    <glyph glyph-name="aacute" unicode="&#xe1;" horiz-adv-x="525" 
d="M175 -9q-26 0 -51 11t-44 32.5t-30.5 54t-11.5 74.5q0 56 19.5 106.5t52.5 89t76.5 61t91.5 22.5q55 0 87 -30.5t48 -78.5h1l31 97h77l-140 -430h-73l29 85h-1q-9 -14 -24 -30.5t-35.5 -30.5t-46 -23.5t-56.5 -9.5zM216 53q40 0 71.5 20t54 50t34.5 66t12 68
q0 61 -28.5 89.5t-73.5 28.5q-39 0 -70.5 -20t-53.5 -50t-34 -66t-12 -68q0 -61 27.5 -89.5t72.5 -28.5zM408 554h-72l131 157h122z" />
    <glyph glyph-name="acircumflex" unicode="&#xe2;" horiz-adv-x="525" 
d="M175 -9q-26 0 -51 11t-44 32.5t-30.5 54t-11.5 74.5q0 56 19.5 106.5t52.5 89t76.5 61t91.5 22.5q55 0 87 -30.5t48 -78.5h1l31 97h77l-140 -430h-73l29 85h-1q-9 -14 -24 -30.5t-35.5 -30.5t-46 -23.5t-56.5 -9.5zM216 53q40 0 71.5 20t54 50t34.5 66t12 68
q0 61 -28.5 89.5t-73.5 28.5q-39 0 -70.5 -20t-53.5 -50t-34 -66t-12 -68q0 -61 27.5 -89.5t72.5 -28.5zM525 554h-71l-42 100l-138 -100h-77l190 157h74z" />
    <glyph glyph-name="atilde" unicode="&#xe3;" horiz-adv-x="525" 
d="M175 -9q-26 0 -51 11t-44 32.5t-30.5 54t-11.5 74.5q0 56 19.5 106.5t52.5 89t76.5 61t91.5 22.5q55 0 87 -30.5t48 -78.5h1l31 97h77l-140 -430h-73l29 85h-1q-9 -14 -24 -30.5t-35.5 -30.5t-46 -23.5t-56.5 -9.5zM216 53q40 0 71.5 20t54 50t34.5 66t12 68
q0 61 -28.5 89.5t-73.5 28.5q-39 0 -70.5 -20t-53.5 -50t-34 -66t-12 -68q0 -61 27.5 -89.5t72.5 -28.5zM434 643q18 0 30.5 9t17.5 31h66q-11 -51 -42 -76t-73 -25q-20 0 -36 6t-30 13.5t-26.5 14t-25.5 6.5q-18 0 -30.5 -9t-17.5 -31h-66q11 51 42 76t73 25q19 0 35 -6.5
t30 -14t26.5 -13.5t26.5 -6z" />
    <glyph glyph-name="adieresis" unicode="&#xe4;" horiz-adv-x="525" 
d="M175 -9q-26 0 -51 11t-44 32.5t-30.5 54t-11.5 74.5q0 56 19.5 106.5t52.5 89t76.5 61t91.5 22.5q55 0 87 -30.5t48 -78.5h1l31 97h77l-140 -430h-73l29 85h-1q-9 -14 -24 -30.5t-35.5 -30.5t-46 -23.5t-56.5 -9.5zM216 53q40 0 71.5 20t54 50t34.5 66t12 68
q0 61 -28.5 89.5t-73.5 28.5q-39 0 -70.5 -20t-53.5 -50t-34 -66t-12 -68q0 -61 27.5 -89.5t72.5 -28.5zM560 687l-36 -110h-77l36 110h77zM323 577h-77l36 110h77z" />
    <glyph glyph-name="aring" unicode="&#xe5;" horiz-adv-x="525" 
d="M175 -9q-26 0 -51 11t-44 32.5t-30.5 54t-11.5 74.5q0 56 19.5 106.5t52.5 89t76.5 61t91.5 22.5q55 0 87 -30.5t48 -78.5h1l31 97h77l-140 -430h-73l29 85h-1q-9 -14 -24 -30.5t-35.5 -30.5t-46 -23.5t-56.5 -9.5zM216 53q40 0 71.5 20t54 50t34.5 66t12 68
q0 61 -28.5 89.5t-73.5 28.5q-39 0 -70.5 -20t-53.5 -50t-34 -66t-12 -68q0 -61 27.5 -89.5t72.5 -28.5zM365 522q-23 0 -43 9t-35 24t-23.5 35t-8.5 43q0 22 8.5 42t23.5 35t35 24t43 9t43 -9t35 -24t24 -35t9 -42q0 -23 -9 -43t-24 -35t-35 -24t-43 -9zM365 565
q29 0 48.5 19.5t19.5 48.5q0 28 -19.5 47.5t-48.5 19.5q-28 0 -47.5 -19.5t-19.5 -47.5q0 -29 19.5 -48.5t47.5 -19.5z" />
    <glyph glyph-name="ae" unicode="&#xe6;" horiz-adv-x="846" 
d="M781 122q-14 -33 -37 -58.5t-53 -42t-64 -25t-70 -8.5q-52 0 -89.5 23t-58.5 63l-24 -74h-73l29 85h-1q-9 -14 -24 -30.5t-36 -30.5t-47 -23.5t-57 -9.5q-27 0 -51.5 11t-44 32.5t-31 54t-11.5 74.5q0 56 20 106.5t53 89t77 61t92 22.5q55 0 95 -27.5t57 -81.5
q32 49 82.5 80t115.5 31q52 0 89 -22t58.5 -57t28 -79t-1.5 -87h-345q-4 -37 4 -64t23.5 -45t37 -27t45.5 -9q42 0 78 17.5t53 50.5h81zM621 380q-23 0 -45.5 -7.5t-43 -23t-37 -38t-25.5 -52.5h265q2 25 -4.5 47t-21 38.5t-36.5 26t-52 9.5zM392 257q0 61 -29 89.5
t-74 28.5q-40 0 -72 -20t-54.5 -50t-34.5 -66t-12 -68q0 -61 28.5 -89.5t73.5 -28.5q40 0 72.5 20t55 50t34.5 66t12 68z" />
    <glyph glyph-name="ccedilla" unicode="&#xe7;" horiz-adv-x="491" 
d="M218 -12q-40 0 -73 14t-56 39t-36 60t-13 76q0 51 19 99.5t52.5 85.5t79 59.5t98.5 22.5q39 0 71 -13t55 -35t36.5 -51.5t16.5 -63.5h-76q-5 45 -33.5 71t-73.5 26q-39 0 -69.5 -18.5t-52.5 -47.5t-33.5 -64.5t-11.5 -69.5q0 -32 9.5 -55t25.5 -38.5t36.5 -23t41.5 -7.5
q54 0 87 27.5t50 69.5h76q-12 -35 -33 -64.5t-50.5 -51.5t-65.5 -34.5t-77 -12.5zM131 -81q21 12 47 12t45.5 -15.5t19.5 -50.5q0 -21 -10.5 -40t-29 -33.5t-45 -23t-59.5 -8.5q-22 0 -45 5t-41 14l23 42q14 -8 29.5 -12.5t35.5 -4.5q38 0 56 16.5t18 36.5q0 16 -10.5 26.5
t-30.5 10.5t-45 -11l-20 21l90 96h47l-76 -81h1z" />
    <glyph glyph-name="egrave" unicode="&#xe8;" horiz-adv-x="506" 
d="M217 -12q-40 0 -72.5 14t-56 39t-36 60t-12.5 76q0 51 18.5 99t51.5 85.5t79 60t101 22.5q52 0 89 -22t58.5 -57t28 -79t-1.5 -87h-345q-4 -37 4 -64t23.5 -45t37 -27t45.5 -9q42 0 78 17.5t53 50.5h81q-14 -33 -37 -58.5t-53 -42t-64 -25t-70 -8.5zM281 380
q-23 0 -45.5 -7.5t-43 -23t-37 -38t-25.5 -52.5h265q2 25 -4.5 47t-21 38.5t-36.5 26t-52 9.5zM236 711l131 -157h-72l-181 157h122z" />
    <glyph glyph-name="eacute" unicode="&#xe9;" horiz-adv-x="506" 
d="M217 -12q-40 0 -72.5 14t-56 39t-36 60t-12.5 76q0 51 18.5 99t51.5 85.5t79 60t101 22.5q52 0 89 -22t58.5 -57t28 -79t-1.5 -87h-345q-4 -37 4 -64t23.5 -45t37 -27t45.5 -9q42 0 78 17.5t53 50.5h81q-14 -33 -37 -58.5t-53 -42t-64 -25t-70 -8.5zM281 380
q-23 0 -45.5 -7.5t-43 -23t-37 -38t-25.5 -52.5h265q2 25 -4.5 47t-21 38.5t-36.5 26t-52 9.5zM395 554h-72l131 157h122z" />
    <glyph glyph-name="ecircumflex" unicode="&#xea;" horiz-adv-x="506" 
d="M217 -12q-40 0 -72.5 14t-56 39t-36 60t-12.5 76q0 51 18.5 99t51.5 85.5t79 60t101 22.5q52 0 89 -22t58.5 -57t28 -79t-1.5 -87h-345q-4 -37 4 -64t23.5 -45t37 -27t45.5 -9q42 0 78 17.5t53 50.5h81q-14 -33 -37 -58.5t-53 -42t-64 -25t-70 -8.5zM281 380
q-23 0 -45.5 -7.5t-43 -23t-37 -38t-25.5 -52.5h265q2 25 -4.5 47t-21 38.5t-36.5 26t-52 9.5zM515 554h-71l-42 100l-138 -100h-77l190 157h74z" />
    <glyph glyph-name="edieresis" unicode="&#xeb;" horiz-adv-x="506" 
d="M217 -12q-40 0 -72.5 14t-56 39t-36 60t-12.5 76q0 51 18.5 99t51.5 85.5t79 60t101 22.5q52 0 89 -22t58.5 -57t28 -79t-1.5 -87h-345q-4 -37 4 -64t23.5 -45t37 -27t45.5 -9q42 0 78 17.5t53 50.5h81q-14 -33 -37 -58.5t-53 -42t-64 -25t-70 -8.5zM281 380
q-23 0 -45.5 -7.5t-43 -23t-37 -38t-25.5 -52.5h265q2 25 -4.5 47t-21 38.5t-36.5 26t-52 9.5zM542 687l-36 -110h-77l36 110h77zM305 577h-77l36 110h77z" />
    <glyph glyph-name="igrave" unicode="&#xec;" 
d="M110 711l131 -157h-72l-181 157h122zM79 0h-77l140 430h77z" />
    <glyph glyph-name="iacute" unicode="&#xed;" 
d="M250 554h-72l131 157h122zM79 0h-77l140 430h77z" />
    <glyph glyph-name="icircumflex" unicode="&#xee;" 
d="M362 554h-71l-42 100l-138 -100h-77l190 157h74zM79 0h-77l140 430h77z" />
    <glyph glyph-name="idieresis" unicode="&#xef;" 
d="M79 0h-77l140 430h77zM398 687l-36 -110h-77l36 110h77zM161 577h-77l36 110h77z" />
    <glyph glyph-name="eth" unicode="&#xf0;" horiz-adv-x="544" 
d="M366 596q-42 36 -104 58l30 68q87 -31 142 -86l117 71l23 -41l-110 -66q30 -42 44.5 -92.5t14.5 -107.5q0 -41 -7.5 -87t-22.5 -92t-39 -88t-57 -74.5t-75.5 -51.5t-94.5 -19q-47 0 -82 16.5t-58 43.5t-34.5 62t-11.5 72q0 49 18 96t51 84t78 59.5t99 22.5q34 0 61 -13
t46.5 -33.5t31 -46.5t15.5 -53h1q5 23 7.5 44.5t2.5 42.5q0 107 -53 176l-110 -66l-22 42zM237 54q35 0 66 16.5t54 44t36.5 63t13.5 73.5q0 59 -33 93t-86 34q-35 0 -66.5 -16.5t-54.5 -44t-36.5 -63t-13.5 -72.5q0 -60 33 -94t87 -34z" />
    <glyph glyph-name="ntilde" unicode="&#xf1;" horiz-adv-x="508" 
d="M192 344q35 54 75.5 75.5t81.5 21.5q29 0 55 -11.5t42 -34.5t19.5 -58.5t-12.5 -83.5l-82 -253h-77l87 267q18 56 -1.5 82t-61.5 26q-56 0 -101 -44t-72 -127l-66 -204h-77l140 430h77l-28 -86h1v0zM432 643q18 0 30.5 9t17.5 31h66q-11 -51 -42 -76t-73 -25q-20 0 -36 6
t-30 13.5t-26.5 14t-25.5 6.5q-18 0 -30.5 -9t-17.5 -31h-66q11 51 42 76t73 25q19 0 35 -6.5t30 -14t26.5 -13.5t26.5 -6z" />
    <glyph glyph-name="ograve" unicode="&#xf2;" horiz-adv-x="530" 
d="M234 -12q-45 0 -81 14.5t-61.5 40t-39 61t-13.5 76.5q0 51 19.5 98.5t53.5 84.5t81 59t103 22q45 0 81 -14.5t61.5 -40t39 -61t13.5 -76.5q0 -51 -19.5 -98.5t-53.5 -84.5t-81.5 -59t-102.5 -22zM239 54q41 0 73 18t54.5 46.5t34.5 63.5t12 69q0 63 -34.5 95t-87.5 32
q-41 0 -73 -18t-54.5 -46.5t-34.5 -63.5t-12 -69q0 -63 34.5 -95t87.5 -32zM242 711l131 -157h-72l-181 157h122z" />
    <glyph glyph-name="oacute" unicode="&#xf3;" horiz-adv-x="530" 
d="M234 -12q-45 0 -81 14.5t-61.5 40t-39 61t-13.5 76.5q0 51 19.5 98.5t53.5 84.5t81 59t103 22q45 0 81 -14.5t61.5 -40t39 -61t13.5 -76.5q0 -51 -19.5 -98.5t-53.5 -84.5t-81.5 -59t-102.5 -22zM239 54q41 0 73 18t54.5 46.5t34.5 63.5t12 69q0 63 -34.5 95t-87.5 32
q-41 0 -73 -18t-54.5 -46.5t-34.5 -63.5t-12 -69q0 -63 34.5 -95t87.5 -32zM399 554h-72l131 157h122z" />
    <glyph glyph-name="ocircumflex" unicode="&#xf4;" horiz-adv-x="530" 
d="M234 -12q-45 0 -81 14.5t-61.5 40t-39 61t-13.5 76.5q0 51 19.5 98.5t53.5 84.5t81 59t103 22q45 0 81 -14.5t61.5 -40t39 -61t13.5 -76.5q0 -51 -19.5 -98.5t-53.5 -84.5t-81.5 -59t-102.5 -22zM239 54q41 0 73 18t54.5 46.5t34.5 63.5t12 69q0 63 -34.5 95t-87.5 32
q-41 0 -73 -18t-54.5 -46.5t-34.5 -63.5t-12 -69q0 -63 34.5 -95t87.5 -32zM516 554h-71l-42 100l-138 -100h-77l190 157h74z" />
    <glyph glyph-name="otilde" unicode="&#xf5;" horiz-adv-x="530" 
d="M234 -12q-45 0 -81 14.5t-61.5 40t-39 61t-13.5 76.5q0 51 19.5 98.5t53.5 84.5t81 59t103 22q45 0 81 -14.5t61.5 -40t39 -61t13.5 -76.5q0 -51 -19.5 -98.5t-53.5 -84.5t-81.5 -59t-102.5 -22zM239 54q41 0 73 18t54.5 46.5t34.5 63.5t12 69q0 63 -34.5 95t-87.5 32
q-41 0 -73 -18t-54.5 -46.5t-34.5 -63.5t-12 -69q0 -63 34.5 -95t87.5 -32zM423 643q18 0 30.5 9t17.5 31h66q-11 -51 -42 -76t-73 -25q-20 0 -36 6t-30 13.5t-26.5 14t-25.5 6.5q-18 0 -30.5 -9t-17.5 -31h-66q11 51 42 76t73 25q19 0 35 -6.5t30 -14t26.5 -13.5t26.5 -6z
" />
    <glyph glyph-name="odieresis" unicode="&#xf6;" horiz-adv-x="530" 
d="M234 -12q-45 0 -81 14.5t-61.5 40t-39 61t-13.5 76.5q0 51 19.5 98.5t53.5 84.5t81 59t103 22q45 0 81 -14.5t61.5 -40t39 -61t13.5 -76.5q0 -51 -19.5 -98.5t-53.5 -84.5t-81.5 -59t-102.5 -22zM239 54q41 0 73 18t54.5 46.5t34.5 63.5t12 69q0 63 -34.5 95t-87.5 32
q-41 0 -73 -18t-54.5 -46.5t-34.5 -63.5t-12 -69q0 -63 34.5 -95t87.5 -32zM550 687l-36 -110h-77l36 110h77zM313 577h-77l36 110h77z" />
    <glyph glyph-name="divide" unicode="&#xf7;" horiz-adv-x="530" 
d="M61 248h430l-21 -62h-430zM354 320h-110l36 110h110zM250 0h-110l36 110h110z" />
    <glyph glyph-name="oslash" unicode="&#xf8;" horiz-adv-x="530" 
d="M234 -12q-37 0 -67.5 10t-54.5 27l-37 -37l-31 30l37 37q-42 51 -42 125q0 51 19.5 98.5t53.5 84.5t81 59t103 22q40 0 72.5 -12t57.5 -32l43 43l31 -30l-45 -45q36 -50 36 -116q0 -51 -19.5 -98.5t-53.5 -84.5t-81.5 -59t-102.5 -22zM117 181q0 -44 17 -73l241 241
q-34 29 -84 29q-41 0 -73 -18t-54.5 -46.5t-34.5 -63.5t-12 -69zM239 54q41 0 73 18t54.5 46.5t34.5 63.5t12 69q0 36 -12 63l-238 -238q15 -11 34.5 -16.5t41.5 -5.5z" />
    <glyph glyph-name="ugrave" unicode="&#xf9;" horiz-adv-x="498" 
d="M305 86q-35 -54 -73 -76t-79 -22q-29 0 -54 11.5t-40.5 35t-18 59t13.5 83.5l82 253h77l-87 -267q-18 -56 0 -82.5t60 -26.5q56 0 97.5 45t68.5 128l66 203h77l-140 -430h-77l28 86h-1v0zM241 711l131 -157h-72l-181 157h122z" />
    <glyph glyph-name="uacute" unicode="&#xfa;" horiz-adv-x="498" 
d="M305 86q-35 -54 -73 -76t-79 -22q-29 0 -54 11.5t-40.5 35t-18 59t13.5 83.5l82 253h77l-87 -267q-18 -56 0 -82.5t60 -26.5q56 0 97.5 45t68.5 128l66 203h77l-140 -430h-77l28 86h-1v0zM390 554h-72l131 157h122z" />
    <glyph glyph-name="ucircumflex" unicode="&#xfb;" horiz-adv-x="498" 
d="M305 86q-35 -54 -73 -76t-79 -22q-29 0 -54 11.5t-40.5 35t-18 59t13.5 83.5l82 253h77l-87 -267q-18 -56 0 -82.5t60 -26.5q56 0 97.5 45t68.5 128l66 203h77l-140 -430h-77l28 86h-1v0zM507 554h-71l-42 100l-138 -100h-77l190 157h74z" />
    <glyph glyph-name="udieresis" unicode="&#xfc;" horiz-adv-x="498" 
d="M305 86q-35 -54 -73 -76t-79 -22q-29 0 -54 11.5t-40.5 35t-18 59t13.5 83.5l82 253h77l-87 -267q-18 -56 0 -82.5t60 -26.5q56 0 97.5 45t68.5 128l66 203h77l-140 -430h-77l28 86h-1v0zM532 687l-36 -110h-77l36 110h77zM295 577h-77l36 110h77z" />
    <glyph glyph-name="yacute" unicode="&#xfd;" horiz-adv-x="468" 
d="M123 0l-43 430h75l31 -338l263 338h83l-333 -430l-85 -230h-76zM385 554h-72l131 157h122z" />
    <glyph glyph-name="thorn" unicode="&#xfe;" horiz-adv-x="527" 
d="M238 55q40 0 72 20t54.5 50t34.5 66t12 68q0 61 -28.5 89.5t-73.5 28.5q-40 0 -72.5 -20t-55 -50t-34.5 -66t-12 -68q0 -61 29 -89.5t74 -28.5zM5 -230h-77l305 941h77l-115 -354h1q9 12 24 26t34.5 26.5t43 20.5t51.5 8q27 0 52 -10.5t44.5 -32t31.5 -53.5t12 -75
q0 -56 -20 -106.5t-53 -89t-77 -61t-92 -22.5q-57 0 -88 30.5t-47 78.5h-1z" />
    <glyph glyph-name="ydieresis" unicode="&#xff;" horiz-adv-x="468" 
d="M123 0l-43 430h75l31 -338l263 338h83l-333 -430l-85 -230h-76zM528 687l-36 -110h-77l36 110h77zM291 577h-77l36 110h77z" />
    <glyph glyph-name="Abreve" unicode="&#x102;" horiz-adv-x="646" 
d="M-64 0l528 692h86v-692h-77v208h-289l-158 -208h-90zM473 586l-234 -306h234v306zM519 739q-32 0 -56 9t-39.5 25t-23.5 36.5t-6 44.5h61q-2 -64 64 -64q33 0 59.5 14.5t40.5 49.5h61q-17 -51 -57.5 -83t-103.5 -32z" />
    <glyph glyph-name="Amacron" unicode="&#x100;" horiz-adv-x="646" 
d="M-64 0l528 692h86v-692h-77v208h-289l-158 -208h-90zM473 586l-234 -306h234v306zM392 753l21 67h260l-21 -67h-260z" />
    <glyph glyph-name="Aogonek" unicode="&#x104;" horiz-adv-x="646" 
d="M550 0q-62 -29 -101.5 -57.5t-39.5 -59.5q0 -15 9.5 -26.5t29.5 -11.5q15 0 31 5.5t26 11.5l-19 -60q-35 -15 -65 -15q-38 0 -64 21t-26 56q0 24 11 44.5t30.5 37t45 30t55.5 24.5v208h-289l-158 -208h-90l528 692h86v-692zM473 586l-234 -306h234v306z" />
    <glyph glyph-name="Cacute" unicode="&#x106;" horiz-adv-x="730" 
d="M375 -12q-66 0 -119 21.5t-90 60.5t-57 93t-20 120q0 82 31 158t85.5 134.5t128.5 93t159 34.5q55 0 101.5 -16.5t81.5 -45t58 -67.5t31 -84h-95q-4 28 -18 53.5t-37.5 44.5t-55.5 30t-72 11q-66 0 -123.5 -29t-100 -77t-67 -110.5t-24.5 -129.5q0 -54 15.5 -95t43.5 -69
t66.5 -42.5t84.5 -14.5q37 0 72 10t65 28.5t53.5 44t38.5 56.5h95q-23 -48 -57.5 -87t-78 -67t-93.5 -43.5t-102 -15.5zM575 743h-72l133 121h117z" />
    <glyph glyph-name="Ccaron" unicode="&#x10c;" horiz-adv-x="730" 
d="M375 -12q-66 0 -119 21.5t-90 60.5t-57 93t-20 120q0 82 31 158t85.5 134.5t128.5 93t159 34.5q55 0 101.5 -16.5t81.5 -45t58 -67.5t31 -84h-95q-4 28 -18 53.5t-37.5 44.5t-55.5 30t-72 11q-66 0 -123.5 -29t-100 -77t-67 -110.5t-24.5 -129.5q0 -54 15.5 -95t43.5 -69
t66.5 -42.5t84.5 -14.5q37 0 72 10t65 28.5t53.5 44t38.5 56.5h95q-23 -48 -57.5 -87t-78 -67t-93.5 -43.5t-102 -15.5zM402 864h70l65 -64l115 64h78l-167 -121h-74z" />
    <glyph glyph-name="Ccircumflex" unicode="&#x108;" horiz-adv-x="730" 
d="M375 -12q-66 0 -119 21.5t-90 60.5t-57 93t-20 120q0 82 31 158t85.5 134.5t128.5 93t159 34.5q55 0 101.5 -16.5t81.5 -45t58 -67.5t31 -84h-95q-4 28 -18 53.5t-37.5 44.5t-55.5 30t-72 11q-66 0 -123.5 -29t-100 -77t-67 -110.5t-24.5 -129.5q0 -54 15.5 -95t43.5 -69
t66.5 -42.5t84.5 -14.5q37 0 72 10t65 28.5t53.5 44t38.5 56.5h95q-23 -48 -57.5 -87t-78 -67t-93.5 -43.5t-102 -15.5zM701 743h-70l-65 64l-115 -64h-78l167 121h74z" />
    <glyph glyph-name="Cdotaccent" unicode="&#x10a;" horiz-adv-x="730" 
d="M375 -12q-66 0 -119 21.5t-90 60.5t-57 93t-20 120q0 82 31 158t85.5 134.5t128.5 93t159 34.5q55 0 101.5 -16.5t81.5 -45t58 -67.5t31 -84h-95q-4 28 -18 53.5t-37.5 44.5t-55.5 30t-72 11q-66 0 -123.5 -29t-100 -77t-67 -110.5t-24.5 -129.5q0 -54 15.5 -95t43.5 -69
t66.5 -42.5t84.5 -14.5q37 0 72 10t65 28.5t53.5 44t38.5 56.5h95q-23 -48 -57.5 -87t-78 -67t-93.5 -43.5t-102 -15.5zM562 743h-77l36 110h77z" />
    <glyph glyph-name="Dcaron" unicode="&#x10e;" horiz-adv-x="695" 
d="M251 692h152q141 0 218 -72.5t77 -200.5q0 -75 -32.5 -150t-95 -135t-152.5 -97t-204 -37h-188zM237 72q80 0 149 26.5t120 73t80 110.5t29 139q0 98 -57.5 148.5t-174.5 50.5h-75l-178 -548h107zM345 864h70l65 -64l115 64h78l-167 -121h-74z" />
    <glyph glyph-name="Dcroat" unicode="&#x110;" horiz-adv-x="702" 
d="M137 320h-80l24 72h79l98 300h152q141 0 218 -72.5t77 -200.5q0 -75 -32.5 -150t-95 -135t-152.5 -97t-204 -37h-188zM244 72q80 0 149 26.5t120 73t80 110.5t29 139q0 98 -57.5 148.5t-174.5 50.5h-75l-74 -228h163l-24 -72h-163l-80 -248h107z" />
    <glyph glyph-name="Ebreve" unicode="&#x114;" horiz-adv-x="558" 
d="M251 692h412l-24 -72h-330l-74 -228h289l-23 -72h-289l-81 -248h330l-23 -72h-412zM485 739q-32 0 -56 9t-39.5 25t-23.5 36.5t-6 44.5h61q-2 -64 64 -64q33 0 59.5 14.5t40.5 49.5h61q-17 -51 -57.5 -83t-103.5 -32z" />
    <glyph glyph-name="Ecaron" unicode="&#x11a;" horiz-adv-x="558" 
d="M251 692h412l-24 -72h-330l-74 -228h289l-23 -72h-289l-81 -248h330l-23 -72h-412zM347 864h70l65 -64l115 64h78l-167 -121h-74z" />
    <glyph glyph-name="Emacron" unicode="&#x112;" horiz-adv-x="558" 
d="M251 692h412l-24 -72h-330l-74 -228h289l-23 -72h-289l-81 -248h330l-23 -72h-412zM347 753l21 67h260l-21 -67h-260z" />
    <glyph glyph-name="Eogonek" unicode="&#x118;" horiz-adv-x="558" 
d="M251 692h412l-24 -72h-330l-74 -228h289l-23 -72h-289l-81 -248h330l-23 -72h-412zM440 0q-62 -29 -101.5 -57.5t-39.5 -59.5q0 -15 8.5 -26.5t28.5 -11.5q15 0 31 5.5t26 11.5l-19 -60q-35 -15 -65 -15q-38 0 -65.5 21t-27.5 56q0 24 11 44.5t30.5 37t45 30t55.5 24.5
h82v0z" />
    <glyph glyph-name="Edotaccent" unicode="&#x116;" horiz-adv-x="558" 
d="M251 692h412l-24 -72h-330l-74 -228h289l-23 -72h-289l-81 -248h330l-23 -72h-412zM517 743h-77l36 110h77z" />
    <glyph glyph-name="Gbreve" unicode="&#x11e;" horiz-adv-x="766" 
d="M595 105q-45 -60 -107 -88.5t-132 -28.5q-55 0 -103.5 20t-85 58.5t-57.5 93t-21 123.5q0 82 31 158t85.5 134.5t128 93t158.5 34.5q55 0 101.5 -16.5t81.5 -45t58 -67.5t31 -84h-95q-4 28 -18 53.5t-37.5 44.5t-55.5 30t-72 11q-66 0 -123.5 -29t-100 -77t-67 -110.5
t-24.5 -129.5q0 -54 16.5 -95.5t45 -70t68 -43t85.5 -14.5q42 0 81 10.5t70.5 30.5t55.5 49.5t36 68.5l21 65h-181l24 72h263l-116 -356h-78l34 105h-1v0zM564 739q-32 0 -56 9t-39.5 25t-23.5 36.5t-6 44.5h61q-2 -64 64 -64q33 0 59.5 14.5t40.5 49.5h61
q-17 -51 -57.5 -83t-103.5 -32z" />
    <glyph glyph-name="Gcircumflex" unicode="&#x11c;" horiz-adv-x="766" 
d="M595 105q-45 -60 -107 -88.5t-132 -28.5q-55 0 -103.5 20t-85 58.5t-57.5 93t-21 123.5q0 82 31 158t85.5 134.5t128 93t158.5 34.5q55 0 101.5 -16.5t81.5 -45t58 -67.5t31 -84h-95q-4 28 -18 53.5t-37.5 44.5t-55.5 30t-72 11q-66 0 -123.5 -29t-100 -77t-67 -110.5
t-24.5 -129.5q0 -54 16.5 -95.5t45 -70t68 -43t85.5 -14.5q42 0 81 10.5t70.5 30.5t55.5 49.5t36 68.5l21 65h-181l24 72h263l-116 -356h-78l34 105h-1v0zM709 743h-70l-65 64l-115 -64h-78l167 121h74z" />
    <glyph glyph-name="uni0122" unicode="&#x122;" horiz-adv-x="766" 
d="M595 105q-45 -60 -107 -88.5t-132 -28.5q-55 0 -103.5 20t-85 58.5t-57.5 93t-21 123.5q0 82 31 158t85.5 134.5t128 93t158.5 34.5q55 0 101.5 -16.5t81.5 -45t58 -67.5t31 -84h-95q-4 28 -18 53.5t-37.5 44.5t-55.5 30t-72 11q-66 0 -123.5 -29t-100 -77t-67 -110.5
t-24.5 -129.5q0 -54 16.5 -95.5t45 -70t68 -43t85.5 -14.5q42 0 81 10.5t70.5 30.5t55.5 49.5t36 68.5l21 65h-181l24 72h263l-116 -356h-78l34 105h-1v0zM280 -165h-39l31 95h92l-31 -95l-80 -97h-53z" />
    <glyph glyph-name="Gdotaccent" unicode="&#x120;" horiz-adv-x="766" 
d="M595 105q-45 -60 -107 -88.5t-132 -28.5q-55 0 -103.5 20t-85 58.5t-57.5 93t-21 123.5q0 82 31 158t85.5 134.5t128 93t158.5 34.5q55 0 101.5 -16.5t81.5 -45t58 -67.5t31 -84h-95q-4 28 -18 53.5t-37.5 44.5t-55.5 30t-72 11q-66 0 -123.5 -29t-100 -77t-67 -110.5
t-24.5 -129.5q0 -54 16.5 -95.5t45 -70t68 -43t85.5 -14.5q42 0 81 10.5t70.5 30.5t55.5 49.5t36 68.5l21 65h-181l24 72h263l-116 -356h-78l34 105h-1v0zM576 743h-77l36 110h77z" />
    <glyph glyph-name="Hbar" unicode="&#x126;" horiz-adv-x="751" 
d="M599 320h-379l-104 -320h-82l161 497h-79l22 70h80l41 125h82l-41 -125h379l41 125h82l-41 -125h80l-22 -70h-81l-161 -497h-82zM622 392l34 105h-379l-34 -105h379z" />
    <glyph glyph-name="Hcircumflex" unicode="&#x124;" horiz-adv-x="735" 
d="M591 320h-379l-104 -320h-82l225 692h82l-98 -300h379l98 300h82l-225 -692h-82zM688 743h-70l-65 64l-115 -64h-78l167 121h74z" />
    <glyph glyph-name="Ibreve" unicode="&#x12c;" horiz-adv-x="274" 
d="M108 0h-82l225 692h82zM311 739q-32 0 -56 9t-39.5 25t-23.5 36.5t-6 44.5h61q-2 -64 64 -64q33 0 59.5 14.5t40.5 49.5h61q-17 -51 -57.5 -83t-103.5 -32z" />
    <glyph glyph-name="Idotaccent" unicode="&#x130;" horiz-adv-x="274" 
d="M347 743h-77l36 110h77zM108 0h-82l225 692h82z" />
    <glyph glyph-name="Imacron" unicode="&#x12a;" horiz-adv-x="274" 
d="M108 0h-82l225 692h82zM183 753l21 67h260l-21 -67h-260z" />
    <glyph glyph-name="Iogonek" unicode="&#x12e;" horiz-adv-x="274" 
d="M108 0h-82l225 692h82zM109 0q-62 -29 -101.5 -57.5t-39.5 -59.5q0 -15 8.5 -26.5t28.5 -11.5q15 0 31 5.5t26 11.5l-19 -60q-35 -15 -65 -15q-38 0 -65.5 21t-27.5 56q0 24 11 44.5t30.5 37t45 30t55.5 24.5h82v0z" />
    <glyph glyph-name="Itilde" unicode="&#x128;" horiz-adv-x="274" 
d="M108 0h-82l225 692h82zM390 817q18 0 30.5 9t17.5 31h66q-11 -51 -42 -76t-73 -25q-20 0 -36 6t-30 13.5t-26.5 14t-25.5 6.5q-18 0 -30.5 -9t-17.5 -31h-66q11 51 42 76t73 25q19 0 35 -6.5t30 -14t26.5 -13.5t26.5 -6z" />
    <glyph glyph-name="uni1ECA" unicode="&#x1eca;" horiz-adv-x="274" 
d="M48 -180h-77l35 110h77zM108 0h-82l225 692h82z" />
    <glyph glyph-name="Jcircumflex" unicode="&#x134;" horiz-adv-x="507" 
d="M175 -12q-43 0 -78.5 16t-59 43.5t-33 65t0.5 80.5h80q-6 -35 -1 -60t19 -41t35 -23t47 -7q52 0 87.5 31.5t58.5 103.5l161 495h81l-162 -499q-15 -46 -36 -83.5t-49.5 -64.5t-65.5 -42t-85 -15zM709 743h-70l-65 64l-115 -64h-78l167 121h74z" />
    <glyph glyph-name="uni0136" unicode="&#x136;" horiz-adv-x="596" 
d="M108 0h-82l225 692h82zM231 347v2l396 343h104l-405 -350l210 -342h-91zM212 -165h-39l31 95h92l-31 -95l-80 -97h-53z" />
    <glyph glyph-name="Lacute" unicode="&#x139;" horiz-adv-x="506" 
d="M251 692h82l-202 -620h316l-23 -72h-398zM344 743h-72l133 121h117z" />
    <glyph glyph-name="Lcaron" unicode="&#x13d;" horiz-adv-x="513" 
d="M251 692h82l-202 -620h316l-23 -72h-398zM432 493h-50l125 200h90z" />
    <glyph glyph-name="uni013B" unicode="&#x13b;" horiz-adv-x="506" 
d="M251 692h82l-202 -620h316l-23 -72h-398zM164 -165h-39l31 95h92l-31 -95l-80 -97h-53z" />
    <glyph glyph-name="Ldot" unicode="&#x13f;" horiz-adv-x="512" 
d="M468 334h-77l36 110h77zM251 692h82l-202 -620h316l-23 -72h-398z" />
    <glyph glyph-name="Lslash" unicode="&#x141;" horiz-adv-x="520" 
d="M52 286l96 55l115 351h82l-96 -294l230 131l-27 -81l-229 -131l-80 -245h316l-23 -72h-398l84 260l-97 -55z" />
    <glyph glyph-name="Nacute" unicode="&#x143;" horiz-adv-x="714" 
d="M26 0l225 692h83l172 -571l185 571h82l-225 -692h-83l-172 571l-185 -571h-82zM561 743h-72l133 121h117z" />
    <glyph glyph-name="Ncaron" unicode="&#x147;" horiz-adv-x="714" 
d="M26 0l225 692h83l172 -571l185 571h82l-225 -692h-83l-172 571l-185 -571h-82zM389 864h70l65 -64l115 64h78l-167 -121h-74z" />
    <glyph glyph-name="uni0145" unicode="&#x145;" horiz-adv-x="714" 
d="M26 0l225 692h83l172 -571l185 571h82l-225 -692h-83l-172 571l-185 -571h-82zM235 -165h-39l31 95h92l-31 -95l-80 -97h-53z" />
    <glyph glyph-name="OE" unicode="&#x152;" horiz-adv-x="1130" 
d="M629 74q-51 -41 -111.5 -63.5t-125.5 -22.5q-77 0 -133.5 24t-94.5 64.5t-56.5 95t-18.5 115.5q0 89 35 165t92 132t130 87.5t150 31.5q59 0 105 -14.5t80 -40t56 -60.5t34 -77l59 181h405l-24 -72h-331l-74 -228h290l-23 -72h-290l-81 -248h331l-23 -72h-405zM395 62
q66 0 124.5 27t102 73.5t69 109t25.5 132.5q0 55 -16 97t-45.5 70.5t-70.5 43t-91 14.5q-66 0 -124.5 -27t-102 -73.5t-69 -109t-25.5 -132.5q0 -55 16 -97t45.5 -70.5t70.5 -43t91 -14.5z" />
    <glyph glyph-name="Obreve" unicode="&#x14e;" horiz-adv-x="804" 
d="M392 -12q-77 0 -133.5 24t-94.5 64.5t-56.5 95t-18.5 115.5q0 89 35 165t92 132t130 87.5t150 31.5q76 0 133 -24t95 -64.5t56.5 -95t18.5 -115.5q0 -89 -35 -165t-92 -132t-130 -87.5t-150 -31.5zM395 62q66 0 124.5 27t102 73.5t69 109t25.5 132.5q0 55 -16 97
t-45.5 70.5t-70.5 43t-91 14.5q-66 0 -124.5 -27t-102 -73.5t-69 -109t-25.5 -132.5q0 -55 16 -97t45.5 -70.5t70.5 -43t91 -14.5zM581 739q-32 0 -56 9t-39.5 25t-23.5 36.5t-6 44.5h61q-2 -64 64 -64q33 0 59.5 14.5t40.5 49.5h61q-17 -51 -57.5 -83t-103.5 -32z" />
    <glyph glyph-name="Ohungarumlaut" unicode="&#x150;" horiz-adv-x="804" 
d="M392 -12q-77 0 -133.5 24t-94.5 64.5t-56.5 95t-18.5 115.5q0 89 35 165t92 132t130 87.5t150 31.5q76 0 133 -24t95 -64.5t56.5 -95t18.5 -115.5q0 -89 -35 -165t-92 -132t-130 -87.5t-150 -31.5zM395 62q66 0 124.5 27t102 73.5t69 109t25.5 132.5q0 55 -16 97
t-45.5 70.5t-70.5 43t-91 14.5q-66 0 -124.5 -27t-102 -73.5t-69 -109t-25.5 -132.5q0 -55 16 -97t45.5 -70.5t70.5 -43t91 -14.5zM749 864h117l-178 -121h-72zM589 864h117l-178 -121h-72z" />
    <glyph glyph-name="Omacron" unicode="&#x14c;" horiz-adv-x="804" 
d="M392 -12q-77 0 -133.5 24t-94.5 64.5t-56.5 95t-18.5 115.5q0 89 35 165t92 132t130 87.5t150 31.5q76 0 133 -24t95 -64.5t56.5 -95t18.5 -115.5q0 -89 -35 -165t-92 -132t-130 -87.5t-150 -31.5zM395 62q66 0 124.5 27t102 73.5t69 109t25.5 132.5q0 55 -16 97
t-45.5 70.5t-70.5 43t-91 14.5q-66 0 -124.5 -27t-102 -73.5t-69 -109t-25.5 -132.5q0 -55 16 -97t45.5 -70.5t70.5 -43t91 -14.5zM426 753l21 67h260l-21 -67h-260z" />
    <glyph glyph-name="uni1ECC" unicode="&#x1ecc;" horiz-adv-x="804" 
d="M392 -12q-77 0 -133.5 24t-94.5 64.5t-56.5 95t-18.5 115.5q0 89 35 165t92 132t130 87.5t150 31.5q76 0 133 -24t95 -64.5t56.5 -95t18.5 -115.5q0 -89 -35 -165t-92 -132t-130 -87.5t-150 -31.5zM395 62q66 0 124.5 27t102 73.5t69 109t25.5 132.5q0 55 -16 97
t-45.5 70.5t-70.5 43t-91 14.5q-66 0 -124.5 -27t-102 -73.5t-69 -109t-25.5 -132.5q0 -55 16 -97t45.5 -70.5t70.5 -43t91 -14.5zM312 -180h-77l35 110h77z" />
    <glyph glyph-name="Racute" unicode="&#x154;" horiz-adv-x="613" 
d="M301 318h-91l-103 -318h-81l225 692h189q101 0 152 -42.5t51 -110.5q0 -44 -18 -82t-51.5 -67t-81 -47.5t-106.5 -23.5l136 -319h-86zM372 390q49 0 85 12t59.5 32t34.5 45.5t11 53.5q0 45 -28.5 66t-87.5 21h-138l-74 -230h138zM498 743h-72l133 121h117z" />
    <glyph glyph-name="Rcaron" unicode="&#x158;" horiz-adv-x="613" 
d="M301 318h-91l-103 -318h-81l225 692h189q101 0 152 -42.5t51 -110.5q0 -44 -18 -82t-51.5 -67t-81 -47.5t-106.5 -23.5l136 -319h-86zM372 390q49 0 85 12t59.5 32t34.5 45.5t11 53.5q0 45 -28.5 66t-87.5 21h-138l-74 -230h138zM320 864h70l65 -64l115 64h78l-167 -121
h-74z" />
    <glyph glyph-name="uni0156" unicode="&#x156;" horiz-adv-x="613" 
d="M301 318h-91l-103 -318h-81l225 692h189q101 0 152 -42.5t51 -110.5q0 -44 -18 -82t-51.5 -67t-81 -47.5t-106.5 -23.5l136 -319h-86zM372 390q49 0 85 12t59.5 32t34.5 45.5t11 53.5q0 45 -28.5 66t-87.5 21h-138l-74 -230h138zM188 -165h-39l31 95h92l-31 -95l-80 -97
h-53z" />
    <glyph glyph-name="Sacute" unicode="&#x15a;" horiz-adv-x="516" 
d="M232 -12q-56 0 -96 18.5t-65 47.5t-37 64.5t-12 68.5h86q5 -65 39.5 -96t91.5 -31q32 0 57 9.5t42.5 26t26.5 38t9 46.5q0 38 -17.5 71.5t-55.5 62.5l-45 35q-42 32 -66.5 74.5t-24.5 94.5q0 36 14.5 69.5t41.5 59t66.5 41t89.5 15.5q46 0 81 -14t58 -38.5t35 -58
t11 -71.5h-84q-2 54 -33 82t-77 28q-26 0 -48 -7.5t-38.5 -22t-26 -34t-9.5 -43.5q0 -35 18.5 -65.5t46.5 -52.5l50 -39q42 -32 68.5 -77.5t26.5 -106.5q0 -41 -16.5 -76.5t-46 -62t-70.5 -41.5t-91 -15zM449 743h-72l133 121h117z" />
    <glyph glyph-name="Scaron" unicode="&#x160;" horiz-adv-x="516" 
d="M232 -12q-56 0 -96 18.5t-65 47.5t-37 64.5t-12 68.5h86q5 -65 39.5 -96t91.5 -31q32 0 57 9.5t42.5 26t26.5 38t9 46.5q0 38 -17.5 71.5t-55.5 62.5l-45 35q-42 32 -66.5 74.5t-24.5 94.5q0 36 14.5 69.5t41.5 59t66.5 41t89.5 15.5q46 0 81 -14t58 -38.5t35 -58
t11 -71.5h-84q-2 54 -33 82t-77 28q-26 0 -48 -7.5t-38.5 -22t-26 -34t-9.5 -43.5q0 -35 18.5 -65.5t46.5 -52.5l50 -39q42 -32 68.5 -77.5t26.5 -106.5q0 -41 -16.5 -76.5t-46 -62t-70.5 -41.5t-91 -15zM275 864h70l65 -64l115 64h78l-167 -121h-74z" />
    <glyph glyph-name="Scedilla" unicode="&#x15e;" horiz-adv-x="516" 
d="M232 -12q-56 0 -96 18.5t-65 47.5t-37 64.5t-12 68.5h86q5 -65 39.5 -96t91.5 -31q32 0 57 9.5t42.5 26t26.5 38t9 46.5q0 38 -17.5 71.5t-55.5 62.5l-45 35q-42 32 -66.5 74.5t-24.5 94.5q0 36 14.5 69.5t41.5 59t66.5 41t89.5 15.5q46 0 81 -14t58 -38.5t35 -58
t11 -71.5h-84q-2 54 -33 82t-77 28q-26 0 -48 -7.5t-38.5 -22t-26 -34t-9.5 -43.5q0 -35 18.5 -65.5t46.5 -52.5l50 -39q42 -32 68.5 -77.5t26.5 -106.5q0 -41 -16.5 -76.5t-46 -62t-70.5 -41.5t-91 -15zM149 -81q21 12 47 12t45.5 -15.5t19.5 -50.5q0 -21 -10.5 -40
t-29 -33.5t-45 -23t-59.5 -8.5q-22 0 -45 5t-41 14l23 42q14 -8 29.5 -12.5t35.5 -4.5q38 0 56 16.5t18 36.5q0 16 -10.5 26.5t-30.5 10.5t-45 -11l-20 21l90 96h47l-76 -81h1z" />
    <glyph glyph-name="Scircumflex" unicode="&#x15c;" horiz-adv-x="516" 
d="M232 -12q-56 0 -96 18.5t-65 47.5t-37 64.5t-12 68.5h86q5 -65 39.5 -96t91.5 -31q32 0 57 9.5t42.5 26t26.5 38t9 46.5q0 38 -17.5 71.5t-55.5 62.5l-45 35q-42 32 -66.5 74.5t-24.5 94.5q0 36 14.5 69.5t41.5 59t66.5 41t89.5 15.5q46 0 81 -14t58 -38.5t35 -58
t11 -71.5h-84q-2 54 -33 82t-77 28q-26 0 -48 -7.5t-38.5 -22t-26 -34t-9.5 -43.5q0 -35 18.5 -65.5t46.5 -52.5l50 -39q42 -32 68.5 -77.5t26.5 -106.5q0 -41 -16.5 -76.5t-46 -62t-70.5 -41.5t-91 -15zM598 743h-70l-65 64l-115 -64h-78l167 121h74z" />
    <glyph glyph-name="uni0218" unicode="&#x218;" horiz-adv-x="516" 
d="M232 -12q-56 0 -96 18.5t-65 47.5t-37 64.5t-12 68.5h86q5 -65 39.5 -96t91.5 -31q32 0 57 9.5t42.5 26t26.5 38t9 46.5q0 38 -17.5 71.5t-55.5 62.5l-45 35q-42 32 -66.5 74.5t-24.5 94.5q0 36 14.5 69.5t41.5 59t66.5 41t89.5 15.5q46 0 81 -14t58 -38.5t35 -58
t11 -71.5h-84q-2 54 -33 82t-77 28q-26 0 -48 -7.5t-38.5 -22t-26 -34t-9.5 -43.5q0 -35 18.5 -65.5t46.5 -52.5l50 -39q42 -32 68.5 -77.5t26.5 -106.5q0 -41 -16.5 -76.5t-46 -62t-70.5 -41.5t-91 -15zM135 -165h-39l31 95h92l-31 -95l-80 -97h-53z" />
    <glyph glyph-name="Tcaron" unicode="&#x164;" horiz-adv-x="548" 
d="M666 620h-221l-201 -620h-82l201 620h-221l24 72h524zM302 864h70l65 -64l115 64h78l-167 -121h-74z" />
    <glyph glyph-name="uni0162" unicode="&#x162;" horiz-adv-x="548" 
d="M142 -165h-39l31 95h92l-31 -95l-80 -97h-53zM666 620h-221l-201 -620h-82l201 620h-221l24 72h524z" />
    <glyph glyph-name="uni021A" unicode="&#x21a;" horiz-adv-x="548" 
d="M142 -165h-39l31 95h92l-31 -95l-80 -97h-53zM666 620h-221l-201 -620h-82l201 620h-221l24 72h524z" />
    <glyph glyph-name="Ubreve" unicode="&#x16c;" horiz-adv-x="711" 
d="M320 62q94 0 151.5 56.5t91.5 160.5l134 413h82l-139 -427q-22 -68 -51.5 -119.5t-68.5 -86.5t-89 -53t-113 -18q-64 0 -113.5 19.5t-78 58.5t-33.5 96t19 132l129 398h82l-134 -413q-34 -104 1.5 -160.5t129.5 -56.5zM525 739q-32 0 -56 9t-39.5 25t-23.5 36.5t-6 44.5
h61q-2 -64 64 -64q33 0 59.5 14.5t40.5 49.5h61q-17 -51 -57.5 -83t-103.5 -32z" />
    <glyph glyph-name="Uhungarumlaut" unicode="&#x170;" horiz-adv-x="711" 
d="M320 62q94 0 151.5 56.5t91.5 160.5l134 413h82l-139 -427q-22 -68 -51.5 -119.5t-68.5 -86.5t-89 -53t-113 -18q-64 0 -113.5 19.5t-78 58.5t-33.5 96t19 132l129 398h82l-134 -413q-34 -104 1.5 -160.5t129.5 -56.5zM687 864h117l-178 -121h-72zM527 864h117l-178 -121
h-72z" />
    <glyph glyph-name="Umacron" unicode="&#x16a;" horiz-adv-x="711" 
d="M388 753l21 67h260l-21 -67h-260zM320 62q94 0 151.5 56.5t91.5 160.5l134 413h82l-139 -427q-22 -68 -51.5 -119.5t-68.5 -86.5t-89 -53t-113 -18q-64 0 -113.5 19.5t-78 58.5t-33.5 96t19 132l129 398h82l-134 -413q-34 -104 1.5 -160.5t129.5 -56.5z" />
    <glyph glyph-name="Uogonek" unicode="&#x172;" horiz-adv-x="711" 
d="M320 62q94 0 151.5 56.5t91.5 160.5l134 413h82l-139 -427q-22 -68 -51.5 -119.5t-68.5 -86.5t-89 -53t-113 -18q-64 0 -113.5 19.5t-78 58.5t-33.5 96t19 132l129 398h82l-134 -413q-34 -104 1.5 -160.5t129.5 -56.5zM376 0q-62 -29 -101.5 -57.5t-39.5 -59.5
q0 -15 8.5 -26.5t28.5 -11.5q15 0 31 5.5t26 11.5l-19 -60q-35 -15 -65 -15q-38 0 -65.5 21t-27.5 56q0 24 11 44.5t30.5 37t45 30t55.5 24.5h82v0z" />
    <glyph glyph-name="Uring" unicode="&#x16e;" horiz-adv-x="711" 
d="M320 62q94 0 151.5 56.5t91.5 160.5l134 413h82l-139 -427q-22 -68 -51.5 -119.5t-68.5 -86.5t-89 -53t-113 -18q-64 0 -113.5 19.5t-78 58.5t-33.5 96t19 132l129 398h82l-134 -413q-34 -104 1.5 -160.5t129.5 -56.5zM536 782q29 0 48.5 19.5t19.5 48.5q0 28 -19.5 47.5
t-48.5 19.5q-28 0 -47.5 -19.5t-19.5 -47.5q0 -29 19.5 -48.5t47.5 -19.5zM536 739q-23 0 -43 9t-35 24t-23.5 35t-8.5 43q0 22 8.5 42t23.5 35t35 24t43 9t43 -9t35 -24t24 -35t9 -42q0 -23 -9 -43t-24 -35t-35 -24t-43 -9z" />
    <glyph glyph-name="Utilde" unicode="&#x168;" horiz-adv-x="711" 
d="M320 62q94 0 151.5 56.5t91.5 160.5l134 413h82l-139 -427q-22 -68 -51.5 -119.5t-68.5 -86.5t-89 -53t-113 -18q-64 0 -113.5 19.5t-78 58.5t-33.5 96t19 132l129 398h82l-134 -413q-34 -104 1.5 -160.5t129.5 -56.5zM606 817q18 0 30.5 9t17.5 31h66q-11 -51 -42 -76
t-73 -25q-20 0 -36 6t-30 13.5t-26.5 14t-25.5 6.5q-18 0 -30.5 -9t-17.5 -31h-66q11 51 42 76t73 25q19 0 35 -6.5t30 -14t26.5 -13.5t26.5 -6z" />
    <glyph glyph-name="uni1EE4" unicode="&#x1ee4;" horiz-adv-x="711" 
d="M320 62q94 0 151.5 56.5t91.5 160.5l134 413h82l-139 -427q-22 -68 -51.5 -119.5t-68.5 -86.5t-89 -53t-113 -18q-64 0 -113.5 19.5t-78 58.5t-33.5 96t19 132l129 398h82l-134 -413q-34 -104 1.5 -160.5t129.5 -56.5zM264 -180h-77l35 110h77z" />
    <glyph glyph-name="Wacute" unicode="&#x1e82;" horiz-adv-x="860" 
d="M183 692h83l-57 -558l318 515h80l-16 -515l305 558h91l-391 -692h-82l16 523l-324 -523h-82zM639 743h-72l133 121h117z" />
    <glyph glyph-name="Wcircumflex" unicode="&#x174;" horiz-adv-x="860" 
d="M183 692h83l-57 -558l318 515h80l-16 -515l305 558h91l-391 -692h-82l16 523l-324 -523h-82zM765 743h-70l-65 64l-115 -64h-78l167 121h74z" />
    <glyph glyph-name="Wdieresis" unicode="&#x1e84;" horiz-adv-x="860" 
d="M183 692h83l-57 -558l318 515h80l-16 -515l305 558h91l-391 -692h-82l16 523l-324 -523h-82zM487 853h77l-36 -110h-77zM688 853h77l-36 -110h-77z" />
    <glyph glyph-name="Wgrave" unicode="&#x1e80;" horiz-adv-x="860" 
d="M183 692h83l-57 -558l318 515h80l-16 -515l305 558h91l-391 -692h-82l16 523l-324 -523h-82zM424 864h100l85 -121h-72z" />
    <glyph glyph-name="Ycircumflex" unicode="&#x176;" horiz-adv-x="594" 
d="M638 692h97l-383 -432l-84 -260h-81l84 260l-101 432h81l80 -347zM620 743h-70l-65 64l-115 -64h-78l167 121h74z" />
    <glyph glyph-name="Ydieresis" unicode="&#x178;" horiz-adv-x="594" 
d="M638 692h97l-383 -432l-84 -260h-81l84 260l-101 432h81l80 -347zM355 853h77l-36 -110h-77zM556 853h77l-36 -110h-77z" />
    <glyph glyph-name="Ygrave" unicode="&#x1ef2;" horiz-adv-x="594" 
d="M638 692h97l-383 -432l-84 -260h-81l84 260l-101 432h81l80 -347zM301 864h100l85 -121h-72z" />
    <glyph glyph-name="uni0232" unicode="&#x232;" horiz-adv-x="594" 
d="M638 692h97l-383 -432l-84 -260h-81l84 260l-101 432h81l80 -347zM323 753l21 67h260l-21 -67h-260z" />
    <glyph glyph-name="Zacute" unicode="&#x179;" horiz-adv-x="564" 
d="M534 620h-349l24 72h491l-594 -620h376l-23 -72h-518zM493 743h-72l133 121h117z" />
    <glyph glyph-name="Zcaron" unicode="&#x17d;" horiz-adv-x="564" 
d="M534 620h-349l24 72h491l-594 -620h376l-23 -72h-518zM341 864h70l65 -64l115 64h78l-167 -121h-74z" />
    <glyph glyph-name="Zdotaccent" unicode="&#x17b;" horiz-adv-x="564" 
d="M534 620h-349l24 72h491l-594 -620h376l-23 -72h-518zM499 743h-77l36 110h77z" />
    <glyph glyph-name="abreve" unicode="&#x103;" horiz-adv-x="525" 
d="M175 -9q-26 0 -51 11t-44 32.5t-30.5 54t-11.5 74.5q0 56 19.5 106.5t52.5 89t76.5 61t91.5 22.5q55 0 87 -30.5t48 -78.5h1l31 97h77l-140 -430h-73l29 85h-1q-9 -14 -24 -30.5t-35.5 -30.5t-46 -23.5t-56.5 -9.5zM216 53q40 0 71.5 20t54 50t34.5 66t12 68
q0 61 -28.5 89.5t-73.5 28.5q-39 0 -70.5 -20t-53.5 -50t-34 -66t-12 -68q0 -61 27.5 -89.5t72.5 -28.5zM391 575q-32 0 -56 9t-39.5 25t-23.5 36.5t-6 44.5h61q-2 -64 64 -64q33 0 59.5 14.5t40.5 49.5h61q-17 -51 -57.5 -83t-103.5 -32z" />
    <glyph glyph-name="amacron" unicode="&#x101;" horiz-adv-x="525" 
d="M175 -9q-26 0 -51 11t-44 32.5t-30.5 54t-11.5 74.5q0 56 19.5 106.5t52.5 89t76.5 61t91.5 22.5q55 0 87 -30.5t48 -78.5h1l31 97h77l-140 -430h-73l29 85h-1q-9 -14 -24 -30.5t-35.5 -30.5t-46 -23.5t-56.5 -9.5zM216 53q40 0 71.5 20t54 50t34.5 66t12 68
q0 61 -28.5 89.5t-73.5 28.5q-39 0 -70.5 -20t-53.5 -50t-34 -66t-12 -68q0 -61 27.5 -89.5t72.5 -28.5zM244 599l21 67h260l-21 -67h-260z" />
    <glyph glyph-name="aogonek" unicode="&#x105;" horiz-adv-x="525" 
d="M382 0q-62 -29 -101.5 -57.5t-39.5 -59.5q0 -15 9.5 -26.5t29.5 -11.5q15 0 31 5.5t26 11.5l-19 -60q-35 -15 -65 -15q-38 0 -62 21t-24 56q0 24 11 44.5t30.5 37t45 30t55.5 24.5l29 85h-1q-9 -14 -24 -30.5t-35.5 -30.5t-46 -23.5t-56.5 -9.5q-26 0 -51 11t-44 32.5
t-30.5 54t-11.5 74.5q0 56 19.5 106.5t52.5 89t76.5 61t91.5 22.5q55 0 87 -30.5t48 -78.5h1l31 97h77zM216 53q40 0 71.5 20t54 50t34.5 66t12 68q0 61 -28.5 89.5t-73.5 28.5q-39 0 -70.5 -20t-53.5 -50t-34 -66t-12 -68q0 -61 27.5 -89.5t72.5 -28.5z" />
    <glyph glyph-name="cacute" unicode="&#x107;" horiz-adv-x="491" 
d="M383 554h-72l131 157h122zM218 -12q-40 0 -73 14t-56 39t-36 60t-13 76q0 51 19 99.5t52.5 85.5t79 59.5t98.5 22.5q39 0 71 -13t55 -35t36.5 -51.5t16.5 -63.5h-76q-5 45 -33.5 71t-73.5 26q-39 0 -69.5 -18.5t-52.5 -47.5t-33.5 -64.5t-11.5 -69.5q0 -32 9.5 -55
t25.5 -38.5t36.5 -23t41.5 -7.5q54 0 87 27.5t50 69.5h76q-12 -35 -33 -64.5t-50.5 -51.5t-65.5 -34.5t-77 -12.5z" />
    <glyph glyph-name="ccaron" unicode="&#x10d;" horiz-adv-x="491" 
d="M218 -12q-40 0 -73 14t-56 39t-36 60t-13 76q0 51 19 99.5t52.5 85.5t79 59.5t98.5 22.5q39 0 71 -13t55 -35t36.5 -51.5t16.5 -63.5h-76q-5 45 -33.5 71t-73.5 26q-39 0 -69.5 -18.5t-52.5 -47.5t-33.5 -64.5t-11.5 -69.5q0 -32 9.5 -55t25.5 -38.5t36.5 -23t41.5 -7.5
q54 0 87 27.5t50 69.5h76q-12 -35 -33 -64.5t-50.5 -51.5t-65.5 -34.5t-77 -12.5zM256 711h71l42 -100l138 100h77l-190 -157h-74z" />
    <glyph glyph-name="ccircumflex" unicode="&#x109;" horiz-adv-x="491" 
d="M218 -12q-40 0 -73 14t-56 39t-36 60t-13 76q0 51 19 99.5t52.5 85.5t79 59.5t98.5 22.5q39 0 71 -13t55 -35t36.5 -51.5t16.5 -63.5h-76q-5 45 -33.5 71t-73.5 26q-39 0 -69.5 -18.5t-52.5 -47.5t-33.5 -64.5t-11.5 -69.5q0 -32 9.5 -55t25.5 -38.5t36.5 -23t41.5 -7.5
q54 0 87 27.5t50 69.5h76q-12 -35 -33 -64.5t-50.5 -51.5t-65.5 -34.5t-77 -12.5zM512 554h-71l-42 100l-138 -100h-77l190 157h74z" />
    <glyph glyph-name="cdotaccent" unicode="&#x10b;" horiz-adv-x="491" 
d="M218 -12q-40 0 -73 14t-56 39t-36 60t-13 76q0 51 19 99.5t52.5 85.5t79 59.5t98.5 22.5q39 0 71 -13t55 -35t36.5 -51.5t16.5 -63.5h-76q-5 45 -33.5 71t-73.5 26q-39 0 -69.5 -18.5t-52.5 -47.5t-33.5 -64.5t-11.5 -69.5q0 -32 9.5 -55t25.5 -38.5t36.5 -23t41.5 -7.5
q54 0 87 27.5t50 69.5h76q-12 -35 -33 -64.5t-50.5 -51.5t-65.5 -34.5t-77 -12.5zM378 577h-77l36 110h77z" />
    <glyph glyph-name="dcaron" unicode="&#x10f;" horiz-adv-x="551" 
d="M176 -9q-27 0 -51.5 11t-44 32.5t-31 54t-11.5 74.5q0 56 20 106.5t53 89t77 61t92 22.5q57 0 88.5 -30.5t47.5 -78.5h1l122 378h77l-231 -711h-73l29 85h-1q-9 -14 -24 -30.5t-36 -30.5t-47 -23.5t-57 -9.5zM218 53q40 0 72.5 20t55 50t34.5 66t12 68q0 61 -29 89.5
t-74 28.5q-40 0 -72 -20t-54.5 -50t-34.5 -66t-12 -68q0 -61 28.5 -89.5t73.5 -28.5zM639 511h-50l125 200h90z" />
    <glyph glyph-name="dcroat" unicode="&#x111;" horiz-adv-x="527" 
d="M176 -9q-27 0 -51.5 11t-44 32.5t-31 54t-11.5 74.5q0 56 20 106.5t53 89t77 61t92 22.5q57 0 88.5 -30.5t47.5 -78.5h1l60 186h-137l20 63h137l42 129h77l-42 -129h83l-20 -63h-84l-168 -519h-73l29 85h-1q-9 -14 -24 -30.5t-36 -30.5t-47 -23.5t-57 -9.5zM218 53
q40 0 72.5 20t55 50t34.5 66t12 68q0 61 -29 89.5t-74 28.5q-40 0 -72 -20t-54.5 -50t-34.5 -66t-12 -68q0 -61 28.5 -89.5t73.5 -28.5z" />
    <glyph glyph-name="ebreve" unicode="&#x115;" horiz-adv-x="506" 
d="M217 -12q-40 0 -72.5 14t-56 39t-36 60t-12.5 76q0 51 18.5 99t51.5 85.5t79 60t101 22.5q52 0 89 -22t58.5 -57t28 -79t-1.5 -87h-345q-4 -37 4 -64t23.5 -45t37 -27t45.5 -9q42 0 78 17.5t53 50.5h81q-14 -33 -37 -58.5t-53 -42t-64 -25t-70 -8.5zM281 380
q-23 0 -45.5 -7.5t-43 -23t-37 -38t-25.5 -52.5h265q2 25 -4.5 47t-21 38.5t-36.5 26t-52 9.5zM385 575q-32 0 -56 9t-39.5 25t-23.5 36.5t-6 44.5h61q-2 -64 64 -64q33 0 59.5 14.5t40.5 49.5h61q-17 -51 -57.5 -83t-103.5 -32z" />
    <glyph glyph-name="ecaron" unicode="&#x11b;" horiz-adv-x="506" 
d="M217 -12q-40 0 -72.5 14t-56 39t-36 60t-12.5 76q0 51 18.5 99t51.5 85.5t79 60t101 22.5q52 0 89 -22t58.5 -57t28 -79t-1.5 -87h-345q-4 -37 4 -64t23.5 -45t37 -27t45.5 -9q42 0 78 17.5t53 50.5h81q-14 -33 -37 -58.5t-53 -42t-64 -25t-70 -8.5zM281 380
q-23 0 -45.5 -7.5t-43 -23t-37 -38t-25.5 -52.5h265q2 25 -4.5 47t-21 38.5t-36.5 26t-52 9.5zM251 711h71l42 -100l138 100h77l-190 -157h-74z" />
    <glyph glyph-name="emacron" unicode="&#x113;" horiz-adv-x="506" 
d="M217 -12q-40 0 -72.5 14t-56 39t-36 60t-12.5 76q0 51 18.5 99t51.5 85.5t79 60t101 22.5q52 0 89 -22t58.5 -57t28 -79t-1.5 -87h-345q-4 -37 4 -64t23.5 -45t37 -27t45.5 -9q42 0 78 17.5t53 50.5h81q-14 -33 -37 -58.5t-53 -42t-64 -25t-70 -8.5zM281 380
q-23 0 -45.5 -7.5t-43 -23t-37 -38t-25.5 -52.5h265q2 25 -4.5 47t-21 38.5t-36.5 26t-52 9.5zM236 599l21 67h260l-21 -67h-260z" />
    <glyph glyph-name="eogonek" unicode="&#x119;" horiz-adv-x="506" 
d="M217 -12q-40 0 -72.5 14t-56 39t-36 60t-12.5 76q0 51 18.5 99t51.5 85.5t79 60t101 22.5q52 0 89 -22t58.5 -57t28 -79t-1.5 -87h-345q-4 -37 4 -64t23.5 -45t37 -27t45.5 -9q42 0 78 17.5t53 50.5h81q-14 -33 -37 -58.5t-53 -42t-64 -25t-70 -8.5zM281 380
q-23 0 -45.5 -7.5t-43 -23t-37 -38t-25.5 -52.5h265q2 25 -4.5 47t-21 38.5t-36.5 26t-52 9.5zM299 0q-62 -29 -101.5 -57.5t-39.5 -59.5q0 -15 9.5 -26.5t29.5 -11.5q15 0 31 5.5t26 11.5l-19 -60q-35 -15 -65 -15q-38 0 -64 21t-26 56q0 24 11 44.5t30.5 37t45 30
t55.5 24.5h77v0z" />
    <glyph glyph-name="edotaccent" unicode="&#x117;" horiz-adv-x="506" 
d="M217 -12q-40 0 -72.5 14t-56 39t-36 60t-12.5 76q0 51 18.5 99t51.5 85.5t79 60t101 22.5q52 0 89 -22t58.5 -57t28 -79t-1.5 -87h-345q-4 -37 4 -64t23.5 -45t37 -27t45.5 -9q42 0 78 17.5t53 50.5h81q-14 -33 -37 -58.5t-53 -42t-64 -25t-70 -8.5zM281 380
q-23 0 -45.5 -7.5t-43 -23t-37 -38t-25.5 -52.5h265q2 25 -4.5 47t-21 38.5t-36.5 26t-52 9.5zM380 577h-77l36 110h77z" />
    <glyph glyph-name="gbreve" unicode="&#x11f;" horiz-adv-x="515" 
d="M425 375q14 -20 22 -45.5t8 -55.5q0 -34 -12 -67t-33.5 -60.5t-51 -48.5t-64.5 -31q45 -18 72.5 -57.5t27.5 -87.5q0 -33 -15.5 -63t-43.5 -52.5t-67 -36t-86 -13.5t-88 15t-70.5 45t-44 75.5t-8.5 107.5h79q-6 -55 4.5 -89.5t31 -54t47.5 -26.5t54 -7q62 0 98.5 32.5
t36.5 82.5q0 24 -9 45t-24 37t-35.5 26t-43.5 13q-32 3 -59 16.5t-47 35t-31.5 51.5t-11.5 66q0 41 17.5 80t47.5 69t70.5 48.5t87.5 18.5q39 0 73 -14h216l-55 -55h-93zM238 122q33 0 59 14.5t44 37t28 49.5t10 53q0 50 -28 77t-73 27q-33 0 -59 -14.5t-44 -37t-28 -49.5
t-10 -53q0 -50 28 -77t73 -27zM393 575q-32 0 -56 9t-39.5 25t-23.5 36.5t-6 44.5h61q-2 -64 64 -64q33 0 59.5 14.5t40.5 49.5h61q-17 -51 -57.5 -83t-103.5 -32z" />
    <glyph glyph-name="gcircumflex" unicode="&#x11d;" horiz-adv-x="515" 
d="M425 375q14 -20 22 -45.5t8 -55.5q0 -34 -12 -67t-33.5 -60.5t-51 -48.5t-64.5 -31q45 -18 72.5 -57.5t27.5 -87.5q0 -33 -15.5 -63t-43.5 -52.5t-67 -36t-86 -13.5t-88 15t-70.5 45t-44 75.5t-8.5 107.5h79q-6 -55 4.5 -89.5t31 -54t47.5 -26.5t54 -7q62 0 98.5 32.5
t36.5 82.5q0 24 -9 45t-24 37t-35.5 26t-43.5 13q-32 3 -59 16.5t-47 35t-31.5 51.5t-11.5 66q0 41 17.5 80t47.5 69t70.5 48.5t87.5 18.5q39 0 73 -14h216l-55 -55h-93zM238 122q33 0 59 14.5t44 37t28 49.5t10 53q0 50 -28 77t-73 27q-33 0 -59 -14.5t-44 -37t-28 -49.5
t-10 -53q0 -50 28 -77t73 -27zM521 554h-71l-42 100l-138 -100h-77l190 157h74z" />
    <glyph glyph-name="uni0123" unicode="&#x123;" horiz-adv-x="515" 
d="M425 375q14 -20 22 -45.5t8 -55.5q0 -34 -12 -67t-33.5 -60.5t-51 -48.5t-64.5 -31q45 -18 72.5 -57.5t27.5 -87.5q0 -33 -15.5 -63t-43.5 -52.5t-67 -36t-86 -13.5t-88 15t-70.5 45t-44 75.5t-8.5 107.5h79q-6 -55 4.5 -89.5t31 -54t47.5 -26.5t54 -7q62 0 98.5 32.5
t36.5 82.5q0 24 -9 45t-24 37t-35.5 26t-43.5 13q-32 3 -59 16.5t-47 35t-31.5 51.5t-11.5 66q0 41 17.5 80t47.5 69t70.5 48.5t87.5 18.5q39 0 73 -14h216l-55 -55h-93zM238 122q33 0 59 14.5t44 37t28 49.5t10 53q0 50 -28 77t-73 27q-33 0 -59 -14.5t-44 -37t-28 -49.5
t-10 -53q0 -50 28 -77t73 -27zM317 649l80 97h53l-80 -97h39l-31 -95h-92z" />
    <glyph glyph-name="gdotaccent" unicode="&#x121;" horiz-adv-x="515" 
d="M425 375q14 -20 22 -45.5t8 -55.5q0 -34 -12 -67t-33.5 -60.5t-51 -48.5t-64.5 -31q45 -18 72.5 -57.5t27.5 -87.5q0 -33 -15.5 -63t-43.5 -52.5t-67 -36t-86 -13.5t-88 15t-70.5 45t-44 75.5t-8.5 107.5h79q-6 -55 4.5 -89.5t31 -54t47.5 -26.5t54 -7q62 0 98.5 32.5
t36.5 82.5q0 24 -9 45t-24 37t-35.5 26t-43.5 13q-32 3 -59 16.5t-47 35t-31.5 51.5t-11.5 66q0 41 17.5 80t47.5 69t70.5 48.5t87.5 18.5q39 0 73 -14h216l-55 -55h-93zM238 122q33 0 59 14.5t44 37t28 49.5t10 53q0 50 -28 77t-73 27q-33 0 -59 -14.5t-44 -37t-28 -49.5
t-10 -53q0 -50 28 -77t73 -27zM394 577h-77l36 110h77z" />
    <glyph glyph-name="hbar" unicode="&#x127;" horiz-adv-x="508" 
d="M170 519h-79l20 63h80l42 129h77l-42 -129h143l-20 -63h-144l-56 -175h1q35 54 75.5 75.5t81.5 21.5q29 0 55 -11.5t42 -34.5t19.5 -58.5t-12.5 -83.5l-82 -253h-77l87 267q18 56 -1.5 82t-61.5 26q-56 0 -101 -44t-72 -127l-66 -204h-77z" />
    <glyph glyph-name="hcircumflex" unicode="&#x125;" horiz-adv-x="508" 
d="M233 711h77l-119 -367h1q35 54 75.5 75.5t81.5 21.5q29 0 55 -11.5t42 -34.5t19.5 -58.5t-12.5 -83.5l-82 -253h-77l87 267q18 56 -1.5 82t-61.5 26q-56 0 -101 -44t-72 -127l-66 -204h-77zM444 743h-70l-65 64l-115 -64h-78l167 121h74z" />
    <glyph glyph-name="dotlessi" unicode="&#x131;" 
d="M79 0h-77l140 430h77z" />
    <glyph glyph-name="ibreve" unicode="&#x12d;" 
d="M238 575q-32 0 -56 9t-39.5 25t-23.5 36.5t-6 44.5h61q-2 -64 64 -64q33 0 59.5 14.5t40.5 49.5h61q-17 -51 -57.5 -83t-103.5 -32zM79 0h-77l140 430h77z" />
    <glyph glyph-name="imacron" unicode="&#x12b;" 
d="M88 599l21 67h260l-21 -67h-260zM79 0h-77l140 430h77z" />
    <glyph glyph-name="iogonek" unicode="&#x12f;" 
d="M80 0q-62 -29 -101.5 -57.5t-39.5 -59.5q0 -15 9.5 -26.5t29.5 -11.5q15 0 31 5.5t26 11.5l-19 -60q-35 -15 -65 -15q-38 0 -64 21t-26 56q0 24 11 44.5t30.5 37t45 30t55.5 24.5h77v0zM79 0h-77l140 430h77zM299 561h-77l36 110h77z" />
    <glyph glyph-name="itilde" unicode="&#x129;" 
d="M79 0h-77l140 430h77zM301 643q18 0 30.5 9t17.5 31h66q-11 -51 -42 -76t-73 -25q-20 0 -36 6t-30 13.5t-26.5 14t-25.5 6.5q-18 0 -30.5 -9t-17.5 -31h-66q11 51 42 76t73 25q19 0 35 -6.5t30 -14t26.5 -13.5t26.5 -6z" />
    <glyph glyph-name="uni1ECB" unicode="&#x1ecb;" 
d="M21 -180h-77l35 110h77zM79 0h-77l140 430h77zM262 561h-77l36 110h77z" />
    <glyph glyph-name="uni0237" unicode="&#x237;" 
d="M-76 -242l218 672h77l-193 -595l-101 -77h-1z" />
    <glyph glyph-name="jcircumflex" unicode="&#x135;" 
d="M362 554h-71l-42 100l-138 -100h-77l190 157h74zM-76 -242l218 672h77l-193 -595l-101 -77h-1z" />
    <glyph glyph-name="uni0137" unicode="&#x137;" horiz-adv-x="456" 
d="M79 0h-77l231 711h77zM420 430h95l-260 -206l125 -224h-90l-126 226v1zM119 -165h-39l31 95h92l-31 -95l-80 -97h-53z" />
    <glyph glyph-name="lacute" unicode="&#x13a;" 
d="M315 743h-72l133 121h117zM79 0h-77l231 711h77z" />
    <glyph glyph-name="lcaron" unicode="&#x13e;" horiz-adv-x="246" 
d="M79 0h-77l231 711h77zM333 511h-50l125 200h90z" />
    <glyph glyph-name="uni013C" unicode="&#x13c;" 
d="M-16 -165h-39l31 95h92l-31 -95l-80 -97h-53zM79 0h-77l231 711h77z" />
    <glyph glyph-name="ldot" unicode="&#x140;" horiz-adv-x="277" 
d="M318 307h-77l36 110h77zM79 0h-77l231 711h77z" />
    <glyph glyph-name="lslash" unicode="&#x142;" horiz-adv-x="291" 
d="M264 439l103 59l-24 -75l-103 -59l-118 -364h-77l100 309l-101 -58l24 75l102 58l106 327h77z" />
    <glyph glyph-name="nacute" unicode="&#x144;" horiz-adv-x="508" 
d="M192 344q35 54 75.5 75.5t81.5 21.5q29 0 55 -11.5t42 -34.5t19.5 -58.5t-12.5 -83.5l-82 -253h-77l87 267q18 56 -1.5 82t-61.5 26q-56 0 -101 -44t-72 -127l-66 -204h-77l140 430h77l-28 -86h1v0zM420 554h-72l131 157h122z" />
    <glyph glyph-name="ncaron" unicode="&#x148;" horiz-adv-x="508" 
d="M192 344q35 54 75.5 75.5t81.5 21.5q29 0 55 -11.5t42 -34.5t19.5 -58.5t-12.5 -83.5l-82 -253h-77l87 267q18 56 -1.5 82t-61.5 26q-56 0 -101 -44t-72 -127l-66 -204h-77l140 430h77l-28 -86h1v0zM271 711h71l42 -100l138 100h77l-190 -157h-74z" />
    <glyph glyph-name="uni0146" unicode="&#x146;" horiz-adv-x="508" 
d="M192 344q35 54 75.5 75.5t81.5 21.5q29 0 55 -11.5t42 -34.5t19.5 -58.5t-12.5 -83.5l-82 -253h-77l87 267q18 56 -1.5 82t-61.5 26q-56 0 -101 -44t-72 -127l-66 -204h-77l140 430h77l-28 -86h1v0zM141 -165h-39l31 95h92l-31 -95l-80 -97h-53z" />
    <glyph glyph-name="oe" unicode="&#x153;" horiz-adv-x="865" 
d="M234 -12q-45 0 -81 14.5t-61.5 40t-39 61t-13.5 76.5q0 51 19.5 98.5t53.5 84.5t81 59t103 22q62 0 104 -27t62 -73q31 45 78.5 72.5t108.5 27.5q52 0 89 -22t58.5 -57t28 -79t-1.5 -87h-345q-4 -37 4 -64t23.5 -45t37 -27t45.5 -9q42 0 78 17.5t53 50.5h81
q-14 -33 -37 -58.5t-53 -42t-64 -25t-70 -8.5q-57 0 -94.5 26.5t-55.5 71.5q-32 -45 -81 -71.5t-111 -26.5zM239 54q41 0 73 18t54.5 46.5t34.5 63.5t12 69q0 63 -34.5 95t-87.5 32q-41 0 -73 -18t-54.5 -46.5t-34.5 -63.5t-12 -69q0 -63 34.5 -95t87.5 -32zM640 380
q-23 0 -45.5 -7.5t-43 -23t-37 -38t-25.5 -52.5h265q2 25 -4.5 47t-21 38.5t-36.5 26t-52 9.5z" />
    <glyph glyph-name="obreve" unicode="&#x14f;" horiz-adv-x="530" 
d="M234 -12q-45 0 -81 14.5t-61.5 40t-39 61t-13.5 76.5q0 51 19.5 98.5t53.5 84.5t81 59t103 22q45 0 81 -14.5t61.5 -40t39 -61t13.5 -76.5q0 -51 -19.5 -98.5t-53.5 -84.5t-81.5 -59t-102.5 -22zM239 54q41 0 73 18t54.5 46.5t34.5 63.5t12 69q0 63 -34.5 95t-87.5 32
q-41 0 -73 -18t-54.5 -46.5t-34.5 -63.5t-12 -69q0 -63 34.5 -95t87.5 -32zM391 575q-32 0 -56 9t-39.5 25t-23.5 36.5t-6 44.5h61q-2 -64 64 -64q33 0 59.5 14.5t40.5 49.5h61q-17 -51 -57.5 -83t-103.5 -32z" />
    <glyph glyph-name="ohungarumlaut" unicode="&#x151;" horiz-adv-x="530" 
d="M234 -12q-45 0 -81 14.5t-61.5 40t-39 61t-13.5 76.5q0 51 19.5 98.5t53.5 84.5t81 59t103 22q45 0 81 -14.5t61.5 -40t39 -61t13.5 -76.5q0 -51 -19.5 -98.5t-53.5 -84.5t-81.5 -59t-102.5 -22zM239 54q41 0 73 18t54.5 46.5t34.5 63.5t12 69q0 63 -34.5 95t-87.5 32
q-41 0 -73 -18t-54.5 -46.5t-34.5 -63.5t-12 -69q0 -63 34.5 -95t87.5 -32zM357 554h-72l131 157h122zM510 554h-72l131 157h122z" />
    <glyph glyph-name="omacron" unicode="&#x14d;" horiz-adv-x="530" 
d="M234 -12q-45 0 -81 14.5t-61.5 40t-39 61t-13.5 76.5q0 51 19.5 98.5t53.5 84.5t81 59t103 22q45 0 81 -14.5t61.5 -40t39 -61t13.5 -76.5q0 -51 -19.5 -98.5t-53.5 -84.5t-81.5 -59t-102.5 -22zM239 54q41 0 73 18t54.5 46.5t34.5 63.5t12 69q0 63 -34.5 95t-87.5 32
q-41 0 -73 -18t-54.5 -46.5t-34.5 -63.5t-12 -69q0 -63 34.5 -95t87.5 -32zM241 599l21 67h260l-21 -67h-260z" />
    <glyph glyph-name="uni1ECD" unicode="&#x1ecd;" horiz-adv-x="530" 
d="M234 -12q-45 0 -81 14.5t-61.5 40t-39 61t-13.5 76.5q0 51 19.5 98.5t53.5 84.5t81 59t103 22q45 0 81 -14.5t61.5 -40t39 -61t13.5 -76.5q0 -51 -19.5 -98.5t-53.5 -84.5t-81.5 -59t-102.5 -22zM239 54q41 0 73 18t54.5 46.5t34.5 63.5t12 69q0 63 -34.5 95t-87.5 32
q-41 0 -73 -18t-54.5 -46.5t-34.5 -63.5t-12 -69q0 -63 34.5 -95t87.5 -32zM174 -180h-77l35 110h77z" />
    <glyph glyph-name="racute" unicode="&#x155;" horiz-adv-x="329" 
d="M187 329q38 62 84 85t110 23h6l-26 -78h-26q-28 0 -55.5 -7t-52 -24t-45.5 -46.5t-36 -75.5l-67 -206h-77l140 430h77l-33 -101h1v0zM338 554h-72l131 157h122z" />
    <glyph glyph-name="rcaron" unicode="&#x159;" horiz-adv-x="329" 
d="M187 329q38 62 84 85t110 23h6l-26 -78h-26q-28 0 -55.5 -7t-52 -24t-45.5 -46.5t-36 -75.5l-67 -206h-77l140 430h77l-33 -101h1v0zM198 711h71l42 -100l138 100h77l-190 -157h-74z" />
    <glyph glyph-name="uni0157" unicode="&#x157;" horiz-adv-x="329" 
d="M187 329q38 62 84 85t110 23h6l-26 -78h-26q-28 0 -55.5 -7t-52 -24t-45.5 -46.5t-36 -75.5l-67 -206h-77l140 430h77l-33 -101h1v0zM-20 -165h-39l31 95h92l-31 -95l-80 -97h-53z" />
    <glyph glyph-name="sacute" unicode="&#x15b;" horiz-adv-x="381" 
d="M146 -12q-36 0 -63 11.5t-45 31t-27 44t-9 50.5h73q1 -21 8.5 -35t18.5 -23t25 -13t28 -4q38 0 60.5 18.5t22.5 44.5q0 38 -47 69l-41 27q-31 20 -49 49t-18 63q0 23 10 45t29.5 39t47.5 27.5t64 10.5q66 0 99 -35.5t33 -91.5h-73q-3 34 -21 48.5t-46 14.5
q-34 0 -51 -16.5t-17 -39.5q0 -21 12 -36t29 -26l41 -27q32 -21 52 -48t20 -62q0 -29 -11.5 -53.5t-33 -43t-52 -29t-69.5 -10.5zM340 554h-72l131 157h122z" />
    <glyph glyph-name="scaron" unicode="&#x161;" horiz-adv-x="381" 
d="M146 -12q-36 0 -63 11.5t-45 31t-27 44t-9 50.5h73q1 -21 8.5 -35t18.5 -23t25 -13t28 -4q38 0 60.5 18.5t22.5 44.5q0 38 -47 69l-41 27q-31 20 -49 49t-18 63q0 23 10 45t29.5 39t47.5 27.5t64 10.5q66 0 99 -35.5t33 -91.5h-73q-3 34 -21 48.5t-46 14.5
q-34 0 -51 -16.5t-17 -39.5q0 -21 12 -36t29 -26l41 -27q32 -21 52 -48t20 -62q0 -29 -11.5 -53.5t-33 -43t-52 -29t-69.5 -10.5zM191 711h71l42 -100l138 100h77l-190 -157h-74z" />
    <glyph glyph-name="scedilla" unicode="&#x15f;" horiz-adv-x="381" 
d="M146 -12q-36 0 -63 11.5t-45 31t-27 44t-9 50.5h73q1 -21 8.5 -35t18.5 -23t25 -13t28 -4q38 0 60.5 18.5t22.5 44.5q0 38 -47 69l-41 27q-31 20 -49 49t-18 63q0 23 10 45t29.5 39t47.5 27.5t64 10.5q66 0 99 -35.5t33 -91.5h-73q-3 34 -21 48.5t-46 14.5
q-34 0 -51 -16.5t-17 -39.5q0 -21 12 -36t29 -26l41 -27q32 -21 52 -48t20 -62q0 -29 -11.5 -53.5t-33 -43t-52 -29t-69.5 -10.5zM71 -81q21 12 47 12t45.5 -15.5t19.5 -50.5q0 -21 -10.5 -40t-29 -33.5t-45 -23t-59.5 -8.5q-22 0 -45 5t-41 14l23 42q14 -8 29.5 -12.5
t35.5 -4.5q38 0 56 16.5t18 36.5q0 16 -10.5 26.5t-30.5 10.5t-45 -11l-20 21l90 96h47l-76 -81h1z" />
    <glyph glyph-name="scircumflex" unicode="&#x15d;" horiz-adv-x="381" 
d="M146 -12q-36 0 -63 11.5t-45 31t-27 44t-9 50.5h73q1 -21 8.5 -35t18.5 -23t25 -13t28 -4q38 0 60.5 18.5t22.5 44.5q0 38 -47 69l-41 27q-31 20 -49 49t-18 63q0 23 10 45t29.5 39t47.5 27.5t64 10.5q66 0 99 -35.5t33 -91.5h-73q-3 34 -21 48.5t-46 14.5
q-34 0 -51 -16.5t-17 -39.5q0 -21 12 -36t29 -26l41 -27q32 -21 52 -48t20 -62q0 -29 -11.5 -53.5t-33 -43t-52 -29t-69.5 -10.5zM447 554h-71l-42 100l-138 -100h-77l190 157h74z" />
    <glyph glyph-name="uni0219" unicode="&#x219;" horiz-adv-x="381" 
d="M146 -12q-36 0 -63 11.5t-45 31t-27 44t-9 50.5h73q1 -21 8.5 -35t18.5 -23t25 -13t28 -4q38 0 60.5 18.5t22.5 44.5q0 38 -47 69l-41 27q-31 20 -49 49t-18 63q0 23 10 45t29.5 39t47.5 27.5t64 10.5q66 0 99 -35.5t33 -91.5h-73q-3 34 -21 48.5t-46 14.5
q-34 0 -51 -16.5t-17 -39.5q0 -21 12 -36t29 -26l41 -27q32 -21 52 -48t20 -62q0 -29 -11.5 -53.5t-33 -43t-52 -29t-69.5 -10.5zM65 -167h-39l31 95h92l-31 -95l-80 -97h-53z" />
    <glyph glyph-name="tcaron" unicode="&#x165;" horiz-adv-x="330" 
d="M266 430h122l-21 -64h-122l-119 -366h-77l119 366h-105l21 64h105l37 116l101 76h1zM393 511h-50l125 200h90z" />
    <glyph glyph-name="uni0163" unicode="&#x163;" horiz-adv-x="330" 
d="M266 430h122l-21 -64h-122l-119 -366h-77l119 366h-105l21 64h105l37 116l101 76h1zM27 -165h-39l31 95h92l-31 -95l-80 -97h-53z" />
    <glyph glyph-name="uni021B" unicode="&#x21b;" horiz-adv-x="330" 
d="M266 430h122l-21 -64h-122l-119 -366h-77l119 366h-105l21 64h105l37 116l101 76h1zM27 -165h-39l31 95h92l-31 -95l-80 -97h-53z" />
    <glyph glyph-name="ubreve" unicode="&#x16d;" horiz-adv-x="498" 
d="M305 86q-35 -54 -73 -76t-79 -22q-29 0 -54 11.5t-40.5 35t-18 59t13.5 83.5l82 253h77l-87 -267q-18 -56 0 -82.5t60 -26.5q56 0 97.5 45t68.5 128l66 203h77l-140 -430h-77l28 86h-1v0zM373 575q-32 0 -56 9t-39.5 25t-23.5 36.5t-6 44.5h61q-2 -64 64 -64
q33 0 59.5 14.5t40.5 49.5h61q-17 -51 -57.5 -83t-103.5 -32z" />
    <glyph glyph-name="uhungarumlaut" unicode="&#x171;" horiz-adv-x="498" 
d="M305 86q-35 -54 -73 -76t-79 -22q-29 0 -54 11.5t-40.5 35t-18 59t13.5 83.5l82 253h77l-87 -267q-18 -56 0 -82.5t60 -26.5q56 0 97.5 45t68.5 128l66 203h77l-140 -430h-77l28 86h-1v0zM309 554h-72l131 157h122zM462 554h-72l131 157h122z" />
    <glyph glyph-name="umacron" unicode="&#x16b;" horiz-adv-x="498" 
d="M305 86q-35 -54 -73 -76t-79 -22q-29 0 -54 11.5t-40.5 35t-18 59t13.5 83.5l82 253h77l-87 -267q-18 -56 0 -82.5t60 -26.5q56 0 97.5 45t68.5 128l66 203h77l-140 -430h-77l28 86h-1v0zM233 599l21 67h260l-21 -67h-260z" />
    <glyph glyph-name="uogonek" unicode="&#x173;" horiz-adv-x="498" 
d="M305 86q-35 -54 -73 -76t-79 -22q-29 0 -54 11.5t-40.5 35t-18 59t13.5 83.5l82 253h77l-87 -267q-18 -56 0 -82.5t60 -26.5q56 0 97.5 45t68.5 128l66 203h77l-140 -430h-77l28 86h-1v0zM356 0q-62 -29 -101.5 -57.5t-39.5 -59.5q0 -15 9.5 -26.5t29.5 -11.5
q15 0 31 5.5t26 11.5l-19 -60q-35 -15 -65 -15q-38 0 -64 21t-26 56q0 24 11 44.5t30.5 37t45 30t55.5 24.5h77v0z" />
    <glyph glyph-name="uring" unicode="&#x16f;" horiz-adv-x="498" 
d="M305 86q-35 -54 -73 -76t-79 -22q-29 0 -54 11.5t-40.5 35t-18 59t13.5 83.5l82 253h77l-87 -267q-18 -56 0 -82.5t60 -26.5q56 0 97.5 45t68.5 128l66 203h77l-140 -430h-77l28 86h-1v0zM352 522q-23 0 -43 9t-35 24t-23.5 35t-8.5 43q0 22 8.5 42t23.5 35t35 24t43 9
t43 -9t35 -24t24 -35t9 -42q0 -23 -9 -43t-24 -35t-35 -24t-43 -9zM352 565q29 0 48.5 19.5t19.5 48.5q0 28 -19.5 47.5t-48.5 19.5q-28 0 -47.5 -19.5t-19.5 -47.5q0 -29 19.5 -48.5t47.5 -19.5z" />
    <glyph glyph-name="utilde" unicode="&#x169;" horiz-adv-x="498" 
d="M305 86q-35 -54 -73 -76t-79 -22q-29 0 -54 11.5t-40.5 35t-18 59t13.5 83.5l82 253h77l-87 -267q-18 -56 0 -82.5t60 -26.5q56 0 97.5 45t68.5 128l66 203h77l-140 -430h-77l28 86h-1v0zM417 643q18 0 30.5 9t17.5 31h66q-11 -51 -42 -76t-73 -25q-20 0 -36 6t-30 13.5
t-26.5 14t-25.5 6.5q-18 0 -30.5 -9t-17.5 -31h-66q11 51 42 76t73 25q19 0 35 -6.5t30 -14t26.5 -13.5t26.5 -6z" />
    <glyph glyph-name="uni1EE5" unicode="&#x1ee5;" horiz-adv-x="498" 
d="M305 86q-35 -54 -73 -76t-79 -22q-29 0 -54 11.5t-40.5 35t-18 59t13.5 83.5l82 253h77l-87 -267q-18 -56 0 -82.5t60 -26.5q56 0 97.5 45t68.5 128l66 203h77l-140 -430h-77l28 86h-1v0zM148 -180h-77l35 110h77z" />
    <glyph glyph-name="wacute" unicode="&#x1e83;" horiz-adv-x="653" 
d="M92 430h74l-16 -326l198 294h68l-4 -294l208 326h80l-277 -430h-72l7 313l-209 -313h-72zM474 554h-72l131 157h122z" />
    <glyph glyph-name="wcircumflex" unicode="&#x175;" horiz-adv-x="653" 
d="M92 430h74l-16 -326l198 294h68l-4 -294l208 326h80l-277 -430h-72l7 313l-209 -313h-72zM579 554h-71l-42 100l-138 -100h-77l190 157h74z" />
    <glyph glyph-name="wdieresis" unicode="&#x1e85;" horiz-adv-x="653" 
d="M92 430h74l-16 -326l198 294h68l-4 -294l208 326h80l-277 -430h-72l7 313l-209 -313h-72zM614 687l-36 -110h-77l36 110h77zM377 577h-77l36 110h77z" />
    <glyph glyph-name="wgrave" unicode="&#x1e81;" horiz-adv-x="653" 
d="M92 430h74l-16 -326l198 294h68l-4 -294l208 326h80l-277 -430h-72l7 313l-209 -313h-72zM307 711l131 -157h-72l-181 157h122z" />
    <glyph glyph-name="ycircumflex" unicode="&#x177;" horiz-adv-x="468" 
d="M123 0l-43 430h75l31 -338l263 338h83l-333 -430l-85 -230h-76zM492 554h-71l-42 100l-138 -100h-77l190 157h74z" />
    <glyph glyph-name="ygrave" unicode="&#x1ef3;" horiz-adv-x="468" 
d="M123 0l-43 430h75l31 -338l263 338h83l-333 -430l-85 -230h-76zM239 711l131 -157h-72l-181 157h122z" />
    <glyph glyph-name="uni0233" unicode="&#x233;" horiz-adv-x="468" 
d="M123 0l-43 430h75l31 -338l263 338h83l-333 -430l-85 -230h-76zM218 599l21 67h260l-21 -67h-260z" />
    <glyph glyph-name="zacute" unicode="&#x17a;" horiz-adv-x="428" 
d="M-52 0l369 366h-222l21 64h355l-369 -366h242l-21 -64h-375zM372 554h-72l131 157h122z" />
    <glyph glyph-name="zcaron" unicode="&#x17e;" horiz-adv-x="428" 
d="M-52 0l369 366h-222l21 64h355l-369 -366h242l-21 -64h-375zM228 711h71l42 -100l138 100h77l-190 -157h-74z" />
    <glyph glyph-name="zdotaccent" unicode="&#x17c;" horiz-adv-x="428" 
d="M-52 0l369 366h-222l21 64h355l-369 -366h242l-21 -64h-375zM356 577h-77l36 110h77z" />
    <glyph glyph-name="ellipsis" unicode="&#x2026;" horiz-adv-x="740" 
d="M539 110h110l-36 -110h-110zM289 110h110l-36 -110h-110zM39 110h110l-36 -110h-110z" />
    <glyph glyph-name="endash" unicode="&#x2013;" horiz-adv-x="497" 
d="M54 186l21 62h369l-21 -62h-369z" />
    <glyph glyph-name="emdash" unicode="&#x2014;" horiz-adv-x="779" 
d="M54 186l21 62h651l-21 -62h-651z" />
    <glyph glyph-name="guilsinglleft" unicode="&#x2039;" horiz-adv-x="292" 
d="M127 212l51 -176h-80l-53 182l171 182h88z" />
    <glyph glyph-name="guilsinglright" unicode="&#x203a;" horiz-adv-x="291" 
d="M165.99 223.986l-50.9971 175.989h79.9951l52.9961 -181.989l-170.989 -181.988h-87.9941z" />
    <glyph glyph-name="quoteleft" unicode="&#x2018;" horiz-adv-x="236" 
d="M225 553h49l-36 -110h-110l36 110l118 139h61z" />
    <glyph glyph-name="quoteright" unicode="&#x2019;" horiz-adv-x="231" 
d="M240 582h-49l36 110h110l-36 -110l-118 -139h-61z" />
    <glyph glyph-name="quotedblleft" unicode="&#x201c;" horiz-adv-x="417" 
d="M225 553h49l-36 -110h-110l36 110l118 139h61zM406 553h49l-36 -110h-110l36 110l118 139h61z" />
    <glyph glyph-name="quotedblright" unicode="&#x201d;" horiz-adv-x="412" 
d="M421 582h-49l36 110h110l-36 -110l-118 -139h-61zM240 582h-49l36 110h110l-36 -110l-118 -139h-61z" />
    <glyph glyph-name="quotesinglbase" unicode="&#x201a;" horiz-adv-x="249" 
d="M58 0h-49l36 110h110l-36 -110l-118 -139h-61z" />
    <glyph glyph-name="quotedblbase" unicode="&#x201e;" horiz-adv-x="430" 
d="M239 0h-49l36 110h110l-36 -110l-118 -139h-61zM58 0h-49l36 110h110l-36 -110l-118 -139h-61z" />
    <glyph glyph-name="bullet" unicode="&#x2022;" horiz-adv-x="479" 
d="M406 224q0 -34 -13 -63.5t-35.5 -52t-52 -35.5t-63.5 -13t-63.5 13t-52 35.5t-35.5 52t-13 63.5t13 63.5t35.5 52t52 35.5t63.5 13t63.5 -13t52 -35.5t35.5 -52t13 -63.5z" />
    <glyph glyph-name="minus" unicode="&#x2212;" horiz-adv-x="530" 
d="M61 248h430l-21 -62h-430z" />
    <glyph glyph-name="Euro" unicode="&#x20ac;" horiz-adv-x="725" 
d="M220 452q24 56 63 102.5t87.5 79.5t104 51t113.5 18q66 0 120 -16t104 -56l-46 -61q-38 33 -82.5 48t-98.5 15q-45 0 -86.5 -13.5t-77.5 -37.5t-64.5 -57t-48.5 -73h370l-46 -60h-348q-13 -45 -15 -92h294l-45 -60h-246q7 -44 26.5 -78t49 -57t67.5 -35t82 -12
q72 0 139 32l-26 -81q-27 -9 -57 -15t-59 -6q-69 0 -123 19.5t-92 53.5t-60.5 80t-29.5 99h-140l46 60h91q2 49 13 92h-101l46 60h76z" />
    <glyph glyph-name="uniFB01" unicode="&#xfb01;" horiz-adv-x="532" 
d="M168 366h-106l21 64h106l30 92q18 55 39 91.5t48 58.5t62.5 30.5t82.5 8.5h29l-22 -69h-24q-53 0 -86 -29.5t-57 -104.5l-25 -78h93l-21 -64h-93l-119 -366h-77zM389 0h-77l140 430h77zM571 561h-77l36 110h77z" />
    <glyph glyph-name="uniFB02" unicode="&#xfb02;" horiz-adv-x="532" 
d="M168 366h-106l21 64h106l30 92q18 55 39 91.5t48 58.5t62.5 30.5t82.5 8.5h29l-22 -69h-24q-53 0 -86 -29.5t-57 -104.5l-25 -78h93l-21 -64h-93l-119 -366h-77zM389 0h-77l231 711h77z" />
    <glyph glyph-name="glyph328" horiz-adv-x="497" 
d="M399 561h-77l36 110h77z" />
    <glyph glyph-name="breve" unicode="&#x2d8;" horiz-adv-x="316" 
d="M285 575q-32 0 -56 9t-39.5 25t-23.5 36.5t-6 44.5h61q-2 -64 64 -64q33 0 59.5 14.5t40.5 49.5h61q-17 -51 -57.5 -83t-103.5 -32z" />
    <glyph glyph-name="caron" unicode="&#x2c7;" horiz-adv-x="338" 
d="M164 711h71l42 -100l138 100h77l-190 -157h-74z" />
    <glyph glyph-name="circumflex" unicode="&#x2c6;" horiz-adv-x="338" 
d="M420 554h-71l-42 100l-138 -100h-77l190 157h74z" />
    <glyph glyph-name="dotaccent" unicode="&#x2d9;" horiz-adv-x="147" 
d="M197 577h-77l36 110h77z" />
    <glyph glyph-name="glyph333" horiz-adv-x="147" 
d="M-16 -180h-77l35 110h77z" />
    <glyph glyph-name="hungarumlaut" unicode="&#x2dd;" horiz-adv-x="374" 
d="M219 554h-72l131 157h122zM372 554h-72l131 157h122z" />
    <glyph glyph-name="glyph335" horiz-adv-x="162" 
d="M-50 -165h-39l31 95h92l-31 -95l-80 -97h-53z" />
    <glyph glyph-name="ogonek" unicode="&#x2db;" horiz-adv-x="264" 
d="M150 0q-62 -29 -101.5 -57.5t-39.5 -59.5q0 -15 9.5 -26.5t29.5 -11.5q15 0 31 5.5t26 11.5l-19 -60q-35 -15 -65 -15q-38 0 -64 21t-26 56q0 24 11 44.5t30.5 37t45 30t55.5 24.5h77v0z" />
    <glyph glyph-name="ring" unicode="&#x2da;" horiz-adv-x="301" 
d="M264 522q-23 0 -43 9t-35 24t-23.5 35t-8.5 43q0 22 8.5 42t23.5 35t35 24t43 9t43 -9t35 -24t24 -35t9 -42q0 -23 -9 -43t-24 -35t-35 -24t-43 -9zM264 565q29 0 48.5 19.5t19.5 48.5q0 28 -19.5 47.5t-48.5 19.5q-28 0 -47.5 -19.5t-19.5 -47.5q0 -29 19.5 -48.5
t47.5 -19.5z" />
    <glyph glyph-name="tilde" unicode="&#x2dc;" horiz-adv-x="330" 
d="M324 643q18 0 30.5 9t17.5 31h66q-11 -51 -42 -76t-73 -25q-20 0 -36 6t-30 13.5t-26.5 14t-25.5 6.5q-18 0 -30.5 -9t-17.5 -31h-66q11 51 42 76t73 25q19 0 35 -6.5t30 -14t26.5 -13.5t26.5 -6z" />
    <glyph glyph-name="glyph339" horiz-adv-x="252" 
d="M280 743h-72l133 121h117z" />
    <glyph glyph-name="glyph340" horiz-adv-x="316" 
d="M347 739q-32 0 -56 9t-39.5 25t-23.5 36.5t-6 44.5h61q-2 -64 64 -64q33 0 59.5 14.5t40.5 49.5h61q-17 -51 -57.5 -83t-103.5 -32z" />
    <glyph glyph-name="glyph341" horiz-adv-x="338" 
d="M176 864h70l65 -64l115 64h78l-167 -121h-74z" />
    <glyph glyph-name="glyph342" horiz-adv-x="268" 
d="M12 -81q21 12 47 12t45.5 -15.5t19.5 -50.5q0 -21 -10.5 -40t-29 -33.5t-45 -23t-59.5 -8.5q-22 0 -45 5t-41 14l23 42q14 -8 29.5 -12.5t35.5 -4.5q38 0 56 16.5t18 36.5q0 16 -10.5 26.5t-30.5 10.5t-45 -11l-20 21l90 96h47l-76 -81h1z" />
    <glyph glyph-name="glyph343" horiz-adv-x="338" 
d="M504 743h-70l-65 64l-115 -64h-78l167 121h74z" />
    <glyph glyph-name="glyph344" horiz-adv-x="348" 
d="M231 853h77l-36 -110h-77zM432 853h77l-36 -110h-77z" />
    <glyph glyph-name="glyph345" horiz-adv-x="147" 
d="M283 743h-77l36 110h77z" />
    <glyph glyph-name="glyph346" 
d="M184 864h100l85 -121h-72z" />
    <glyph glyph-name="glyph347" horiz-adv-x="404" 
d="M496 864h117l-178 -121h-72zM336 864h117l-178 -121h-72z" />
    <glyph glyph-name="glyph348" horiz-adv-x="300" 
d="M195 753l21 67h260l-21 -67h-260z" />
    <glyph glyph-name="glyph349" horiz-adv-x="267" 
d="M152 0q-62 -29 -101.5 -57.5t-39.5 -59.5q0 -15 8.5 -26.5t28.5 -11.5q15 0 31 5.5t26 11.5l-19 -60q-35 -15 -65 -15q-38 0 -65.5 21t-27.5 56q0 24 11 44.5t30.5 37t45 30t55.5 24.5h82v0z" />
    <glyph glyph-name="glyph350" horiz-adv-x="301" 
d="M357 782q29 0 48.5 19.5t19.5 48.5q0 28 -19.5 47.5t-48.5 19.5q-28 0 -47.5 -19.5t-19.5 -47.5q0 -29 19.5 -48.5t47.5 -19.5zM357 739q-23 0 -43 9t-35 24t-23.5 35t-8.5 43q0 22 8.5 42t23.5 35t35 24t43 9t43 -9t35 -24t24 -35t9 -42q0 -23 -9 -43t-24 -35t-35 -24
t-43 -9z" />
    <glyph glyph-name="glyph351" horiz-adv-x="328" 
d="M417 817q18 0 30.5 9t17.5 31h66q-11 -51 -42 -76t-73 -25q-20 0 -36 6t-30 13.5t-26.5 14t-25.5 6.5q-18 0 -30.5 -9t-17.5 -31h-66q11 51 42 76t73 25q19 0 35 -6.5t30 -14t26.5 -13.5t26.5 -6z" />
    <glyph glyph-name="glyph352" horiz-adv-x="160" 
d="M151 511h-50l125 200h90z" />
    </font>
</defs>
</svg>
